*
%LPD*%
%LNBottom_SolderMask*%
%FSLAX25Y25*%
%MOIN*%
%AD*%
%AD*%
%ADD55C,0.0828*%
%AMD56_Octagon*
4,1,8,-0.0414,0.017148,-0.017148,0.0414,0.017148,0.0414,0.0414,0.017148,0.0414,-0.017148,0.017148,-0.0414,-0.017148,-0.0414,-0.0414,-0.017148,-0.0414,0.017148,0*
%
%ADD56D56_Octagon*%
%ADD57C,0.082*%
%AMD58_Octagon*
4,1,8,-0.03975,0.016482,-0.016482,0.03975,0.016482,0.03975,0.03975,0.016482,0.03975,-0.016482,0.016482,-0.03975,-0.016482,-0.03975,-0.03975,-0.016482,-0.03975,0.016482,0*
%
%ADD58D58_Octagon*%
%ADD61C,0.070990157*%
%ADD62C,0.0715*%
%ADD66C,0.0915*%
%ADD68C,0.078870079*%
%AMD69_Octagon*
4,1,8,-0.039,0.016165,-0.016165,0.039,0.016165,0.039,0.039,0.016165,0.039,-0.016165,0.016165,-0.039,-0.016165,-0.039,-0.039,-0.016165,-0.039,0.016165,0*
%
%ADD69D69_Octagon*%
%ADD70C,0.078*%
%ADD73C,0.064*%
%ADD74C,0.063120079*%
%ADD75C,0.126109843*%
G54D55*
%SRX1Y1I0.0J0.0*%
G1X146363Y112115D3*
G54D56*
G1X136363Y112115D3*
G1X126363Y112115D3*
G1X126363Y102115D3*
G1X136363Y102115D3*
G1X146363Y102115D3*
G54D57*
G1X93056Y142675D3*
G1X93056Y154075D3*
G1X73371Y154075D3*
G1X73371Y142675D3*
G1X53686Y142675D3*
G1X53686Y154075D3*
G54D58*
G1X111520Y152469D3*
G1X121520Y152469D3*
G1X121520Y142469D3*
G1X111520Y142469D3*
G1X252504Y135225D3*
G1X252504Y125225D3*
G1X252504Y115225D3*
G1X252504Y105225D3*
G1X252504Y95225D3*
G1X252504Y85225D3*
G1X252504Y75225D3*
G1X252504Y65225D3*
G1X107308Y61918D2*
G54D61*
G1X101008Y61918D1*
G1X101008Y51918D2*
G1X107308Y51918D1*
G1X107308Y30422D2*
G1X101008Y30422D1*
G1X101008Y20422D2*
G1X107308Y20422D1*
G1X77229Y30422D2*
G1X70930Y30422D1*
G1X70930Y61918D2*
G1X77229Y61918D1*
G1X101008Y83414D2*
G1X107308Y83414D1*
G1X107308Y93414D2*
G1X101008Y93414D1*
G1X77229Y93414D2*
G1X70930Y93414D1*
G1X70904Y83414D2*
G54D62*
G1X77254Y83414D1*
G1X77254Y51918D2*
G1X70904Y51918D1*
G1X70904Y20422D2*
G1X77254Y20422D1*
G1X48018Y44977D2*
G54D66*
G1X39668Y44977D1*
G1X39668Y64777D2*
G1X48018Y64777D1*
G1X48018Y84477D2*
G1X39668Y84477D1*
G1X39668Y104177D2*
G1X48018Y104177D1*
G1X48018Y123877D2*
G1X39668Y123877D1*
G54D68*
G1X228882Y78887D3*
G1X228882Y38887D3*
G54D69*
G1X38843Y19517D3*
G1X248567Y46170D3*
G54D70*
G1X248567Y36170D3*
G1X48843Y19517D3*
G54D73*
G1X102898Y11643D3*
G1X141284Y27391D3*
G1X147682Y21485D3*
G1X146205Y51997D3*
G1X181638Y78572D3*
G1X169827Y94320D3*
G1X175733Y112036D3*
G1X173764Y119910D3*
G1X181441Y122076D3*
G1X157524Y112036D3*
G1X128489Y121879D3*
G1X108804Y114005D3*
G1X124552Y93335D3*
G1X130804Y87776D3*
G1X146697Y82509D3*
G1X203292Y48552D3*
G1X207032Y68926D3*
G1X238725Y59871D3*
G1X256441Y27391D3*
G1X244630Y25422D3*
G1X228882Y108099D3*
G1X244138Y109576D3*
G1X244138Y122371D3*
G1X243154Y142548D3*
G1X226746Y143700D3*
G1X217071Y135658D3*
G1X207721Y153375D3*
G1X187827Y147186D3*
G1X165237Y153170D3*
G1X140300Y149438D3*
G1X101914Y139595D3*
G54D74*
G1X108575Y130209D3*
G1X130756Y147225D3*
G1X171796Y138611D3*
G1X212150Y126800D3*
G1X153095Y92351D3*
G1X186560Y71682D3*
G1X141284Y60855D3*
G54D75*
G1X252504Y15580D3*
G1X252504Y153375D3*
G1X35969Y153375D3*
G54D55*
G1X386520Y112115D3*
G54D56*
G1X376520Y112115D3*
G1X366520Y112115D3*
G1X366520Y102115D3*
G1X376520Y102115D3*
G1X386520Y102115D3*
G54D57*
G1X333213Y142675D3*
G1X333213Y154075D3*
G1X313528Y154075D3*
G1X313528Y142675D3*
G1X293843Y142675D3*
G1X293843Y154075D3*
G54D58*
G1X351677Y152469D3*
G1X361677Y152469D3*
G1X361677Y142469D3*
G1X351677Y142469D3*
G1X492661Y135225D3*
G1X492661Y125225D3*
G1X492661Y115225D3*
G1X492661Y105225D3*
G1X492661Y95225D3*
G1X492661Y85225D3*
G1X492661Y75225D3*
G1X492661Y65225D3*
G1X347465Y61918D2*
G54D61*
G1X341165Y61918D1*
G1X341165Y51918D2*
G1X347465Y51918D1*
G1X347465Y30422D2*
G1X341165Y30422D1*
G1X341165Y20422D2*
G1X347465Y20422D1*
G1X317386Y30422D2*
G1X311087Y30422D1*
G1X311087Y61918D2*
G1X317386Y61918D1*
G1X341165Y83414D2*
G1X347465Y83414D1*
G1X347465Y93414D2*
G1X341165Y93414D1*
G1X317386Y93414D2*
G1X311087Y93414D1*
G1X311061Y83414D2*
G54D62*
G1X317411Y83414D1*
G1X317411Y51918D2*
G1X311061Y51918D1*
G1X311061Y20422D2*
G1X317411Y20422D1*
G1X288175Y44977D2*
G54D66*
G1X279825Y44977D1*
G1X279825Y64777D2*
G1X288175Y64777D1*
G1X288175Y84477D2*
G1X279825Y84477D1*
G1X279825Y104177D2*
G1X288175Y104177D1*
G1X288175Y123877D2*
G1X279825Y123877D1*
G54D68*
G1X469039Y78887D3*
G1X469039Y38887D3*
G54D69*
G1X279000Y19517D3*
G1X488724Y46170D3*
G54D70*
G1X488724Y36170D3*
G1X289000Y19517D3*
G54D73*
G1X343055Y11643D3*
G1X381441Y27391D3*
G1X387839Y21485D3*
G1X386362Y51997D3*
G1X421795Y78572D3*
G1X409984Y94320D3*
G1X415890Y112036D3*
G1X413921Y119910D3*
G1X421598Y122076D3*
G1X397681Y112036D3*
G1X368646Y121879D3*
G1X348961Y114005D3*
G1X364709Y93335D3*
G1X370961Y87776D3*
G1X386854Y82509D3*
G1X443449Y48552D3*
G1X447189Y68926D3*
G1X478882Y59871D3*
G1X496598Y27391D3*
G1X484787Y25422D3*
G1X469039Y108099D3*
G1X484295Y109576D3*
G1X484295Y122371D3*
G1X483311Y142548D3*
G1X466903Y143700D3*
G1X457228Y135658D3*
G1X447878Y153375D3*
G1X427984Y147186D3*
G1X405394Y153170D3*
G1X380457Y149438D3*
G1X342071Y139595D3*
G54D74*
G1X348732Y130209D3*
G1X370913Y147225D3*
G1X411953Y138611D3*
G1X452307Y126800D3*
G1X393252Y92351D3*
G1X426717Y71682D3*
G1X381441Y60855D3*
G54D75*
G1X492661Y15580D3*
G1X492661Y153375D3*
G1X276126Y153375D3*
G54D55*
G1X626678Y112115D3*
G54D56*
G1X616678Y112115D3*
G1X606678Y112115D3*
G1X606678Y102115D3*
G1X616678Y102115D3*
G1X626678Y102115D3*
G54D57*
G1X573371Y142675D3*
G1X573371Y154075D3*
G1X553686Y154075D3*
G1X553686Y142675D3*
G1X534001Y142675D3*
G1X534001Y154075D3*
G54D58*
G1X591835Y152469D3*
G1X601835Y152469D3*
G1X601835Y142469D3*
G1X591835Y142469D3*
G1X732819Y135225D3*
G1X732819Y125225D3*
G1X732819Y115225D3*
G1X732819Y105225D3*
G1X732819Y95225D3*
G1X732819Y85225D3*
G1X732819Y75225D3*
G1X732819Y65225D3*
G1X587623Y61918D2*
G54D61*
G1X581323Y61918D1*
G1X581323Y51918D2*
G1X587623Y51918D1*
G1X587623Y30422D2*
G1X581323Y30422D1*
G1X581323Y20422D2*
G1X587623Y20422D1*
G1X557544Y30422D2*
G1X551245Y30422D1*
G1X551245Y61918D2*
G1X557544Y61918D1*
G1X581323Y83414D2*
G1X587623Y83414D1*
G1X587623Y93414D2*
G1X581323Y93414D1*
G1X557544Y93414D2*
G1X551245Y93414D1*
G1X551219Y83414D2*
G54D62*
G1X557569Y83414D1*
G1X557569Y51918D2*
G1X551219Y51918D1*
G1X551219Y20422D2*
G1X557569Y20422D1*
G1X528333Y44977D2*
G54D66*
G1X519983Y44977D1*
G1X519983Y64777D2*
G1X528333Y64777D1*
G1X528333Y84477D2*
G1X519983Y84477D1*
G1X519983Y104177D2*
G1X528333Y104177D1*
G1X528333Y123877D2*
G1X519983Y123877D1*
G54D68*
G1X709197Y78887D3*
G1X709197Y38887D3*
G54D69*
G1X519158Y19517D3*
G1X728882Y46170D3*
G54D70*
G1X728882Y36170D3*
G1X529158Y19517D3*
G54D73*
G1X583213Y11643D3*
G1X621599Y27391D3*
G1X627997Y21485D3*
G1X626520Y51997D3*
G1X661953Y78572D3*
G1X650142Y94320D3*
G1X656048Y112036D3*
G1X654079Y119910D3*
G1X661756Y122076D3*
G1X637839Y112036D3*
G1X608804Y121879D3*
G1X589119Y114005D3*
G1X604867Y93335D3*
G1X611119Y87776D3*
G1X627012Y82509D3*
G1X683607Y48552D3*
G1X687347Y68926D3*
G1X719040Y59871D3*
G1X736756Y27391D3*
G1X724945Y25422D3*
G1X709197Y108099D3*
G1X724453Y109576D3*
G1X724453Y122371D3*
G1X723469Y142548D3*
G1X707061Y143700D3*
G1X697386Y135658D3*
G1X688036Y153375D3*
G1X668142Y147186D3*
G1X645552Y153170D3*
G1X620615Y149438D3*
G1X582229Y139595D3*
G54D74*
G1X588890Y130209D3*
G1X611071Y147225D3*
G1X652111Y138611D3*
G1X692465Y126800D3*
G1X633410Y92351D3*
G1X666875Y71682D3*
G1X621599Y60855D3*
G54D75*
G1X732819Y15580D3*
G1X732819Y153375D3*
G1X516284Y153375D3*
G54D55*
G1X146363Y273532D3*
G54D56*
G1X136363Y273532D3*
G1X126363Y273532D3*
G1X126363Y263532D3*
G1X136363Y263532D3*
G1X146363Y263532D3*
G54D57*
G1X93056Y304092D3*
G1X93056Y315492D3*
G1X73371Y315492D3*
G1X73371Y304092D3*
G1X53686Y304092D3*
G1X53686Y315492D3*
G54D58*
G1X111520Y313886D3*
G1X121520Y313886D3*
G1X121520Y303886D3*
G1X111520Y303886D3*
G1X252504Y296642D3*
G1X252504Y286642D3*
G1X252504Y276642D3*
G1X252504Y266642D3*
G1X252504Y256642D3*
G1X252504Y246642D3*
G1X252504Y236642D3*
G1X252504Y226642D3*
G1X107308Y223335D2*
G54D61*
G1X101008Y223335D1*
G1X101008Y213335D2*
G1X107308Y213335D1*
G1X107308Y191839D2*
G1X101008Y191839D1*
G1X101008Y181839D2*
G1X107308Y181839D1*
G1X77229Y191839D2*
G1X70930Y191839D1*
G1X70930Y223335D2*
G1X77229Y223335D1*
G1X101008Y244831D2*
G1X107308Y244831D1*
G1X107308Y254831D2*
G1X101008Y254831D1*
G1X77229Y254831D2*
G1X70930Y254831D1*
G1X70904Y244831D2*
G54D62*
G1X77254Y244831D1*
G1X77254Y213335D2*
G1X70904Y213335D1*
G1X70904Y181839D2*
G1X77254Y181839D1*
G1X48018Y206394D2*
G54D66*
G1X39668Y206394D1*
G1X39668Y226194D2*
G1X48018Y226194D1*
G1X48018Y245894D2*
G1X39668Y245894D1*
G1X39668Y265594D2*
G1X48018Y265594D1*
G1X48018Y285294D2*
G1X39668Y285294D1*
G54D68*
G1X228882Y240304D3*
G1X228882Y200304D3*
G54D69*
G1X38843Y180934D3*
G1X248567Y207587D3*
G54D70*
G1X248567Y197587D3*
G1X48843Y180934D3*
G54D73*
G1X102898Y173060D3*
G1X141284Y188808D3*
G1X147682Y182902D3*
G1X146205Y213414D3*
G1X181638Y239989D3*
G1X169827Y255737D3*
G1X175733Y273453D3*
G1X173764Y281327D3*
G1X181441Y283493D3*
G1X157524Y273453D3*
G1X128489Y283296D3*
G1X108804Y275422D3*
G1X124552Y254752D3*
G1X130804Y249193D3*
G1X146697Y243926D3*
G1X203292Y209969D3*
G1X207032Y230343D3*
G1X238725Y221288D3*
G1X256441Y188808D3*
G1X244630Y186839D3*
G1X228882Y269516D3*
G1X244138Y270993D3*
G1X244138Y283788D3*
G1X243154Y303965D3*
G1X226746Y305117D3*
G1X217071Y297075D3*
G1X207721Y314792D3*
G1X187827Y308603D3*
G1X165237Y314587D3*
G1X140300Y310855D3*
G1X101914Y301012D3*
G54D74*
G1X108575Y291626D3*
G1X130756Y308642D3*
G1X171796Y300028D3*
G1X212150Y288217D3*
G1X153095Y253768D3*
G1X186560Y233099D3*
G1X141284Y222272D3*
G54D75*
G1X252504Y176997D3*
G1X252504Y314792D3*
G1X35969Y314792D3*
G54D55*
G1X386520Y273532D3*
G54D56*
G1X376520Y273532D3*
G1X366520Y273532D3*
G1X366520Y263532D3*
G1X376520Y263532D3*
G1X386520Y263532D3*
G54D57*
G1X333213Y304092D3*
G1X333213Y315492D3*
G1X313528Y315492D3*
G1X313528Y304092D3*
G1X293843Y304092D3*
G1X293843Y315492D3*
G54D58*
G1X351677Y313886D3*
G1X361677Y313886D3*
G1X361677Y303886D3*
G1X351677Y303886D3*
G1X492661Y296642D3*
G1X492661Y286642D3*
G1X492661Y276642D3*
G1X492661Y266642D3*
G1X492661Y256642D3*
G1X492661Y246642D3*
G1X492661Y236642D3*
G1X492661Y226642D3*
G1X347465Y223335D2*
G54D61*
G1X341165Y223335D1*
G1X341165Y213335D2*
G1X347465Y213335D1*
G1X347465Y191839D2*
G1X341165Y191839D1*
G1X341165Y181839D2*
G1X347465Y181839D1*
G1X317386Y191839D2*
G1X311087Y191839D1*
G1X311087Y223335D2*
G1X317386Y223335D1*
G1X341165Y244831D2*
G1X347465Y244831D1*
G1X347465Y254831D2*
G1X341165Y254831D1*
G1X317386Y254831D2*
G1X311087Y254831D1*
G1X311061Y244831D2*
G54D62*
G1X317411Y244831D1*
G1X317411Y213335D2*
G1X311061Y213335D1*
G1X311061Y181839D2*
G1X317411Y181839D1*
G1X288175Y206394D2*
G54D66*
G1X279825Y206394D1*
G1X279825Y226194D2*
G1X288175Y226194D1*
G1X288175Y245894D2*
G1X279825Y245894D1*
G1X279825Y265594D2*
G1X288175Y265594D1*
G1X288175Y285294D2*
G1X279825Y285294D1*
G54D68*
G1X469039Y240304D3*
G1X469039Y200304D3*
G54D69*
G1X279000Y180934D3*
G1X488724Y207587D3*
G54D70*
G1X488724Y197587D3*
G1X289000Y180934D3*
G54D73*
G1X343055Y173060D3*
G1X381441Y188808D3*
G1X387839Y182902D3*
G1X386362Y213414D3*
G1X421795Y239989D3*
G1X409984Y255737D3*
G1X415890Y273453D3*
G1X413921Y281327D3*
G1X421598Y283493D3*
G1X397681Y273453D3*
G1X368646Y283296D3*
G1X348961Y275422D3*
G1X364709Y254752D3*
G1X370961Y249193D3*
G1X386854Y243926D3*
G1X443449Y209969D3*
G1X447189Y230343D3*
G1X478882Y221288D3*
G1X496598Y188808D3*
G1X484787Y186839D3*
G1X469039Y269516D3*
G1X484295Y270993D3*
G1X484295Y283788D3*
G1X483311Y303965D3*
G1X466903Y305117D3*
G1X457228Y297075D3*
G1X447878Y314792D3*
G1X427984Y308603D3*
G1X405394Y314587D3*
G1X380457Y310855D3*
G1X342071Y301012D3*
G54D74*
G1X348732Y291626D3*
G1X370913Y308642D3*
G1X411953Y300028D3*
G1X452307Y288217D3*
G1X393252Y253768D3*
G1X426717Y233099D3*
G1X381441Y222272D3*
G54D75*
G1X492661Y176997D3*
G1X492661Y314792D3*
G1X276126Y314792D3*
G54D55*
G1X626678Y273532D3*
G54D56*
G1X616678Y273532D3*
G1X606678Y273532D3*
G1X606678Y263532D3*
G1X616678Y263532D3*
G1X626678Y263532D3*
G54D57*
G1X573371Y304092D3*
G1X573371Y315492D3*
G1X553686Y315492D3*
G1X553686Y304092D3*
G1X534001Y304092D3*
G1X534001Y315492D3*
G54D58*
G1X591835Y313886D3*
G1X601835Y313886D3*
G1X601835Y303886D3*
G1X591835Y303886D3*
G1X732819Y296642D3*
G1X732819Y286642D3*
G1X732819Y276642D3*
G1X732819Y266642D3*
G1X732819Y256642D3*
G1X732819Y246642D3*
G1X732819Y236642D3*
G1X732819Y226642D3*
G1X587623Y223335D2*
G54D61*
G1X581323Y223335D1*
G1X581323Y213335D2*
G1X587623Y213335D1*
G1X587623Y191839D2*
G1X581323Y191839D1*
G1X581323Y181839D2*
G1X587623Y181839D1*
G1X557544Y191839D2*
G1X551245Y191839D1*
G1X551245Y223335D2*
G1X557544Y223335D1*
G1X581323Y244831D2*
G1X587623Y244831D1*
G1X587623Y254831D2*
G1X581323Y254831D1*
G1X557544Y254831D2*
G1X551245Y254831D1*
G1X551219Y244831D2*
G54D62*
G1X557569Y244831D1*
G1X557569Y213335D2*
G1X551219Y213335D1*
G1X551219Y181839D2*
G1X557569Y181839D1*
G1X528333Y206394D2*
G54D66*
G1X519983Y206394D1*
G1X519983Y226194D2*
G1X528333Y226194D1*
G1X528333Y245894D2*
G1X519983Y245894D1*
G1X519983Y265594D2*
G1X528333Y265594D1*
G1X528333Y285294D2*
G1X519983Y285294D1*
G54D68*
G1X709197Y240304D3*
G1X709197Y200304D3*
G54D69*
G1X519158Y180934D3*
G1X728882Y207587D3*
G54D70*
G1X728882Y197587D3*
G1X529158Y180934D3*
G54D73*
G1X583213Y173060D3*
G1X621599Y188808D3*
G1X627997Y182902D3*
G1X626520Y213414D3*
G1X661953Y239989D3*
G1X650142Y255737D3*
G1X656048Y273453D3*
G1X654079Y281327D3*
G1X661756Y283493D3*
G1X637839Y273453D3*
G1X608804Y283296D3*
G1X589119Y275422D3*
G1X604867Y254752D3*
G1X611119Y249193D3*
G1X627012Y243926D3*
G1X683607Y209969D3*
G1X687347Y230343D3*
G1X719040Y221288D3*
G1X736756Y188808D3*
G1X724945Y186839D3*
G1X709197Y269516D3*
G1X724453Y270993D3*
G1X724453Y283788D3*
G1X723469Y303965D3*
G1X707061Y305117D3*
G1X697386Y297075D3*
G1X688036Y314792D3*
G1X668142Y308603D3*
G1X645552Y314587D3*
G1X620615Y310855D3*
G1X582229Y301012D3*
G54D74*
G1X588890Y291626D3*
G1X611071Y308642D3*
G1X652111Y300028D3*
G1X692465Y288217D3*
G1X633410Y253768D3*
G1X666875Y233099D3*
G1X621599Y222272D3*
G54D75*
G1X732819Y176997D3*
G1X732819Y314792D3*
G1X516284Y314792D3*
M2*
