M48
INCH,TZ
FMAT,2
ICI,OFF
T01C.02362
T02C.0315
T03C.032
T04C.03937
T05C.04
T06C.052
T07C.07874
%
T01
G05
X10290Y1164
X14128Y2739
X14768Y2149
X14620Y5200
X14128Y6086
X14670Y8251
X15310Y9235
X16983Y9432
X17573Y11204
X17376Y11991
X18144Y12208
X17180Y13861
X18783Y14719
X20772Y15338
X22675Y14370
X21707Y13566
X21215Y12680
X22888Y10810
X24414Y10958
X24414Y12237
X24315Y14255
X16524Y15317
X14030Y14944
X13076Y14723
X10858Y13021
X10191Y13960
X12849Y12188
X10880Y11401
X12455Y9334
X13080Y8778
X15752Y11204
X18164Y7857
X18656Y7168
X20703Y6893
X20329Y4855
X23873Y5987
X25644Y2739
X24463Y2542
T02
X10416Y2042
X10416Y3042
X10416Y5192
X10416Y6192
X10416Y8341
X10416Y9341
X7408Y9341
X7408Y6192
X7408Y3042
T03
X3884Y1952
X4884Y1952
X7408Y2042
X7408Y5192
X7408Y8341
X24857Y4617
X24857Y3617
T04
X22888Y3889
X22888Y7889
X14636Y10212
X13636Y10212
X12636Y10212
X12636Y11212
X13636Y11212
X14636Y11212
T05
X12152Y14247
X11152Y14247
X11152Y15247
X12152Y15247
X9306Y15408
X9306Y14268
X7337Y14268
X7337Y15408
X5369Y15408
X5369Y14268
X25250Y13523
X25250Y12523
X25250Y11523
X25250Y10523
X25250Y9523
X25250Y8523
X25250Y7523
X25250Y6523
T06
X4384Y6478
X4384Y4498
X4384Y8448
X4384Y10418
X4384Y12388
T07
X3597Y15338
X25250Y15338
X25250Y1558
T01
X34306Y1164
X38144Y2739
X38784Y2149
X38636Y5200
X38144Y6086
X38685Y8251
X39325Y9235
X40998Y9432
X41589Y11204
X41392Y11991
X42160Y12208
X41195Y13861
X42798Y14719
X44788Y15338
X46690Y14370
X45723Y13566
X45231Y12680
X46904Y10810
X48430Y10958
X48430Y12237
X48331Y14255
X40539Y15317
X38046Y14944
X37091Y14723
X34873Y13021
X34207Y13960
X36865Y12188
X34896Y11401
X36471Y9334
X37096Y8778
X39768Y11204
X42180Y7857
X42672Y7168
X44719Y6893
X44345Y4855
X47888Y5987
X49660Y2739
X48479Y2542
T02
X34432Y2042
X34432Y3042
X34432Y5192
X34432Y6192
X34432Y8341
X34432Y9341
X31424Y9341
X31424Y6192
X31424Y3042
T03
X27900Y1952
X28900Y1952
X31424Y2042
X31424Y5192
X31424Y8341
X48872Y4617
X48872Y3617
T04
X46904Y3889
X46904Y7889
X38652Y10212
X37652Y10212
X36652Y10212
X36652Y11212
X37652Y11212
X38652Y11212
T05
X36168Y14247
X35168Y14247
X35168Y15247
X36168Y15247
X33321Y15408
X33321Y14268
X31353Y14268
X31353Y15408
X29384Y15408
X29384Y14268
X49266Y13523
X49266Y12523
X49266Y11523
X49266Y10523
X49266Y9523
X49266Y8523
X49266Y7523
X49266Y6523
T06
X28400Y6478
X28400Y4498
X28400Y8448
X28400Y10418
X28400Y12388
T07
X27613Y15338
X49266Y15338
X49266Y1558
T01
X58321Y1164
X62160Y2739
X62800Y2149
X62652Y5200
X62160Y6086
X62701Y8251
X63341Y9235
X65014Y9432
X65605Y11204
X65408Y11991
X66176Y12208
X65211Y13861
X66814Y14719
X68804Y15338
X70706Y14370
X69739Y13566
X69246Y12680
X70920Y10810
X72445Y10958
X72445Y12237
X72347Y14255
X64555Y15317
X62061Y14944
X61107Y14723
X58889Y13021
X58223Y13960
X60880Y12188
X58912Y11401
X60487Y9334
X61112Y8778
X63784Y11204
X66195Y7857
X66687Y7168
X68735Y6893
X68361Y4855
X71904Y5987
X73676Y2739
X72494Y2542
T02
X58447Y2042
X58447Y3042
X58447Y5192
X58447Y6192
X58447Y8341
X58447Y9341
X55439Y9341
X55439Y6192
X55439Y3042
T03
X51916Y1952
X52916Y1952
X55439Y2042
X55439Y5192
X55439Y8341
X72888Y4617
X72888Y3617
T04
X70920Y3889
X70920Y7889
X62668Y10212
X61668Y10212
X60668Y10212
X60668Y11212
X61668Y11212
X62668Y11212
T05
X60183Y14247
X59183Y14247
X59183Y15247
X60183Y15247
X57337Y15408
X57337Y14268
X55369Y14268
X55369Y15408
X53400Y15408
X53400Y14268
X73282Y13523
X73282Y12523
X73282Y11523
X73282Y10523
X73282Y9523
X73282Y8523
X73282Y7523
X73282Y6523
T06
X52416Y6478
X52416Y4498
X52416Y8448
X52416Y10418
X52416Y12388
T07
X51628Y15338
X73282Y15338
X73282Y1558
T01
X10290Y17306
X14128Y18881
X14768Y18290
X14620Y21341
X14128Y22227
X14670Y24393
X15310Y25377
X16983Y25574
X17573Y27345
X17376Y28133
X18144Y28349
X17180Y30003
X18783Y30860
X20772Y31479
X22675Y30512
X21707Y29708
X21215Y28822
X22888Y26952
X24414Y27099
X24414Y28379
X24315Y30397
X16524Y31459
X14030Y31086
X13076Y30864
X10858Y29163
X10191Y30101
X12849Y28330
X10880Y27542
X12455Y25475
X13080Y24919
X15752Y27345
X18164Y23999
X18656Y23310
X20703Y23034
X20329Y20997
X23873Y22129
X25644Y18881
X24463Y18684
T02
X10416Y18184
X10416Y19184
X10416Y21334
X10416Y22334
X10416Y24483
X10416Y25483
X7408Y25483
X7408Y22334
X7408Y19184
T03
X3884Y18093
X4884Y18093
X7408Y18184
X7408Y21334
X7408Y24483
X24857Y20759
X24857Y19759
T04
X22888Y20030
X22888Y24030
X14636Y26353
X13636Y26353
X12636Y26353
X12636Y27353
X13636Y27353
X14636Y27353
T05
X12152Y30389
X11152Y30389
X11152Y31389
X12152Y31389
X9306Y31549
X9306Y30409
X7337Y30409
X7337Y31549
X5369Y31549
X5369Y30409
X25250Y29664
X25250Y28664
X25250Y27664
X25250Y26664
X25250Y25664
X25250Y24664
X25250Y23664
X25250Y22664
T06
X4384Y22619
X4384Y20639
X4384Y24589
X4384Y26559
X4384Y28529
T07
X3597Y31479
X25250Y31479
X25250Y17700
T01
X34306Y17306
X38144Y18881
X38784Y18290
X38636Y21341
X38144Y22227
X38685Y24393
X39325Y25377
X40998Y25574
X41589Y27345
X41392Y28133
X42160Y28349
X41195Y30003
X42798Y30860
X44788Y31479
X46690Y30512
X45723Y29708
X45231Y28822
X46904Y26952
X48430Y27099
X48430Y28379
X48331Y30397
X40539Y31459
X38046Y31086
X37091Y30864
X34873Y29163
X34207Y30101
X36865Y28330
X34896Y27542
X36471Y25475
X37096Y24919
X39768Y27345
X42180Y23999
X42672Y23310
X44719Y23034
X44345Y20997
X47888Y22129
X49660Y18881
X48479Y18684
T02
X34432Y18184
X34432Y19184
X34432Y21334
X34432Y22334
X34432Y24483
X34432Y25483
X31424Y25483
X31424Y22334
X31424Y19184
T03
X27900Y18093
X28900Y18093
X31424Y18184
X31424Y21334
X31424Y24483
X48872Y20759
X48872Y19759
T04
X46904Y20030
X46904Y24030
X38652Y26353
X37652Y26353
X36652Y26353
X36652Y27353
X37652Y27353
X38652Y27353
T05
X36168Y30389
X35168Y30389
X35168Y31389
X36168Y31389
X33321Y31549
X33321Y30409
X31353Y30409
X31353Y31549
X29384Y31549
X29384Y30409
X49266Y29664
X49266Y28664
X49266Y27664
X49266Y26664
X49266Y25664
X49266Y24664
X49266Y23664
X49266Y22664
T06
X28400Y22619
X28400Y20639
X28400Y24589
X28400Y26559
X28400Y28529
T07
X27613Y31479
X49266Y31479
X49266Y17700
T01
X58321Y17306
X62160Y18881
X62800Y18290
X62652Y21341
X62160Y22227
X62701Y24393
X63341Y25377
X65014Y25574
X65605Y27345
X65408Y28133
X66176Y28349
X65211Y30003
X66814Y30860
X68804Y31479
X70706Y30512
X69739Y29708
X69246Y28822
X70920Y26952
X72445Y27099
X72445Y28379
X72347Y30397
X64555Y31459
X62061Y31086
X61107Y30864
X58889Y29163
X58223Y30101
X60880Y28330
X58912Y27542
X60487Y25475
X61112Y24919
X63784Y27345
X66195Y23999
X66687Y23310
X68735Y23034
X68361Y20997
X71904Y22129
X73676Y18881
X72494Y18684
T02
X58447Y18184
X58447Y19184
X58447Y21334
X58447Y22334
X58447Y24483
X58447Y25483
X55439Y25483
X55439Y22334
X55439Y19184
T03
X51916Y18093
X52916Y18093
X55439Y18184
X55439Y21334
X55439Y24483
X72888Y20759
X72888Y19759
T04
X70920Y20030
X70920Y24030
X62668Y26353
X61668Y26353
X60668Y26353
X60668Y27353
X61668Y27353
X62668Y27353
T05
X60183Y30389
X59183Y30389
X59183Y31389
X60183Y31389
X57337Y31549
X57337Y30409
X55369Y30409
X55369Y31549
X53400Y31549
X53400Y30409
X73282Y29664
X73282Y28664
X73282Y27664
X73282Y26664
X73282Y25664
X73282Y24664
X73282Y23664
X73282Y22664
T06
X52416Y22619
X52416Y20639
X52416Y24589
X52416Y26559
X52416Y28529
T07
X51628Y31479
X73282Y31479
X73282Y17700
M30
