G75*
%MOIN*%
%OFA0B0*%
%FSLAX25Y25*%
%IPPOS*%
%LPD*%
%AMOC8*
5,1,8,0,0,1.08239X$1,22.5*
%
%ADD10C,0.07480*%
%ADD11OC8,0.07480*%
%ADD12C,0.07400*%
%ADD13OC8,0.07150*%
%ADD14C,0.06299*%
%ADD15C,0.06350*%
%ADD16C,0.08350*%
%ADD17C,0.07087*%
%ADD18OC8,0.07000*%
%ADD19C,0.07000*%
%ADD20C,0.02400*%
%ADD21C,0.05600*%
%ADD22C,0.01378*%
%ADD23C,0.05512*%
%ADD24C,0.01600*%
%ADD25C,0.11811*%
D10*
X0146363Y0112115D03*
D11*
X0136363Y0112115D03*
X0126363Y0112115D03*
X0126363Y0102115D03*
X0136363Y0102115D03*
X0146363Y0102115D03*
D12*
X0093056Y0142675D03*
X0093056Y0154075D03*
X0073371Y0154075D03*
X0073371Y0142675D03*
X0053686Y0142675D03*
X0053686Y0154075D03*
D13*
X0111520Y0152469D03*
X0121520Y0152469D03*
X0121520Y0142469D03*
X0111520Y0142469D03*
X0252504Y0135225D03*
X0252504Y0125225D03*
X0252504Y0115225D03*
X0252504Y0105225D03*
X0252504Y0095225D03*
X0252504Y0085225D03*
X0252504Y0075225D03*
X0252504Y0065225D03*
D14*
X0107308Y0061918D02*
X0101008Y0061918D01*
X0101008Y0051918D02*
X0107308Y0051918D01*
X0107308Y0030422D02*
X0101008Y0030422D01*
X0101008Y0020422D02*
X0107308Y0020422D01*
X0077229Y0030422D02*
X0070930Y0030422D01*
X0070930Y0061918D02*
X0077229Y0061918D01*
X0101008Y0083414D02*
X0107308Y0083414D01*
X0107308Y0093414D02*
X0101008Y0093414D01*
X0077229Y0093414D02*
X0070930Y0093414D01*
D15*
X0070904Y0083414D02*
X0077254Y0083414D01*
X0077254Y0051918D02*
X0070904Y0051918D01*
X0070904Y0020422D02*
X0077254Y0020422D01*
D16*
X0048018Y0044977D02*
X0039668Y0044977D01*
X0039668Y0064777D02*
X0048018Y0064777D01*
X0048018Y0084477D02*
X0039668Y0084477D01*
X0039668Y0104177D02*
X0048018Y0104177D01*
X0048018Y0123877D02*
X0039668Y0123877D01*
D17*
X0228882Y0078887D03*
X0228882Y0038887D03*
D18*
X0248567Y0046170D03*
X0038843Y0019517D03*
D19*
X0048843Y0019517D03*
X0248567Y0036170D03*
D20*
X0248567Y0029359D01*
X0244630Y0025422D01*
X0248567Y0046170D02*
X0248567Y0059202D01*
X0228882Y0078887D01*
X0203292Y0048552D02*
X0186560Y0065284D01*
X0186560Y0071682D01*
X0104158Y0061918D02*
X0101835Y0061918D01*
X0095024Y0068729D01*
X0095024Y0088414D01*
X0100024Y0093414D01*
X0104158Y0093414D01*
X0089119Y0098257D02*
X0089119Y0078572D01*
X0089119Y0045107D01*
X0082308Y0051918D01*
X0074079Y0051918D01*
X0074079Y0061918D02*
X0071220Y0064777D01*
X0043843Y0064777D01*
X0043843Y0044977D02*
X0043843Y0039202D01*
X0052623Y0030422D01*
X0074079Y0030422D01*
X0066560Y0020422D02*
X0063528Y0023454D01*
X0052780Y0023454D01*
X0048843Y0019517D01*
X0038843Y0019517D02*
X0038843Y0014674D01*
X0043843Y0009674D01*
X0087150Y0009674D01*
X0095024Y0017548D01*
X0095024Y0035265D01*
X0095024Y0068729D01*
X0089119Y0078572D02*
X0084276Y0083414D01*
X0074079Y0083414D01*
X0074079Y0093414D02*
X0060654Y0093414D01*
X0051717Y0084477D01*
X0043843Y0084477D01*
X0043843Y0104177D02*
X0083198Y0104177D01*
X0089119Y0098257D01*
X0043843Y0123877D02*
X0043843Y0144232D01*
X0053686Y0154075D01*
X0073371Y0154075D01*
X0093056Y0154075D01*
X0089119Y0045107D02*
X0089119Y0025422D01*
X0084119Y0020422D01*
X0074079Y0020422D01*
X0066560Y0020422D01*
X0095024Y0035265D02*
X0099867Y0030422D01*
X0104158Y0030422D01*
D21*
X0102898Y0011643D03*
X0141284Y0027391D03*
X0147682Y0021485D03*
X0146205Y0051997D03*
X0181638Y0078572D03*
X0169827Y0094320D03*
X0175733Y0112036D03*
X0173764Y0119910D03*
X0181441Y0122076D03*
X0157524Y0112036D03*
X0128489Y0121879D03*
X0108804Y0114005D03*
X0124552Y0093335D03*
X0130804Y0087776D03*
X0146697Y0082509D03*
X0203292Y0048552D03*
X0207032Y0068926D03*
X0238725Y0059871D03*
X0256441Y0027391D03*
X0244630Y0025422D03*
X0228882Y0108099D03*
X0244138Y0109576D03*
X0244138Y0122371D03*
X0243154Y0142548D03*
X0226746Y0143700D03*
X0217071Y0135658D03*
X0207721Y0153375D03*
X0187827Y0147186D03*
X0165237Y0153170D03*
X0140300Y0149438D03*
X0101914Y0139595D03*
D22*
X0101914Y0148454D01*
X0096293Y0154075D01*
X0093056Y0154075D01*
X0101914Y0148454D02*
X0105930Y0152469D01*
X0111520Y0152469D01*
X0111520Y0142469D02*
X0111520Y0140816D01*
X0116678Y0135658D01*
X0158016Y0135658D01*
X0173764Y0119910D01*
X0181441Y0122076D02*
X0163922Y0139595D01*
X0124394Y0139595D01*
X0121520Y0142469D01*
X0130756Y0147225D02*
X0135512Y0147225D01*
X0139205Y0143532D01*
X0177701Y0143532D01*
X0178686Y0142548D01*
X0192465Y0142548D01*
X0195418Y0145501D01*
X0224945Y0145501D01*
X0226746Y0143700D01*
X0230851Y0139595D01*
X0234788Y0139595D01*
X0240693Y0133690D01*
X0240693Y0125816D01*
X0244138Y0122371D01*
X0232327Y0117942D02*
X0240693Y0109576D01*
X0244138Y0109576D01*
X0232327Y0117942D02*
X0213134Y0117942D01*
X0187544Y0117942D01*
X0183607Y0114005D01*
X0183607Y0106131D01*
X0179670Y0102194D01*
X0179670Y0092351D01*
X0165890Y0078572D01*
X0165890Y0054950D01*
X0156048Y0045107D01*
X0142268Y0045107D01*
X0136363Y0051013D01*
X0136363Y0102115D01*
X0126363Y0102115D02*
X0124473Y0102115D01*
X0122583Y0100225D01*
X0122583Y0095304D01*
X0124552Y0093335D01*
X0121252Y0087776D02*
X0118646Y0090383D01*
X0118646Y0104398D01*
X0126363Y0112115D01*
X0136363Y0112115D02*
X0136363Y0123847D01*
X0132426Y0127784D01*
X0114709Y0127784D01*
X0110772Y0123847D01*
X0063528Y0123847D01*
X0053686Y0133690D01*
X0053686Y0142675D01*
X0108575Y0130209D02*
X0110579Y0132213D01*
X0153587Y0132213D01*
X0163922Y0121879D01*
X0163922Y0108099D01*
X0157938Y0102115D01*
X0146363Y0102115D01*
X0146205Y0092351D02*
X0141284Y0087430D01*
X0141284Y0060855D01*
X0146205Y0051997D02*
X0146205Y0072666D01*
X0152111Y0078572D01*
X0158016Y0078572D01*
X0169827Y0090383D01*
X0169827Y0094320D01*
X0161953Y0100225D02*
X0161953Y0088414D01*
X0156048Y0082509D01*
X0146697Y0082509D01*
X0146205Y0092351D02*
X0153095Y0092351D01*
X0161953Y0100225D02*
X0173764Y0112036D01*
X0175733Y0112036D01*
X0157524Y0112036D02*
X0157524Y0115973D01*
X0155556Y0117942D01*
X0148174Y0117942D01*
X0146363Y0116131D01*
X0146363Y0112115D01*
X0114709Y0100225D02*
X0114709Y0025422D01*
X0118646Y0021485D01*
X0102898Y0011643D02*
X0219040Y0011643D01*
X0238725Y0031328D01*
X0238725Y0059871D01*
X0248567Y0046170D02*
X0256441Y0038296D01*
X0256441Y0027391D01*
X0207032Y0068926D02*
X0207032Y0076800D01*
X0199355Y0084477D01*
X0177701Y0084477D01*
X0171796Y0078572D01*
X0171796Y0052981D01*
X0156048Y0037233D01*
X0143252Y0037233D01*
X0141284Y0035265D01*
X0141284Y0027391D01*
X0130804Y0087776D02*
X0121252Y0087776D01*
X0114709Y0100225D02*
X0108804Y0106131D01*
X0108804Y0114005D01*
X0140300Y0149438D02*
X0154079Y0149438D01*
X0162938Y0158296D01*
X0233804Y0158296D01*
X0243154Y0148946D01*
X0243154Y0142548D01*
X0217071Y0135658D02*
X0217071Y0121879D01*
X0213134Y0117942D01*
X0212150Y0126800D02*
X0194434Y0126800D01*
X0182623Y0138611D01*
X0171796Y0138611D01*
X0187827Y0147186D02*
X0192048Y0151406D01*
X0205752Y0151406D01*
X0207721Y0153375D01*
X0187827Y0150792D02*
X0187827Y0147186D01*
X0187827Y0150792D02*
X0185449Y0153170D01*
X0165237Y0153170D01*
D23*
X0171796Y0138611D03*
X0212150Y0126800D03*
X0153095Y0092351D03*
X0186560Y0071682D03*
X0141284Y0060855D03*
X0108575Y0130209D03*
X0130756Y0147225D03*
D24*
X0095361Y0010974D02*
X0031363Y0010974D01*
X0031363Y0041739D01*
X0032113Y0039929D01*
X0034620Y0037422D01*
X0037896Y0036065D01*
X0038716Y0036065D01*
X0038810Y0035839D01*
X0046986Y0027663D01*
X0044177Y0026500D01*
X0042473Y0024796D01*
X0041453Y0025817D01*
X0038843Y0025817D01*
X0036233Y0025817D01*
X0032543Y0022126D01*
X0032543Y0019517D01*
X0038843Y0019517D01*
X0038843Y0025817D01*
X0038843Y0019517D01*
X0038843Y0019517D01*
X0038843Y0019516D01*
X0038843Y0013217D01*
X0041453Y0013217D01*
X0042473Y0014237D01*
X0044177Y0012534D01*
X0047205Y0011280D01*
X0050481Y0011280D01*
X0053509Y0012534D01*
X0055826Y0014851D01*
X0056930Y0017517D01*
X0061069Y0017517D01*
X0063197Y0015389D01*
X0065379Y0014485D01*
X0065652Y0014485D01*
X0066423Y0013715D01*
X0069331Y0012510D01*
X0078828Y0012510D01*
X0081736Y0013715D01*
X0082506Y0014485D01*
X0085300Y0014485D01*
X0087482Y0015389D01*
X0089152Y0017059D01*
X0093122Y0021029D01*
X0093122Y0018853D01*
X0094322Y0015955D01*
X0095881Y0014396D01*
X0095361Y0013142D01*
X0095361Y0010974D01*
X0095361Y0012131D02*
X0052537Y0012131D01*
X0054705Y0013730D02*
X0066408Y0013730D01*
X0063343Y0015328D02*
X0056024Y0015328D01*
X0056686Y0016927D02*
X0061659Y0016927D01*
X0045149Y0012131D02*
X0031363Y0012131D01*
X0031363Y0013730D02*
X0035720Y0013730D01*
X0036233Y0013217D02*
X0038843Y0013217D01*
X0038843Y0019516D01*
X0038843Y0019516D01*
X0032543Y0019516D01*
X0032543Y0016907D01*
X0036233Y0013217D01*
X0038843Y0013730D02*
X0038843Y0013730D01*
X0038843Y0015328D02*
X0038843Y0015328D01*
X0038843Y0016927D02*
X0038843Y0016927D01*
X0038843Y0018525D02*
X0038843Y0018525D01*
X0038843Y0020124D02*
X0038843Y0020124D01*
X0038843Y0021722D02*
X0038843Y0021722D01*
X0038843Y0023321D02*
X0038843Y0023321D01*
X0038843Y0024919D02*
X0038843Y0024919D01*
X0035336Y0024919D02*
X0031363Y0024919D01*
X0031363Y0023321D02*
X0033738Y0023321D01*
X0032543Y0021722D02*
X0031363Y0021722D01*
X0031363Y0020124D02*
X0032543Y0020124D01*
X0032543Y0018525D02*
X0031363Y0018525D01*
X0031363Y0016927D02*
X0032543Y0016927D01*
X0031363Y0015328D02*
X0034122Y0015328D01*
X0041966Y0013730D02*
X0042981Y0013730D01*
X0042597Y0024919D02*
X0042350Y0024919D01*
X0044221Y0026518D02*
X0031363Y0026518D01*
X0031363Y0028116D02*
X0046532Y0028116D01*
X0044934Y0029715D02*
X0031363Y0029715D01*
X0031363Y0031313D02*
X0043335Y0031313D01*
X0041737Y0032912D02*
X0031363Y0032912D01*
X0031363Y0034510D02*
X0040138Y0034510D01*
X0037791Y0036109D02*
X0031363Y0036109D01*
X0031363Y0037707D02*
X0034335Y0037707D01*
X0032736Y0039306D02*
X0031363Y0039306D01*
X0031363Y0040904D02*
X0031709Y0040904D01*
X0081751Y0013730D02*
X0095605Y0013730D01*
X0094949Y0015328D02*
X0087335Y0015328D01*
X0089019Y0016927D02*
X0093920Y0016927D01*
X0093258Y0018525D02*
X0090618Y0018525D01*
X0092216Y0020124D02*
X0093122Y0020124D01*
X0095056Y0025623D02*
X0095056Y0046718D01*
X0096541Y0045232D01*
X0099440Y0044031D01*
X0108876Y0044031D01*
X0109283Y0044200D01*
X0109283Y0036036D01*
X0108701Y0036225D01*
X0107776Y0036372D01*
X0104158Y0036372D01*
X0100540Y0036372D01*
X0099615Y0036225D01*
X0098725Y0035936D01*
X0097890Y0035511D01*
X0097132Y0034960D01*
X0096470Y0034298D01*
X0095920Y0033540D01*
X0095495Y0032706D01*
X0095205Y0031815D01*
X0095059Y0030890D01*
X0095059Y0030422D01*
X0095059Y0029954D01*
X0095205Y0029029D01*
X0095495Y0028138D01*
X0095920Y0027304D01*
X0096264Y0026831D01*
X0095056Y0025623D01*
X0095056Y0026518D02*
X0095951Y0026518D01*
X0095506Y0028116D02*
X0095056Y0028116D01*
X0095056Y0029715D02*
X0095097Y0029715D01*
X0095059Y0030422D02*
X0104158Y0030422D01*
X0104158Y0030422D01*
X0095059Y0030422D01*
X0095056Y0031313D02*
X0095126Y0031313D01*
X0095056Y0032912D02*
X0095600Y0032912D01*
X0095056Y0034510D02*
X0096683Y0034510D01*
X0095056Y0036109D02*
X0099257Y0036109D01*
X0104158Y0036109D02*
X0104158Y0036109D01*
X0104158Y0036372D02*
X0104158Y0030422D01*
X0104158Y0030422D01*
X0104158Y0036372D01*
X0104158Y0034510D02*
X0104158Y0034510D01*
X0104158Y0032912D02*
X0104158Y0032912D01*
X0104158Y0031313D02*
X0104158Y0031313D01*
X0109059Y0036109D02*
X0109283Y0036109D01*
X0109283Y0037707D02*
X0095056Y0037707D01*
X0095056Y0039306D02*
X0109283Y0039306D01*
X0109283Y0040904D02*
X0095056Y0040904D01*
X0095056Y0042503D02*
X0109283Y0042503D01*
X0109283Y0044101D02*
X0109045Y0044101D01*
X0099271Y0044101D02*
X0095056Y0044101D01*
X0095056Y0045700D02*
X0096073Y0045700D01*
X0095056Y0057119D02*
X0095056Y0078214D01*
X0096541Y0076728D01*
X0099440Y0075528D01*
X0108876Y0075528D01*
X0109283Y0075696D01*
X0109283Y0067532D01*
X0108701Y0067721D01*
X0107776Y0067868D01*
X0104158Y0067868D01*
X0100540Y0067868D01*
X0099615Y0067721D01*
X0098725Y0067432D01*
X0097890Y0067007D01*
X0097132Y0066456D01*
X0096470Y0065794D01*
X0095920Y0065036D01*
X0095495Y0064202D01*
X0095205Y0063311D01*
X0095059Y0062386D01*
X0095059Y0061918D01*
X0095059Y0061450D01*
X0095205Y0060525D01*
X0095495Y0059634D01*
X0095920Y0058800D01*
X0096264Y0058327D01*
X0095056Y0057119D01*
X0095056Y0058488D02*
X0096146Y0058488D01*
X0095348Y0060086D02*
X0095056Y0060086D01*
X0095056Y0061685D02*
X0095059Y0061685D01*
X0095059Y0061918D02*
X0104158Y0061918D01*
X0104158Y0061918D01*
X0095059Y0061918D01*
X0095056Y0063283D02*
X0095201Y0063283D01*
X0095056Y0064882D02*
X0095841Y0064882D01*
X0095056Y0066480D02*
X0097166Y0066480D01*
X0095056Y0068079D02*
X0109283Y0068079D01*
X0109283Y0069677D02*
X0095056Y0069677D01*
X0095056Y0071276D02*
X0109283Y0071276D01*
X0109283Y0072874D02*
X0095056Y0072874D01*
X0095056Y0074473D02*
X0109283Y0074473D01*
X0104158Y0067868D02*
X0104158Y0061918D01*
X0104158Y0067868D01*
X0104158Y0066480D02*
X0104158Y0066480D01*
X0104158Y0064882D02*
X0104158Y0064882D01*
X0104158Y0063283D02*
X0104158Y0063283D01*
X0104158Y0061918D02*
X0104158Y0061918D01*
X0120135Y0061685D02*
X0130937Y0061685D01*
X0130937Y0063283D02*
X0120135Y0063283D01*
X0120135Y0064882D02*
X0130937Y0064882D01*
X0130937Y0066480D02*
X0120135Y0066480D01*
X0120135Y0068079D02*
X0130937Y0068079D01*
X0130937Y0069677D02*
X0120135Y0069677D01*
X0120135Y0071276D02*
X0130937Y0071276D01*
X0130937Y0072874D02*
X0120135Y0072874D01*
X0120135Y0074473D02*
X0130937Y0074473D01*
X0130937Y0076072D02*
X0120135Y0076072D01*
X0120135Y0077670D02*
X0130937Y0077670D01*
X0130937Y0079269D02*
X0120135Y0079269D01*
X0120135Y0080867D02*
X0127789Y0080867D01*
X0126534Y0081387D02*
X0129304Y0080239D01*
X0130937Y0080239D01*
X0130937Y0049933D01*
X0131763Y0047939D01*
X0133289Y0046413D01*
X0139195Y0040507D01*
X0141189Y0039681D01*
X0157127Y0039681D01*
X0158698Y0040332D01*
X0147388Y0029022D01*
X0146182Y0029022D01*
X0143412Y0027875D01*
X0141292Y0025754D01*
X0140145Y0022984D01*
X0140145Y0021117D01*
X0126845Y0021117D01*
X0121783Y0026179D01*
X0121515Y0026290D01*
X0120135Y0027670D01*
X0120135Y0082366D01*
X0120173Y0082350D01*
X0125571Y0082350D01*
X0126534Y0081387D01*
X0141789Y0088259D02*
X0141789Y0094700D01*
X0142851Y0093638D01*
X0149874Y0093638D01*
X0152925Y0096689D01*
X0156527Y0096689D01*
X0156527Y0090662D01*
X0153800Y0087935D01*
X0151930Y0087935D01*
X0150967Y0088898D01*
X0148197Y0090046D01*
X0145198Y0090046D01*
X0142428Y0088898D01*
X0141789Y0088259D01*
X0141789Y0088860D02*
X0142389Y0088860D01*
X0141789Y0090458D02*
X0156324Y0090458D01*
X0156527Y0092057D02*
X0141789Y0092057D01*
X0141789Y0093655D02*
X0142834Y0093655D01*
X0149891Y0093655D02*
X0156527Y0093655D01*
X0156527Y0095254D02*
X0151490Y0095254D01*
X0151005Y0088860D02*
X0154725Y0088860D01*
X0155690Y0107541D02*
X0152925Y0107541D01*
X0151878Y0108588D01*
X0152241Y0109216D01*
X0152569Y0110008D01*
X0152791Y0110836D01*
X0152903Y0111686D01*
X0152903Y0111931D01*
X0146547Y0111931D01*
X0146547Y0112299D01*
X0152903Y0112299D01*
X0152903Y0112544D01*
X0152791Y0113394D01*
X0152569Y0114222D01*
X0152241Y0115014D01*
X0151812Y0115756D01*
X0151290Y0116436D01*
X0150684Y0117043D01*
X0150004Y0117565D01*
X0149262Y0117993D01*
X0148469Y0118321D01*
X0147641Y0118543D01*
X0146791Y0118655D01*
X0146547Y0118655D01*
X0146547Y0112299D01*
X0146178Y0112299D01*
X0146178Y0118655D01*
X0145934Y0118655D01*
X0145084Y0118543D01*
X0144256Y0118321D01*
X0143464Y0117993D01*
X0142836Y0117631D01*
X0141789Y0118677D01*
X0141789Y0124927D01*
X0141018Y0126787D01*
X0151340Y0126787D01*
X0158496Y0119631D01*
X0158496Y0110347D01*
X0155690Y0107541D01*
X0156191Y0108042D02*
X0152424Y0108042D01*
X0152417Y0109640D02*
X0157789Y0109640D01*
X0158496Y0111239D02*
X0152844Y0111239D01*
X0152864Y0112837D02*
X0158496Y0112837D01*
X0158496Y0114436D02*
X0152480Y0114436D01*
X0151599Y0116034D02*
X0158496Y0116034D01*
X0158496Y0117633D02*
X0149886Y0117633D01*
X0146547Y0117633D02*
X0146178Y0117633D01*
X0146178Y0116034D02*
X0146547Y0116034D01*
X0146547Y0114436D02*
X0146178Y0114436D01*
X0146178Y0112837D02*
X0146547Y0112837D01*
X0142840Y0117633D02*
X0142833Y0117633D01*
X0141789Y0119231D02*
X0158496Y0119231D01*
X0157297Y0120830D02*
X0141789Y0120830D01*
X0141789Y0122428D02*
X0155699Y0122428D01*
X0154100Y0124027D02*
X0141789Y0124027D01*
X0141499Y0125625D02*
X0152502Y0125625D01*
X0128489Y0121879D02*
X0126363Y0119753D01*
X0126363Y0112115D01*
X0107920Y0099341D02*
X0107776Y0099364D01*
X0104158Y0099364D01*
X0100540Y0099364D01*
X0099615Y0099217D01*
X0098725Y0098928D01*
X0097890Y0098503D01*
X0097132Y0097952D01*
X0096470Y0097290D01*
X0095920Y0096532D01*
X0095495Y0095698D01*
X0095205Y0094807D01*
X0095059Y0093882D01*
X0095059Y0093414D01*
X0095059Y0092946D01*
X0095205Y0092021D01*
X0095495Y0091130D01*
X0095920Y0090296D01*
X0096264Y0089823D01*
X0095056Y0088615D01*
X0095056Y0099438D01*
X0094152Y0101620D01*
X0092482Y0103290D01*
X0086561Y0109210D01*
X0084379Y0110114D01*
X0054684Y0110114D01*
X0053066Y0111732D01*
X0049791Y0113089D01*
X0037896Y0113089D01*
X0034620Y0111732D01*
X0032113Y0109225D01*
X0031363Y0107415D01*
X0031363Y0143745D01*
X0031861Y0143458D01*
X0034568Y0142732D01*
X0037370Y0142732D01*
X0040077Y0143458D01*
X0042504Y0144859D01*
X0044485Y0146840D01*
X0045886Y0149267D01*
X0046612Y0151974D01*
X0046612Y0154776D01*
X0045886Y0157483D01*
X0045599Y0157980D01*
X0048489Y0157980D01*
X0048269Y0157694D01*
X0047843Y0156956D01*
X0047517Y0156169D01*
X0047297Y0155346D01*
X0047186Y0154501D01*
X0047186Y0154275D01*
X0053485Y0154275D01*
X0053485Y0153875D01*
X0047186Y0153875D01*
X0047186Y0153649D01*
X0047297Y0152804D01*
X0047517Y0151981D01*
X0047843Y0151194D01*
X0048269Y0150456D01*
X0048788Y0149780D01*
X0048824Y0149744D01*
X0046533Y0147454D01*
X0045249Y0144353D01*
X0045249Y0140997D01*
X0046533Y0137896D01*
X0048260Y0136169D01*
X0048260Y0132610D01*
X0049018Y0130781D01*
X0048475Y0130852D01*
X0044343Y0130852D01*
X0044343Y0124377D01*
X0054987Y0124377D01*
X0054936Y0124766D01*
X0058928Y0120774D01*
X0058928Y0120774D01*
X0060455Y0119247D01*
X0062449Y0118421D01*
X0102561Y0118421D01*
X0102414Y0118274D01*
X0101267Y0115504D01*
X0101267Y0112506D01*
X0102414Y0109735D01*
X0103378Y0108772D01*
X0103378Y0105051D01*
X0104204Y0103057D01*
X0107920Y0099341D01*
X0107212Y0100049D02*
X0094802Y0100049D01*
X0095056Y0098451D02*
X0097818Y0098451D01*
X0096152Y0096852D02*
X0095056Y0096852D01*
X0095056Y0095254D02*
X0095350Y0095254D01*
X0095056Y0093655D02*
X0095059Y0093655D01*
X0095059Y0093414D02*
X0104158Y0093414D01*
X0095059Y0093414D01*
X0095056Y0092057D02*
X0095200Y0092057D01*
X0095056Y0090458D02*
X0095837Y0090458D01*
X0095300Y0088860D02*
X0095056Y0088860D01*
X0104158Y0093414D02*
X0104158Y0093414D01*
X0104158Y0099364D01*
X0104158Y0093414D01*
X0104158Y0093414D01*
X0104158Y0093655D02*
X0104158Y0093655D01*
X0104158Y0095254D02*
X0104158Y0095254D01*
X0104158Y0096852D02*
X0104158Y0096852D01*
X0104158Y0098451D02*
X0104158Y0098451D01*
X0105613Y0101648D02*
X0094124Y0101648D01*
X0092525Y0103246D02*
X0104125Y0103246D01*
X0103463Y0104845D02*
X0090927Y0104845D01*
X0089328Y0106443D02*
X0103378Y0106443D01*
X0103378Y0108042D02*
X0087730Y0108042D01*
X0085523Y0109640D02*
X0102509Y0109640D01*
X0101791Y0111239D02*
X0053559Y0111239D01*
X0050398Y0112837D02*
X0101267Y0112837D01*
X0101267Y0114436D02*
X0031363Y0114436D01*
X0031363Y0116034D02*
X0101486Y0116034D01*
X0102148Y0117633D02*
X0051152Y0117633D01*
X0051109Y0117608D02*
X0051901Y0118065D01*
X0052627Y0118622D01*
X0053273Y0119268D01*
X0053830Y0119994D01*
X0054287Y0120786D01*
X0054637Y0121630D01*
X0054873Y0122514D01*
X0054987Y0123377D01*
X0044343Y0123377D01*
X0044343Y0116902D01*
X0048475Y0116902D01*
X0049381Y0117022D01*
X0050265Y0117258D01*
X0051109Y0117608D01*
X0053236Y0119231D02*
X0060493Y0119231D01*
X0058872Y0120830D02*
X0054305Y0120830D01*
X0054850Y0122428D02*
X0057273Y0122428D01*
X0055675Y0124027D02*
X0044343Y0124027D01*
X0044343Y0124377D02*
X0044343Y0123377D01*
X0043343Y0123377D01*
X0043343Y0116902D01*
X0039211Y0116902D01*
X0038305Y0117022D01*
X0037421Y0117258D01*
X0036577Y0117608D01*
X0035785Y0118065D01*
X0035060Y0118622D01*
X0034413Y0119268D01*
X0033856Y0119994D01*
X0033399Y0120786D01*
X0033049Y0121630D01*
X0032813Y0122514D01*
X0032699Y0123377D01*
X0043343Y0123377D01*
X0043343Y0124377D01*
X0032699Y0124377D01*
X0032813Y0125241D01*
X0033049Y0126124D01*
X0033399Y0126969D01*
X0033856Y0127760D01*
X0034413Y0128486D01*
X0035060Y0129132D01*
X0035785Y0129689D01*
X0036577Y0130146D01*
X0037421Y0130496D01*
X0038305Y0130733D01*
X0039211Y0130852D01*
X0043343Y0130852D01*
X0043343Y0124377D01*
X0044343Y0124377D01*
X0043343Y0124027D02*
X0031363Y0124027D01*
X0031363Y0125625D02*
X0032916Y0125625D01*
X0033547Y0127224D02*
X0031363Y0127224D01*
X0031363Y0128822D02*
X0034750Y0128822D01*
X0037240Y0130421D02*
X0031363Y0130421D01*
X0031363Y0132019D02*
X0048504Y0132019D01*
X0048260Y0133618D02*
X0031363Y0133618D01*
X0031363Y0135216D02*
X0048260Y0135216D01*
X0047614Y0136815D02*
X0031363Y0136815D01*
X0031363Y0138413D02*
X0046319Y0138413D01*
X0045656Y0140012D02*
X0031363Y0140012D01*
X0031363Y0141610D02*
X0045249Y0141610D01*
X0045249Y0143209D02*
X0039149Y0143209D01*
X0042415Y0144807D02*
X0045437Y0144807D01*
X0046099Y0146406D02*
X0044051Y0146406D01*
X0045157Y0148005D02*
X0047084Y0148005D01*
X0045976Y0149603D02*
X0048682Y0149603D01*
X0047840Y0151202D02*
X0046405Y0151202D01*
X0046612Y0152800D02*
X0047298Y0152800D01*
X0047186Y0154399D02*
X0046612Y0154399D01*
X0046284Y0155997D02*
X0047471Y0155997D01*
X0048213Y0157596D02*
X0045821Y0157596D01*
X0053886Y0154275D02*
X0060186Y0154275D01*
X0060186Y0154501D01*
X0060074Y0155346D01*
X0059854Y0156169D01*
X0059528Y0156956D01*
X0059102Y0157694D01*
X0058882Y0157980D01*
X0068174Y0157980D01*
X0067954Y0157694D01*
X0067528Y0156956D01*
X0067202Y0156169D01*
X0066982Y0155346D01*
X0066871Y0154501D01*
X0066871Y0154275D01*
X0073171Y0154275D01*
X0073171Y0153875D01*
X0066871Y0153875D01*
X0066871Y0153649D01*
X0066982Y0152804D01*
X0067202Y0151981D01*
X0067528Y0151194D01*
X0067954Y0150456D01*
X0068473Y0149780D01*
X0068509Y0149744D01*
X0066218Y0147454D01*
X0064934Y0144353D01*
X0064934Y0140997D01*
X0066218Y0137896D01*
X0068591Y0135522D01*
X0071692Y0134238D01*
X0075049Y0134238D01*
X0078150Y0135522D01*
X0080523Y0137896D01*
X0081808Y0140997D01*
X0081808Y0144353D01*
X0080523Y0147454D01*
X0078233Y0149744D01*
X0078268Y0149780D01*
X0078787Y0150456D01*
X0079213Y0151194D01*
X0079539Y0151981D01*
X0079759Y0152804D01*
X0079871Y0153649D01*
X0079871Y0153875D01*
X0073571Y0153875D01*
X0073571Y0154275D01*
X0079871Y0154275D01*
X0079871Y0154501D01*
X0079759Y0155346D01*
X0079539Y0156169D01*
X0079213Y0156956D01*
X0078787Y0157694D01*
X0078567Y0157980D01*
X0087859Y0157980D01*
X0087639Y0157694D01*
X0087213Y0156956D01*
X0086887Y0156169D01*
X0086667Y0155346D01*
X0086556Y0154501D01*
X0086556Y0154275D01*
X0092856Y0154275D01*
X0092856Y0153875D01*
X0086556Y0153875D01*
X0086556Y0153649D01*
X0086667Y0152804D01*
X0086887Y0151981D01*
X0087213Y0151194D01*
X0087639Y0150456D01*
X0088158Y0149780D01*
X0088194Y0149744D01*
X0085903Y0147454D01*
X0084619Y0144353D01*
X0084619Y0140997D01*
X0085903Y0137896D01*
X0088276Y0135522D01*
X0091377Y0134238D01*
X0094734Y0134238D01*
X0097835Y0135522D01*
X0100208Y0137896D01*
X0101493Y0140997D01*
X0101493Y0144353D01*
X0100208Y0147454D01*
X0097918Y0149744D01*
X0097953Y0149780D01*
X0098472Y0150456D01*
X0098898Y0151194D01*
X0099224Y0151981D01*
X0099444Y0152804D01*
X0099556Y0153649D01*
X0099556Y0153875D01*
X0093256Y0153875D01*
X0093256Y0154275D01*
X0099556Y0154275D01*
X0099556Y0154501D01*
X0099444Y0155346D01*
X0099224Y0156169D01*
X0098898Y0156956D01*
X0098472Y0157694D01*
X0098252Y0157980D01*
X0108016Y0157980D01*
X0105145Y0155110D01*
X0105145Y0152669D01*
X0111320Y0152669D01*
X0111320Y0152269D01*
X0105145Y0152269D01*
X0105145Y0149829D01*
X0106135Y0148839D01*
X0103208Y0145912D01*
X0103208Y0139026D01*
X0105280Y0136955D01*
X0104331Y0136562D01*
X0102223Y0134454D01*
X0101082Y0131700D01*
X0101082Y0129273D01*
X0065776Y0129273D01*
X0059112Y0135937D01*
X0059112Y0136169D01*
X0060838Y0137896D01*
X0062123Y0140997D01*
X0062123Y0144353D01*
X0060838Y0147454D01*
X0058548Y0149744D01*
X0058583Y0149780D01*
X0059102Y0150456D01*
X0059528Y0151194D01*
X0059854Y0151981D01*
X0060074Y0152804D01*
X0060186Y0153649D01*
X0060186Y0153875D01*
X0053886Y0153875D01*
X0053886Y0154275D01*
X0059158Y0157596D02*
X0067898Y0157596D01*
X0067156Y0155997D02*
X0059900Y0155997D01*
X0060186Y0154399D02*
X0066871Y0154399D01*
X0066983Y0152800D02*
X0060073Y0152800D01*
X0059531Y0151202D02*
X0067525Y0151202D01*
X0068367Y0149603D02*
X0058689Y0149603D01*
X0060288Y0148005D02*
X0066769Y0148005D01*
X0065784Y0146406D02*
X0061272Y0146406D01*
X0061934Y0144807D02*
X0065122Y0144807D01*
X0064934Y0143209D02*
X0062123Y0143209D01*
X0062123Y0141610D02*
X0064934Y0141610D01*
X0065341Y0140012D02*
X0061715Y0140012D01*
X0061053Y0138413D02*
X0066004Y0138413D01*
X0067299Y0136815D02*
X0059757Y0136815D01*
X0059832Y0135216D02*
X0069330Y0135216D01*
X0063029Y0132019D02*
X0101215Y0132019D01*
X0101082Y0130421D02*
X0064628Y0130421D01*
X0061431Y0133618D02*
X0101877Y0133618D01*
X0102986Y0135216D02*
X0097096Y0135216D01*
X0099127Y0136815D02*
X0104942Y0136815D01*
X0103821Y0138413D02*
X0100423Y0138413D01*
X0101085Y0140012D02*
X0103208Y0140012D01*
X0103208Y0141610D02*
X0101493Y0141610D01*
X0101493Y0143209D02*
X0103208Y0143209D01*
X0103208Y0144807D02*
X0101304Y0144807D01*
X0100642Y0146406D02*
X0103702Y0146406D01*
X0105301Y0148005D02*
X0099658Y0148005D01*
X0098059Y0149603D02*
X0105371Y0149603D01*
X0105145Y0151202D02*
X0098901Y0151202D01*
X0099443Y0152800D02*
X0105145Y0152800D01*
X0105145Y0154399D02*
X0099556Y0154399D01*
X0099270Y0155997D02*
X0106033Y0155997D01*
X0107631Y0157596D02*
X0098528Y0157596D01*
X0087583Y0157596D02*
X0078843Y0157596D01*
X0079585Y0155997D02*
X0086841Y0155997D01*
X0086556Y0154399D02*
X0079871Y0154399D01*
X0079758Y0152800D02*
X0086668Y0152800D01*
X0087210Y0151202D02*
X0079216Y0151202D01*
X0078374Y0149603D02*
X0088052Y0149603D01*
X0086454Y0148005D02*
X0079973Y0148005D01*
X0080957Y0146406D02*
X0085469Y0146406D01*
X0084807Y0144807D02*
X0081619Y0144807D01*
X0081808Y0143209D02*
X0084619Y0143209D01*
X0084619Y0141610D02*
X0081808Y0141610D01*
X0081400Y0140012D02*
X0085026Y0140012D01*
X0085689Y0138413D02*
X0080738Y0138413D01*
X0079442Y0136815D02*
X0086984Y0136815D01*
X0089015Y0135216D02*
X0077411Y0135216D01*
X0044343Y0130421D02*
X0043343Y0130421D01*
X0043343Y0128822D02*
X0044343Y0128822D01*
X0044343Y0127224D02*
X0043343Y0127224D01*
X0043343Y0125625D02*
X0044343Y0125625D01*
X0044343Y0122428D02*
X0043343Y0122428D01*
X0043343Y0120830D02*
X0044343Y0120830D01*
X0044343Y0119231D02*
X0043343Y0119231D01*
X0043343Y0117633D02*
X0044343Y0117633D01*
X0036534Y0117633D02*
X0031363Y0117633D01*
X0031363Y0119231D02*
X0034450Y0119231D01*
X0033381Y0120830D02*
X0031363Y0120830D01*
X0031363Y0122428D02*
X0032836Y0122428D01*
X0031363Y0112837D02*
X0037288Y0112837D01*
X0034127Y0111239D02*
X0031363Y0111239D01*
X0031363Y0109640D02*
X0032528Y0109640D01*
X0031623Y0108042D02*
X0031363Y0108042D01*
X0031363Y0143209D02*
X0032789Y0143209D01*
X0121520Y0152469D02*
X0137268Y0152469D01*
X0140300Y0149438D01*
X0161273Y0148958D02*
X0165185Y0152870D01*
X0231556Y0152870D01*
X0237187Y0147240D01*
X0236764Y0146817D01*
X0235998Y0144967D01*
X0235867Y0145021D01*
X0234283Y0145021D01*
X0234283Y0145199D01*
X0233136Y0147969D01*
X0231016Y0150090D01*
X0228245Y0151237D01*
X0225247Y0151237D01*
X0224498Y0150927D01*
X0194339Y0150927D01*
X0192344Y0150101D01*
X0190218Y0147974D01*
X0180933Y0147974D01*
X0180775Y0148132D01*
X0178781Y0148958D01*
X0161273Y0148958D01*
X0161918Y0149603D02*
X0191847Y0149603D01*
X0190248Y0148005D02*
X0180903Y0148005D01*
X0165115Y0152800D02*
X0231626Y0152800D01*
X0233225Y0151202D02*
X0228331Y0151202D01*
X0231502Y0149603D02*
X0234823Y0149603D01*
X0236422Y0148005D02*
X0233101Y0148005D01*
X0233783Y0146406D02*
X0236594Y0146406D01*
X0225161Y0151202D02*
X0163516Y0151202D01*
X0189791Y0112516D02*
X0222640Y0112516D01*
X0222493Y0112369D01*
X0221345Y0109598D01*
X0221345Y0106600D01*
X0222493Y0103830D01*
X0224613Y0101710D01*
X0225314Y0101419D01*
X0225314Y0096613D01*
X0217872Y0089171D01*
X0216314Y0087614D01*
X0215471Y0085579D01*
X0215471Y0033621D01*
X0202967Y0021117D01*
X0155219Y0021117D01*
X0155219Y0021192D01*
X0186332Y0052305D01*
X0187175Y0054340D01*
X0187175Y0056272D01*
X0195755Y0047693D01*
X0195755Y0047053D01*
X0196902Y0044283D01*
X0199022Y0042162D01*
X0201793Y0041015D01*
X0204791Y0041015D01*
X0207561Y0042162D01*
X0209681Y0044283D01*
X0210829Y0047053D01*
X0210829Y0050051D01*
X0209681Y0052821D01*
X0207561Y0054942D01*
X0204791Y0056089D01*
X0204151Y0056089D01*
X0192857Y0067383D01*
X0192912Y0067437D01*
X0194052Y0070191D01*
X0194052Y0073172D01*
X0192912Y0075926D01*
X0190804Y0078034D01*
X0189175Y0078709D01*
X0189175Y0080071D01*
X0188028Y0082841D01*
X0185908Y0084961D01*
X0183138Y0086109D01*
X0181101Y0086109D01*
X0184270Y0089278D01*
X0185096Y0091272D01*
X0185096Y0099946D01*
X0188207Y0103057D01*
X0189033Y0105051D01*
X0189033Y0111757D01*
X0189791Y0112516D01*
X0189033Y0111239D02*
X0222025Y0111239D01*
X0221363Y0109640D02*
X0189033Y0109640D01*
X0189033Y0108042D02*
X0221345Y0108042D01*
X0221410Y0106443D02*
X0189033Y0106443D01*
X0188947Y0104845D02*
X0222072Y0104845D01*
X0223076Y0103246D02*
X0188285Y0103246D01*
X0186797Y0101648D02*
X0224763Y0101648D01*
X0225314Y0100049D02*
X0185199Y0100049D01*
X0185096Y0098451D02*
X0225314Y0098451D01*
X0225314Y0096852D02*
X0185096Y0096852D01*
X0185096Y0095254D02*
X0223954Y0095254D01*
X0222356Y0093655D02*
X0185096Y0093655D01*
X0185096Y0092057D02*
X0220757Y0092057D01*
X0219159Y0090458D02*
X0184759Y0090458D01*
X0183852Y0088860D02*
X0217560Y0088860D01*
X0216168Y0087261D02*
X0182253Y0087261D01*
X0184214Y0085663D02*
X0215506Y0085663D01*
X0215471Y0084064D02*
X0186805Y0084064D01*
X0188183Y0082466D02*
X0215471Y0082466D01*
X0215471Y0080867D02*
X0188846Y0080867D01*
X0189175Y0079269D02*
X0215471Y0079269D01*
X0215471Y0077670D02*
X0191168Y0077670D01*
X0192767Y0076072D02*
X0215471Y0076072D01*
X0215471Y0074473D02*
X0193514Y0074473D01*
X0194052Y0072874D02*
X0215471Y0072874D01*
X0215471Y0071276D02*
X0194052Y0071276D01*
X0193840Y0069677D02*
X0215471Y0069677D01*
X0215471Y0068079D02*
X0193177Y0068079D01*
X0193760Y0066480D02*
X0215471Y0066480D01*
X0215471Y0064882D02*
X0195358Y0064882D01*
X0196957Y0063283D02*
X0215471Y0063283D01*
X0215471Y0061685D02*
X0198555Y0061685D01*
X0200154Y0060086D02*
X0215471Y0060086D01*
X0215471Y0058488D02*
X0201752Y0058488D01*
X0203351Y0056889D02*
X0215471Y0056889D01*
X0215471Y0055291D02*
X0206718Y0055291D01*
X0208810Y0053692D02*
X0215471Y0053692D01*
X0215471Y0052094D02*
X0209983Y0052094D01*
X0210645Y0050495D02*
X0215471Y0050495D01*
X0215471Y0048897D02*
X0210829Y0048897D01*
X0210829Y0047298D02*
X0215471Y0047298D01*
X0215471Y0045700D02*
X0210268Y0045700D01*
X0209500Y0044101D02*
X0215471Y0044101D01*
X0215471Y0042503D02*
X0207902Y0042503D01*
X0215471Y0040904D02*
X0174931Y0040904D01*
X0173333Y0039306D02*
X0215471Y0039306D01*
X0215471Y0037707D02*
X0171734Y0037707D01*
X0170136Y0036109D02*
X0215471Y0036109D01*
X0215471Y0034510D02*
X0168537Y0034510D01*
X0166939Y0032912D02*
X0214762Y0032912D01*
X0213164Y0031313D02*
X0165340Y0031313D01*
X0163742Y0029715D02*
X0211565Y0029715D01*
X0209966Y0028116D02*
X0162143Y0028116D01*
X0160545Y0026518D02*
X0208368Y0026518D01*
X0206769Y0024919D02*
X0158946Y0024919D01*
X0157348Y0023321D02*
X0205171Y0023321D01*
X0203572Y0021722D02*
X0155749Y0021722D01*
X0147682Y0021485D02*
X0181638Y0055442D01*
X0181638Y0078572D01*
X0187175Y0055291D02*
X0188157Y0055291D01*
X0186907Y0053692D02*
X0189755Y0053692D01*
X0191354Y0052094D02*
X0186121Y0052094D01*
X0184522Y0050495D02*
X0192952Y0050495D01*
X0194551Y0048897D02*
X0182924Y0048897D01*
X0181325Y0047298D02*
X0195755Y0047298D01*
X0196315Y0045700D02*
X0179727Y0045700D01*
X0178128Y0044101D02*
X0197084Y0044101D01*
X0198682Y0042503D02*
X0176530Y0042503D01*
X0157672Y0039306D02*
X0120135Y0039306D01*
X0120135Y0040904D02*
X0138798Y0040904D01*
X0137199Y0042503D02*
X0120135Y0042503D01*
X0120135Y0044101D02*
X0135601Y0044101D01*
X0134002Y0045700D02*
X0120135Y0045700D01*
X0120135Y0047298D02*
X0132404Y0047298D01*
X0131366Y0048897D02*
X0120135Y0048897D01*
X0120135Y0050495D02*
X0130937Y0050495D01*
X0130937Y0052094D02*
X0120135Y0052094D01*
X0120135Y0053692D02*
X0130937Y0053692D01*
X0130937Y0055291D02*
X0120135Y0055291D01*
X0120135Y0056889D02*
X0130937Y0056889D01*
X0130937Y0058488D02*
X0120135Y0058488D01*
X0120135Y0060086D02*
X0130937Y0060086D01*
X0120135Y0037707D02*
X0156073Y0037707D01*
X0154475Y0036109D02*
X0120135Y0036109D01*
X0120135Y0034510D02*
X0152876Y0034510D01*
X0151278Y0032912D02*
X0120135Y0032912D01*
X0120135Y0031313D02*
X0149679Y0031313D01*
X0148081Y0029715D02*
X0120135Y0029715D01*
X0120135Y0028116D02*
X0143995Y0028116D01*
X0142055Y0026518D02*
X0121287Y0026518D01*
X0123043Y0024919D02*
X0140946Y0024919D01*
X0140284Y0023321D02*
X0124641Y0023321D01*
X0126240Y0021722D02*
X0140145Y0021722D01*
X0124552Y0015580D02*
X0118646Y0021485D01*
X0124552Y0015580D02*
X0205260Y0015580D01*
X0221008Y0031328D01*
X0221008Y0084477D01*
X0230851Y0094320D01*
X0230851Y0106131D01*
X0228882Y0108099D01*
X0236388Y0106208D02*
X0237620Y0104976D01*
X0238404Y0104651D01*
X0239869Y0103186D01*
X0242639Y0102039D01*
X0244193Y0102039D01*
X0244193Y0101782D01*
X0245750Y0100225D01*
X0244193Y0098668D01*
X0244193Y0091782D01*
X0247119Y0088856D01*
X0246130Y0087866D01*
X0246130Y0085425D01*
X0252304Y0085425D01*
X0252304Y0085025D01*
X0246130Y0085025D01*
X0246130Y0082585D01*
X0247119Y0081595D01*
X0244193Y0078668D01*
X0244193Y0071782D01*
X0245750Y0070225D01*
X0244193Y0068668D01*
X0244193Y0065062D01*
X0242994Y0066260D01*
X0240224Y0067408D01*
X0237226Y0067408D01*
X0234456Y0066260D01*
X0232335Y0064140D01*
X0231188Y0061370D01*
X0231188Y0058372D01*
X0232335Y0055601D01*
X0233299Y0054638D01*
X0233299Y0046020D01*
X0230529Y0047167D01*
X0227235Y0047167D01*
X0226545Y0046881D01*
X0226545Y0072976D01*
X0227397Y0072699D01*
X0228383Y0072543D01*
X0228698Y0072543D01*
X0228698Y0078702D01*
X0229067Y0078702D01*
X0229067Y0079071D01*
X0235226Y0079071D01*
X0235226Y0079386D01*
X0235070Y0080372D01*
X0234761Y0081322D01*
X0234308Y0082211D01*
X0233721Y0083019D01*
X0233015Y0083725D01*
X0232207Y0084312D01*
X0231317Y0084765D01*
X0230368Y0085074D01*
X0229563Y0085201D01*
X0233987Y0089626D01*
X0235545Y0091183D01*
X0236388Y0093218D01*
X0236388Y0106208D01*
X0236388Y0104845D02*
X0237936Y0104845D01*
X0236388Y0103246D02*
X0239809Y0103246D01*
X0236388Y0101648D02*
X0244327Y0101648D01*
X0245574Y0100049D02*
X0236388Y0100049D01*
X0236388Y0098451D02*
X0244193Y0098451D01*
X0244193Y0096852D02*
X0236388Y0096852D01*
X0236388Y0095254D02*
X0244193Y0095254D01*
X0244193Y0093655D02*
X0236388Y0093655D01*
X0235907Y0092057D02*
X0244193Y0092057D01*
X0245517Y0090458D02*
X0234820Y0090458D01*
X0233987Y0089626D02*
X0233987Y0089626D01*
X0233221Y0088860D02*
X0247115Y0088860D01*
X0246130Y0087261D02*
X0231623Y0087261D01*
X0230024Y0085663D02*
X0246130Y0085663D01*
X0246130Y0084064D02*
X0232548Y0084064D01*
X0234123Y0082466D02*
X0246249Y0082466D01*
X0246392Y0080867D02*
X0234909Y0080867D01*
X0235226Y0079269D02*
X0244793Y0079269D01*
X0244193Y0077670D02*
X0235112Y0077670D01*
X0235070Y0077401D02*
X0235226Y0078387D01*
X0235226Y0078702D01*
X0229067Y0078702D01*
X0229067Y0072543D01*
X0229382Y0072543D01*
X0230368Y0072699D01*
X0231317Y0073008D01*
X0232207Y0073461D01*
X0233015Y0074048D01*
X0233721Y0074754D01*
X0234308Y0075562D01*
X0234761Y0076452D01*
X0235070Y0077401D01*
X0234567Y0076072D02*
X0244193Y0076072D01*
X0244193Y0074473D02*
X0233440Y0074473D01*
X0230906Y0072874D02*
X0244193Y0072874D01*
X0244699Y0071276D02*
X0226545Y0071276D01*
X0226545Y0072874D02*
X0226858Y0072874D01*
X0228698Y0072874D02*
X0229067Y0072874D01*
X0229067Y0074473D02*
X0228698Y0074473D01*
X0228698Y0076072D02*
X0229067Y0076072D01*
X0229067Y0077670D02*
X0228698Y0077670D01*
X0226545Y0069677D02*
X0245202Y0069677D01*
X0244193Y0068079D02*
X0226545Y0068079D01*
X0226545Y0066480D02*
X0234987Y0066480D01*
X0233077Y0064882D02*
X0226545Y0064882D01*
X0226545Y0063283D02*
X0231980Y0063283D01*
X0231318Y0061685D02*
X0226545Y0061685D01*
X0226545Y0060086D02*
X0231188Y0060086D01*
X0231188Y0058488D02*
X0226545Y0058488D01*
X0226545Y0056889D02*
X0231802Y0056889D01*
X0232646Y0055291D02*
X0226545Y0055291D01*
X0226545Y0053692D02*
X0233299Y0053692D01*
X0233299Y0052094D02*
X0226545Y0052094D01*
X0226545Y0050495D02*
X0233299Y0050495D01*
X0233299Y0048897D02*
X0226545Y0048897D01*
X0226545Y0047298D02*
X0233299Y0047298D01*
X0244151Y0050663D02*
X0244151Y0054638D01*
X0245114Y0055601D01*
X0246262Y0058372D01*
X0246262Y0059713D01*
X0249062Y0056913D01*
X0255947Y0056913D01*
X0257110Y0058076D01*
X0257110Y0025209D01*
X0256612Y0025497D01*
X0253906Y0026222D01*
X0253694Y0026222D01*
X0254504Y0028178D01*
X0254504Y0030458D01*
X0255550Y0031504D01*
X0256804Y0034532D01*
X0256804Y0037809D01*
X0255550Y0040836D01*
X0253847Y0042540D01*
X0254867Y0043561D01*
X0254867Y0046170D01*
X0248568Y0046170D01*
X0248568Y0046170D01*
X0254867Y0046170D01*
X0254867Y0048780D01*
X0251177Y0052470D01*
X0248567Y0052470D01*
X0245958Y0052470D01*
X0244151Y0050663D01*
X0244151Y0052094D02*
X0245582Y0052094D01*
X0244151Y0053692D02*
X0257110Y0053692D01*
X0257110Y0052094D02*
X0251553Y0052094D01*
X0253152Y0050495D02*
X0257110Y0050495D01*
X0257110Y0048897D02*
X0254750Y0048897D01*
X0254867Y0047298D02*
X0257110Y0047298D01*
X0257110Y0045700D02*
X0254867Y0045700D01*
X0254867Y0044101D02*
X0257110Y0044101D01*
X0257110Y0042503D02*
X0253884Y0042503D01*
X0255482Y0040904D02*
X0257110Y0040904D01*
X0257110Y0039306D02*
X0256184Y0039306D01*
X0256804Y0037707D02*
X0257110Y0037707D01*
X0257110Y0036109D02*
X0256804Y0036109D01*
X0256796Y0034510D02*
X0257110Y0034510D01*
X0257110Y0032912D02*
X0256133Y0032912D01*
X0255359Y0031313D02*
X0257110Y0031313D01*
X0257110Y0029715D02*
X0254504Y0029715D01*
X0254479Y0028116D02*
X0257110Y0028116D01*
X0257110Y0026518D02*
X0253817Y0026518D01*
X0248567Y0046170D02*
X0248567Y0046170D01*
X0248567Y0052470D01*
X0248567Y0046170D01*
X0248567Y0047298D02*
X0248567Y0047298D01*
X0248567Y0048897D02*
X0248567Y0048897D01*
X0248567Y0050495D02*
X0248567Y0050495D01*
X0248567Y0052094D02*
X0248567Y0052094D01*
X0244804Y0055291D02*
X0257110Y0055291D01*
X0257110Y0056889D02*
X0245648Y0056889D01*
X0246262Y0058488D02*
X0247487Y0058488D01*
X0244193Y0066480D02*
X0242463Y0066480D01*
X0098126Y0076072D02*
X0095056Y0076072D01*
X0095056Y0077670D02*
X0095599Y0077670D01*
D25*
X0035969Y0153375D03*
X0252504Y0153375D03*
X0252504Y0015580D03*
M02*
