%
M48
M72
T01C0.02362
T02C0.03150
T03C0.03200
T04C0.03937
T05C0.04000
T06C0.05200
T07C0.07874
%
T01
X102898Y11643
X141284Y27391
X147682Y21485
X146205Y51997
X141284Y60855
X146697Y82509
X153095Y92351
X169827Y94320
X175733Y112036
X173764Y119910
X181441Y122076
X171796Y138611
X187827Y147186
X207721Y153375
X226746Y143700
X217071Y135658
X212150Y126800
X228882Y108099
X244138Y109576
X244138Y122371
X243154Y142548
X165237Y153170
X140300Y149438
X130756Y147225
X108575Y130209
X101914Y139595
X128489Y121879
X108804Y114005
X124552Y93335
X130804Y87776
X157524Y112036
X181638Y78572
X186560Y71682
X207032Y68926
X203292Y48552
X238725Y59871
X256441Y27391
X244630Y25422
T02
X104158Y20422
X104158Y30422
X104158Y51918
X104158Y61918
X104158Y83414
X104158Y93414
X74079Y93414
X74079Y61918
X74079Y30422
T03
X38843Y19517
X48843Y19517
X74079Y20422
X74079Y51918
X74079Y83414
X248567Y46170
X248567Y36170
T04
X228882Y38887
X228882Y78887
X146363Y102115
X136363Y102115
X126363Y102115
X126363Y112115
X136363Y112115
X146363Y112115
T05
X121520Y142469
X111520Y142469
X111520Y152469
X121520Y152469
X93056Y154075
X93056Y142675
X73371Y142675
X73371Y154075
X53686Y154075
X53686Y142675
X252504Y135225
X252504Y125225
X252504Y115225
X252504Y105225
X252504Y95225
X252504Y85225
X252504Y75225
X252504Y65225
T06
X43843Y64777
X43843Y44977
X43843Y84477
X43843Y104177
X43843Y123877
T07
X35969Y153375
X252504Y153375
X252504Y15580
M30
