G75*
%MOIN*%
%OFA0B0*%
%FSLAX25Y25*%
%IPPOS*%
%LPD*%
%AMOC8*
5,1,8,0,0,1.08239X$1,22.5*
%
%ADD10C,0.00600*%
%ADD11C,0.00400*%
%ADD12C,0.00591*%
%ADD13C,0.01000*%
%ADD14R,0.01181X0.08268*%
%ADD15C,0.00500*%
%ADD16C,0.00800*%
%ADD17R,0.00787X0.00787*%
%ADD18C,0.00300*%
%ADD19R,0.15000X0.03000*%
%ADD20C,0.00200*%
%ADD21R,0.10000X0.02000*%
%ADD22R,0.03000X0.07500*%
D10*
X0032843Y0019517D02*
X0032846Y0019787D01*
X0032856Y0020057D01*
X0032873Y0020326D01*
X0032896Y0020595D01*
X0032926Y0020864D01*
X0032962Y0021131D01*
X0033005Y0021398D01*
X0033054Y0021663D01*
X0033110Y0021927D01*
X0033173Y0022190D01*
X0033241Y0022451D01*
X0033317Y0022710D01*
X0033398Y0022967D01*
X0033486Y0023223D01*
X0033580Y0023476D01*
X0033680Y0023727D01*
X0033787Y0023975D01*
X0033899Y0024220D01*
X0034018Y0024463D01*
X0034142Y0024702D01*
X0034272Y0024939D01*
X0034408Y0025172D01*
X0034550Y0025402D01*
X0034697Y0025628D01*
X0034850Y0025851D01*
X0035008Y0026070D01*
X0035171Y0026285D01*
X0035340Y0026495D01*
X0035514Y0026702D01*
X0035693Y0026904D01*
X0035876Y0027102D01*
X0036065Y0027295D01*
X0036258Y0027484D01*
X0036456Y0027667D01*
X0036658Y0027846D01*
X0036865Y0028020D01*
X0037075Y0028189D01*
X0037290Y0028352D01*
X0037509Y0028510D01*
X0037732Y0028663D01*
X0037958Y0028810D01*
X0038188Y0028952D01*
X0038421Y0029088D01*
X0038658Y0029218D01*
X0038897Y0029342D01*
X0039140Y0029461D01*
X0039385Y0029573D01*
X0039633Y0029680D01*
X0039884Y0029780D01*
X0040137Y0029874D01*
X0040393Y0029962D01*
X0040650Y0030043D01*
X0040909Y0030119D01*
X0041170Y0030187D01*
X0041433Y0030250D01*
X0041697Y0030306D01*
X0041962Y0030355D01*
X0042229Y0030398D01*
X0042496Y0030434D01*
X0042765Y0030464D01*
X0043034Y0030487D01*
X0043303Y0030504D01*
X0043573Y0030514D01*
X0043843Y0030517D01*
X0044113Y0030514D01*
X0044383Y0030504D01*
X0044652Y0030487D01*
X0044921Y0030464D01*
X0045190Y0030434D01*
X0045457Y0030398D01*
X0045724Y0030355D01*
X0045989Y0030306D01*
X0046253Y0030250D01*
X0046516Y0030187D01*
X0046777Y0030119D01*
X0047036Y0030043D01*
X0047293Y0029962D01*
X0047549Y0029874D01*
X0047802Y0029780D01*
X0048053Y0029680D01*
X0048301Y0029573D01*
X0048546Y0029461D01*
X0048789Y0029342D01*
X0049028Y0029218D01*
X0049265Y0029088D01*
X0049498Y0028952D01*
X0049728Y0028810D01*
X0049954Y0028663D01*
X0050177Y0028510D01*
X0050396Y0028352D01*
X0050611Y0028189D01*
X0050821Y0028020D01*
X0051028Y0027846D01*
X0051230Y0027667D01*
X0051428Y0027484D01*
X0051621Y0027295D01*
X0051810Y0027102D01*
X0051993Y0026904D01*
X0052172Y0026702D01*
X0052346Y0026495D01*
X0052515Y0026285D01*
X0052678Y0026070D01*
X0052836Y0025851D01*
X0052989Y0025628D01*
X0053136Y0025402D01*
X0053278Y0025172D01*
X0053414Y0024939D01*
X0053544Y0024702D01*
X0053668Y0024463D01*
X0053787Y0024220D01*
X0053899Y0023975D01*
X0054006Y0023727D01*
X0054106Y0023476D01*
X0054200Y0023223D01*
X0054288Y0022967D01*
X0054369Y0022710D01*
X0054445Y0022451D01*
X0054513Y0022190D01*
X0054576Y0021927D01*
X0054632Y0021663D01*
X0054681Y0021398D01*
X0054724Y0021131D01*
X0054760Y0020864D01*
X0054790Y0020595D01*
X0054813Y0020326D01*
X0054830Y0020057D01*
X0054840Y0019787D01*
X0054843Y0019517D01*
X0054840Y0019247D01*
X0054830Y0018977D01*
X0054813Y0018708D01*
X0054790Y0018439D01*
X0054760Y0018170D01*
X0054724Y0017903D01*
X0054681Y0017636D01*
X0054632Y0017371D01*
X0054576Y0017107D01*
X0054513Y0016844D01*
X0054445Y0016583D01*
X0054369Y0016324D01*
X0054288Y0016067D01*
X0054200Y0015811D01*
X0054106Y0015558D01*
X0054006Y0015307D01*
X0053899Y0015059D01*
X0053787Y0014814D01*
X0053668Y0014571D01*
X0053544Y0014332D01*
X0053414Y0014095D01*
X0053278Y0013862D01*
X0053136Y0013632D01*
X0052989Y0013406D01*
X0052836Y0013183D01*
X0052678Y0012964D01*
X0052515Y0012749D01*
X0052346Y0012539D01*
X0052172Y0012332D01*
X0051993Y0012130D01*
X0051810Y0011932D01*
X0051621Y0011739D01*
X0051428Y0011550D01*
X0051230Y0011367D01*
X0051028Y0011188D01*
X0050821Y0011014D01*
X0050611Y0010845D01*
X0050396Y0010682D01*
X0050177Y0010524D01*
X0049954Y0010371D01*
X0049728Y0010224D01*
X0049498Y0010082D01*
X0049265Y0009946D01*
X0049028Y0009816D01*
X0048789Y0009692D01*
X0048546Y0009573D01*
X0048301Y0009461D01*
X0048053Y0009354D01*
X0047802Y0009254D01*
X0047549Y0009160D01*
X0047293Y0009072D01*
X0047036Y0008991D01*
X0046777Y0008915D01*
X0046516Y0008847D01*
X0046253Y0008784D01*
X0045989Y0008728D01*
X0045724Y0008679D01*
X0045457Y0008636D01*
X0045190Y0008600D01*
X0044921Y0008570D01*
X0044652Y0008547D01*
X0044383Y0008530D01*
X0044113Y0008520D01*
X0043843Y0008517D01*
X0043573Y0008520D01*
X0043303Y0008530D01*
X0043034Y0008547D01*
X0042765Y0008570D01*
X0042496Y0008600D01*
X0042229Y0008636D01*
X0041962Y0008679D01*
X0041697Y0008728D01*
X0041433Y0008784D01*
X0041170Y0008847D01*
X0040909Y0008915D01*
X0040650Y0008991D01*
X0040393Y0009072D01*
X0040137Y0009160D01*
X0039884Y0009254D01*
X0039633Y0009354D01*
X0039385Y0009461D01*
X0039140Y0009573D01*
X0038897Y0009692D01*
X0038658Y0009816D01*
X0038421Y0009946D01*
X0038188Y0010082D01*
X0037958Y0010224D01*
X0037732Y0010371D01*
X0037509Y0010524D01*
X0037290Y0010682D01*
X0037075Y0010845D01*
X0036865Y0011014D01*
X0036658Y0011188D01*
X0036456Y0011367D01*
X0036258Y0011550D01*
X0036065Y0011739D01*
X0035876Y0011932D01*
X0035693Y0012130D01*
X0035514Y0012332D01*
X0035340Y0012539D01*
X0035171Y0012749D01*
X0035008Y0012964D01*
X0034850Y0013183D01*
X0034697Y0013406D01*
X0034550Y0013632D01*
X0034408Y0013862D01*
X0034272Y0014095D01*
X0034142Y0014332D01*
X0034018Y0014571D01*
X0033899Y0014814D01*
X0033787Y0015059D01*
X0033680Y0015307D01*
X0033580Y0015558D01*
X0033486Y0015811D01*
X0033398Y0016067D01*
X0033317Y0016324D01*
X0033241Y0016583D01*
X0033173Y0016844D01*
X0033110Y0017107D01*
X0033054Y0017371D01*
X0033005Y0017636D01*
X0032962Y0017903D01*
X0032926Y0018170D01*
X0032896Y0018439D01*
X0032873Y0018708D01*
X0032856Y0018977D01*
X0032846Y0019247D01*
X0032843Y0019517D01*
X0047843Y0025517D02*
X0049843Y0025517D01*
X0048843Y0026517D02*
X0048843Y0024517D01*
X0052343Y0035177D02*
X0035343Y0035177D01*
X0035343Y0074677D01*
X0035343Y0133777D01*
X0052343Y0133777D01*
X0057843Y0133777D01*
X0057843Y0074677D01*
X0052343Y0074677D01*
X0035343Y0074677D01*
X0028343Y0074677D01*
X0028343Y0035177D01*
X0031843Y0035177D01*
X0035343Y0035177D01*
X0035843Y0033177D01*
X0031343Y0033177D01*
X0031843Y0035177D01*
X0029843Y0044977D02*
X0029845Y0045066D01*
X0029851Y0045155D01*
X0029861Y0045244D01*
X0029875Y0045332D01*
X0029892Y0045419D01*
X0029914Y0045505D01*
X0029940Y0045591D01*
X0029969Y0045675D01*
X0030002Y0045758D01*
X0030038Y0045839D01*
X0030079Y0045919D01*
X0030122Y0045996D01*
X0030169Y0046072D01*
X0030220Y0046145D01*
X0030273Y0046216D01*
X0030330Y0046285D01*
X0030390Y0046351D01*
X0030453Y0046415D01*
X0030518Y0046475D01*
X0030586Y0046533D01*
X0030657Y0046587D01*
X0030730Y0046638D01*
X0030805Y0046686D01*
X0030882Y0046731D01*
X0030961Y0046772D01*
X0031042Y0046809D01*
X0031124Y0046843D01*
X0031208Y0046874D01*
X0031293Y0046900D01*
X0031379Y0046923D01*
X0031466Y0046941D01*
X0031554Y0046956D01*
X0031643Y0046967D01*
X0031732Y0046974D01*
X0031821Y0046977D01*
X0031910Y0046976D01*
X0031999Y0046971D01*
X0032087Y0046962D01*
X0032176Y0046949D01*
X0032263Y0046932D01*
X0032350Y0046912D01*
X0032436Y0046887D01*
X0032520Y0046859D01*
X0032603Y0046827D01*
X0032685Y0046791D01*
X0032765Y0046752D01*
X0032843Y0046709D01*
X0032919Y0046663D01*
X0032993Y0046613D01*
X0033065Y0046560D01*
X0033134Y0046504D01*
X0033201Y0046445D01*
X0033265Y0046383D01*
X0033326Y0046319D01*
X0033385Y0046251D01*
X0033440Y0046181D01*
X0033492Y0046109D01*
X0033541Y0046034D01*
X0033586Y0045958D01*
X0033628Y0045879D01*
X0033666Y0045799D01*
X0033701Y0045717D01*
X0033732Y0045633D01*
X0033760Y0045548D01*
X0033783Y0045462D01*
X0033803Y0045375D01*
X0033819Y0045288D01*
X0033831Y0045199D01*
X0033839Y0045111D01*
X0033843Y0045022D01*
X0033843Y0044932D01*
X0033839Y0044843D01*
X0033831Y0044755D01*
X0033819Y0044666D01*
X0033803Y0044579D01*
X0033783Y0044492D01*
X0033760Y0044406D01*
X0033732Y0044321D01*
X0033701Y0044237D01*
X0033666Y0044155D01*
X0033628Y0044075D01*
X0033586Y0043996D01*
X0033541Y0043920D01*
X0033492Y0043845D01*
X0033440Y0043773D01*
X0033385Y0043703D01*
X0033326Y0043635D01*
X0033265Y0043571D01*
X0033201Y0043509D01*
X0033134Y0043450D01*
X0033065Y0043394D01*
X0032993Y0043341D01*
X0032919Y0043291D01*
X0032843Y0043245D01*
X0032765Y0043202D01*
X0032685Y0043163D01*
X0032603Y0043127D01*
X0032520Y0043095D01*
X0032436Y0043067D01*
X0032350Y0043042D01*
X0032263Y0043022D01*
X0032176Y0043005D01*
X0032087Y0042992D01*
X0031999Y0042983D01*
X0031910Y0042978D01*
X0031821Y0042977D01*
X0031732Y0042980D01*
X0031643Y0042987D01*
X0031554Y0042998D01*
X0031466Y0043013D01*
X0031379Y0043031D01*
X0031293Y0043054D01*
X0031208Y0043080D01*
X0031124Y0043111D01*
X0031042Y0043145D01*
X0030961Y0043182D01*
X0030882Y0043223D01*
X0030805Y0043268D01*
X0030730Y0043316D01*
X0030657Y0043367D01*
X0030586Y0043421D01*
X0030518Y0043479D01*
X0030453Y0043539D01*
X0030390Y0043603D01*
X0030330Y0043669D01*
X0030273Y0043738D01*
X0030220Y0043809D01*
X0030169Y0043882D01*
X0030122Y0043958D01*
X0030079Y0044035D01*
X0030038Y0044115D01*
X0030002Y0044196D01*
X0029969Y0044279D01*
X0029940Y0044363D01*
X0029914Y0044449D01*
X0029892Y0044535D01*
X0029875Y0044622D01*
X0029861Y0044710D01*
X0029851Y0044799D01*
X0029845Y0044888D01*
X0029843Y0044977D01*
X0052343Y0035177D02*
X0052343Y0074677D01*
X0052343Y0133777D01*
X0059700Y0129088D02*
X0059700Y0126586D01*
X0064704Y0126586D01*
X0064704Y0129088D01*
X0063870Y0129922D01*
X0060534Y0129922D01*
X0059700Y0129088D01*
X0059700Y0124766D02*
X0064704Y0124766D01*
X0059700Y0121430D01*
X0064704Y0121430D01*
X0063870Y0119609D02*
X0062202Y0119609D01*
X0062202Y0117941D01*
X0060534Y0116273D02*
X0063870Y0116273D01*
X0064704Y0117107D01*
X0064704Y0118775D01*
X0063870Y0119609D01*
X0060534Y0119609D02*
X0059700Y0118775D01*
X0059700Y0117107D01*
X0060534Y0116273D01*
X0059700Y0112933D02*
X0063036Y0112933D01*
X0064704Y0111265D01*
X0063036Y0109597D01*
X0059700Y0109597D01*
X0059700Y0106942D02*
X0062202Y0104440D01*
X0062202Y0107777D01*
X0064704Y0106942D02*
X0059700Y0106942D01*
X0060534Y0102620D02*
X0059700Y0101786D01*
X0059700Y0100118D01*
X0060534Y0099284D01*
X0062202Y0097464D02*
X0062202Y0094128D01*
X0060534Y0095796D02*
X0063870Y0095796D01*
X0064704Y0099284D02*
X0061368Y0102620D01*
X0060534Y0102620D01*
X0064704Y0102620D02*
X0064704Y0099284D01*
X0064704Y0090552D02*
X0064704Y0087216D01*
X0064704Y0088884D02*
X0059700Y0088884D01*
X0061368Y0087216D01*
X0059700Y0085396D02*
X0063036Y0082060D01*
X0062202Y0082894D02*
X0064704Y0085396D01*
X0064704Y0082060D02*
X0059700Y0082060D01*
X0060534Y0080239D02*
X0059700Y0079405D01*
X0059700Y0077737D01*
X0060534Y0076903D01*
X0063870Y0076903D01*
X0064704Y0077737D01*
X0064704Y0079405D01*
X0063870Y0080239D01*
X0060534Y0080239D01*
X0057843Y0074677D02*
X0057843Y0035177D01*
X0052343Y0035177D01*
X0059700Y0038367D02*
X0059700Y0040035D01*
X0060534Y0040869D01*
X0063870Y0040869D01*
X0064704Y0040035D01*
X0064704Y0038367D01*
X0063870Y0037533D01*
X0060534Y0037533D01*
X0059700Y0038367D01*
X0059700Y0042689D02*
X0064704Y0042689D01*
X0063036Y0042689D02*
X0059700Y0046026D01*
X0060534Y0047846D02*
X0059700Y0048680D01*
X0059700Y0050348D01*
X0060534Y0051182D01*
X0061368Y0051182D01*
X0062202Y0050348D01*
X0063036Y0051182D01*
X0063870Y0051182D01*
X0064704Y0050348D01*
X0064704Y0048680D01*
X0063870Y0047846D01*
X0064704Y0046026D02*
X0062202Y0043524D01*
X0062202Y0049514D02*
X0062202Y0050348D01*
X0060534Y0057218D02*
X0063870Y0057218D01*
X0064704Y0058052D01*
X0064704Y0059720D01*
X0063870Y0060554D01*
X0060534Y0060554D01*
X0059700Y0059720D01*
X0059700Y0058052D01*
X0060534Y0057218D01*
X0059700Y0062375D02*
X0064704Y0062375D01*
X0063036Y0062375D02*
X0059700Y0065711D01*
X0060534Y0067531D02*
X0059700Y0068365D01*
X0059700Y0070033D01*
X0060534Y0070867D01*
X0061368Y0070867D01*
X0064704Y0067531D01*
X0064704Y0070867D01*
X0064704Y0065711D02*
X0062202Y0063209D01*
X0077662Y0066918D02*
X0100575Y0066918D01*
X0100575Y0078414D02*
X0093119Y0078414D01*
X0093117Y0078540D01*
X0093111Y0078665D01*
X0093101Y0078790D01*
X0093087Y0078915D01*
X0093070Y0079040D01*
X0093048Y0079164D01*
X0093023Y0079287D01*
X0092993Y0079409D01*
X0092960Y0079530D01*
X0092923Y0079650D01*
X0092883Y0079769D01*
X0092838Y0079886D01*
X0092790Y0080003D01*
X0092738Y0080117D01*
X0092683Y0080230D01*
X0092624Y0080341D01*
X0092562Y0080450D01*
X0092496Y0080557D01*
X0092427Y0080662D01*
X0092355Y0080765D01*
X0092280Y0080866D01*
X0092201Y0080964D01*
X0092119Y0081059D01*
X0092035Y0081152D01*
X0091947Y0081242D01*
X0091857Y0081330D01*
X0091764Y0081414D01*
X0091669Y0081496D01*
X0091571Y0081575D01*
X0091470Y0081650D01*
X0091367Y0081722D01*
X0091262Y0081791D01*
X0091155Y0081857D01*
X0091046Y0081919D01*
X0090935Y0081978D01*
X0090822Y0082033D01*
X0090708Y0082085D01*
X0090591Y0082133D01*
X0090474Y0082178D01*
X0090355Y0082218D01*
X0090235Y0082255D01*
X0090114Y0082288D01*
X0089992Y0082318D01*
X0089869Y0082343D01*
X0089745Y0082365D01*
X0089620Y0082382D01*
X0089495Y0082396D01*
X0089370Y0082406D01*
X0089245Y0082412D01*
X0089119Y0082414D01*
X0088993Y0082412D01*
X0088868Y0082406D01*
X0088743Y0082396D01*
X0088618Y0082382D01*
X0088493Y0082365D01*
X0088369Y0082343D01*
X0088246Y0082318D01*
X0088124Y0082288D01*
X0088003Y0082255D01*
X0087883Y0082218D01*
X0087764Y0082178D01*
X0087647Y0082133D01*
X0087530Y0082085D01*
X0087416Y0082033D01*
X0087303Y0081978D01*
X0087192Y0081919D01*
X0087083Y0081857D01*
X0086976Y0081791D01*
X0086871Y0081722D01*
X0086768Y0081650D01*
X0086667Y0081575D01*
X0086569Y0081496D01*
X0086474Y0081414D01*
X0086381Y0081330D01*
X0086291Y0081242D01*
X0086203Y0081152D01*
X0086119Y0081059D01*
X0086037Y0080964D01*
X0085958Y0080866D01*
X0085883Y0080765D01*
X0085811Y0080662D01*
X0085742Y0080557D01*
X0085676Y0080450D01*
X0085614Y0080341D01*
X0085555Y0080230D01*
X0085500Y0080117D01*
X0085448Y0080003D01*
X0085400Y0079886D01*
X0085355Y0079769D01*
X0085315Y0079650D01*
X0085278Y0079530D01*
X0085245Y0079409D01*
X0085215Y0079287D01*
X0085190Y0079164D01*
X0085168Y0079040D01*
X0085151Y0078915D01*
X0085137Y0078790D01*
X0085127Y0078665D01*
X0085121Y0078540D01*
X0085119Y0078414D01*
X0077662Y0078414D01*
X0077662Y0098414D02*
X0100575Y0098414D01*
X0121363Y0099615D02*
X0121363Y0114615D01*
X0123863Y0117115D01*
X0128863Y0117115D01*
X0131363Y0114615D01*
X0133863Y0117115D01*
X0138863Y0117115D01*
X0141363Y0114615D01*
X0143863Y0117115D01*
X0148863Y0117115D01*
X0151363Y0114615D01*
X0151363Y0099615D01*
X0148863Y0097115D01*
X0143863Y0097115D01*
X0141363Y0099615D01*
X0138863Y0097115D01*
X0133863Y0097115D01*
X0131363Y0099615D01*
X0128863Y0097115D01*
X0123863Y0097115D01*
X0121363Y0099615D01*
X0119020Y0137469D02*
X0124020Y0137469D01*
X0126520Y0139969D01*
X0126520Y0154969D01*
X0124020Y0157469D01*
X0119020Y0157469D01*
X0116520Y0154969D01*
X0116520Y0139969D01*
X0119020Y0137469D01*
X0116520Y0139969D02*
X0114020Y0137469D01*
X0109020Y0137469D01*
X0106520Y0139969D01*
X0106520Y0154969D01*
X0109020Y0157469D01*
X0114020Y0157469D01*
X0116520Y0154969D01*
X0182781Y0132603D02*
X0184249Y0131135D01*
X0182781Y0132603D02*
X0187185Y0132603D01*
X0187185Y0131135D02*
X0187185Y0134071D01*
X0186451Y0129467D02*
X0182781Y0129467D01*
X0186451Y0129467D02*
X0187185Y0128733D01*
X0187185Y0127265D01*
X0186451Y0126532D01*
X0182781Y0126532D01*
X0187697Y0103820D02*
X0230697Y0103820D01*
X0230757Y0103818D01*
X0230818Y0103813D01*
X0230877Y0103804D01*
X0230936Y0103791D01*
X0230995Y0103775D01*
X0231052Y0103755D01*
X0231107Y0103732D01*
X0231162Y0103705D01*
X0231214Y0103676D01*
X0231265Y0103643D01*
X0231314Y0103607D01*
X0231360Y0103569D01*
X0231404Y0103527D01*
X0231446Y0103483D01*
X0231484Y0103437D01*
X0231520Y0103388D01*
X0231553Y0103337D01*
X0231582Y0103285D01*
X0231609Y0103230D01*
X0231632Y0103175D01*
X0231652Y0103118D01*
X0231668Y0103059D01*
X0231681Y0103000D01*
X0231690Y0102941D01*
X0231695Y0102880D01*
X0231697Y0102820D01*
X0231697Y0098820D01*
X0231697Y0089820D02*
X0231697Y0085820D01*
X0231695Y0085760D01*
X0231690Y0085699D01*
X0231681Y0085640D01*
X0231668Y0085581D01*
X0231652Y0085522D01*
X0231632Y0085465D01*
X0231609Y0085410D01*
X0231582Y0085355D01*
X0231553Y0085303D01*
X0231520Y0085252D01*
X0231484Y0085203D01*
X0231446Y0085157D01*
X0231404Y0085113D01*
X0231360Y0085071D01*
X0231314Y0085033D01*
X0231265Y0084997D01*
X0231214Y0084964D01*
X0231162Y0084935D01*
X0231107Y0084908D01*
X0231052Y0084885D01*
X0230995Y0084865D01*
X0230936Y0084849D01*
X0230877Y0084836D01*
X0230818Y0084827D01*
X0230757Y0084822D01*
X0230697Y0084820D01*
X0187697Y0084820D01*
X0187637Y0084822D01*
X0187576Y0084827D01*
X0187517Y0084836D01*
X0187458Y0084849D01*
X0187399Y0084865D01*
X0187342Y0084885D01*
X0187287Y0084908D01*
X0187232Y0084935D01*
X0187180Y0084964D01*
X0187129Y0084997D01*
X0187080Y0085033D01*
X0187034Y0085071D01*
X0186990Y0085113D01*
X0186948Y0085157D01*
X0186910Y0085203D01*
X0186874Y0085252D01*
X0186841Y0085303D01*
X0186812Y0085355D01*
X0186785Y0085410D01*
X0186762Y0085465D01*
X0186742Y0085522D01*
X0186726Y0085581D01*
X0186713Y0085640D01*
X0186704Y0085699D01*
X0186699Y0085760D01*
X0186697Y0085820D01*
X0186697Y0089820D01*
X0186697Y0098820D02*
X0186697Y0102820D01*
X0186699Y0102880D01*
X0186704Y0102941D01*
X0186713Y0103000D01*
X0186726Y0103059D01*
X0186742Y0103118D01*
X0186762Y0103175D01*
X0186785Y0103230D01*
X0186812Y0103285D01*
X0186841Y0103337D01*
X0186874Y0103388D01*
X0186910Y0103437D01*
X0186948Y0103483D01*
X0186990Y0103527D01*
X0187034Y0103569D01*
X0187080Y0103607D01*
X0187129Y0103643D01*
X0187180Y0103676D01*
X0187232Y0103705D01*
X0187287Y0103732D01*
X0187342Y0103755D01*
X0187399Y0103775D01*
X0187458Y0103791D01*
X0187517Y0103804D01*
X0187576Y0103813D01*
X0187637Y0103818D01*
X0187697Y0103820D01*
X0206697Y0096820D02*
X0206697Y0094320D01*
X0206697Y0091820D01*
X0208197Y0091820D02*
X0210197Y0091820D01*
X0210197Y0096820D01*
X0208197Y0096820D01*
X0208197Y0091820D01*
X0211697Y0091820D02*
X0211697Y0094320D01*
X0211697Y0096820D01*
X0223882Y0066887D02*
X0223882Y0050887D01*
X0233882Y0050887D01*
X0233882Y0066887D01*
X0223882Y0066887D01*
X0226382Y0062887D02*
X0228882Y0058887D01*
X0226382Y0058887D01*
X0226382Y0059887D01*
X0228882Y0058887D02*
X0228882Y0056387D01*
X0228882Y0058887D02*
X0231382Y0058887D01*
X0228882Y0058887D02*
X0228882Y0064887D01*
X0226382Y0062887D02*
X0231382Y0062887D01*
X0228882Y0058887D01*
X0237567Y0041170D02*
X0237570Y0041440D01*
X0237580Y0041710D01*
X0237597Y0041979D01*
X0237620Y0042248D01*
X0237650Y0042517D01*
X0237686Y0042784D01*
X0237729Y0043051D01*
X0237778Y0043316D01*
X0237834Y0043580D01*
X0237897Y0043843D01*
X0237965Y0044104D01*
X0238041Y0044363D01*
X0238122Y0044620D01*
X0238210Y0044876D01*
X0238304Y0045129D01*
X0238404Y0045380D01*
X0238511Y0045628D01*
X0238623Y0045873D01*
X0238742Y0046116D01*
X0238866Y0046355D01*
X0238996Y0046592D01*
X0239132Y0046825D01*
X0239274Y0047055D01*
X0239421Y0047281D01*
X0239574Y0047504D01*
X0239732Y0047723D01*
X0239895Y0047938D01*
X0240064Y0048148D01*
X0240238Y0048355D01*
X0240417Y0048557D01*
X0240600Y0048755D01*
X0240789Y0048948D01*
X0240982Y0049137D01*
X0241180Y0049320D01*
X0241382Y0049499D01*
X0241589Y0049673D01*
X0241799Y0049842D01*
X0242014Y0050005D01*
X0242233Y0050163D01*
X0242456Y0050316D01*
X0242682Y0050463D01*
X0242912Y0050605D01*
X0243145Y0050741D01*
X0243382Y0050871D01*
X0243621Y0050995D01*
X0243864Y0051114D01*
X0244109Y0051226D01*
X0244357Y0051333D01*
X0244608Y0051433D01*
X0244861Y0051527D01*
X0245117Y0051615D01*
X0245374Y0051696D01*
X0245633Y0051772D01*
X0245894Y0051840D01*
X0246157Y0051903D01*
X0246421Y0051959D01*
X0246686Y0052008D01*
X0246953Y0052051D01*
X0247220Y0052087D01*
X0247489Y0052117D01*
X0247758Y0052140D01*
X0248027Y0052157D01*
X0248297Y0052167D01*
X0248567Y0052170D01*
X0248837Y0052167D01*
X0249107Y0052157D01*
X0249376Y0052140D01*
X0249645Y0052117D01*
X0249914Y0052087D01*
X0250181Y0052051D01*
X0250448Y0052008D01*
X0250713Y0051959D01*
X0250977Y0051903D01*
X0251240Y0051840D01*
X0251501Y0051772D01*
X0251760Y0051696D01*
X0252017Y0051615D01*
X0252273Y0051527D01*
X0252526Y0051433D01*
X0252777Y0051333D01*
X0253025Y0051226D01*
X0253270Y0051114D01*
X0253513Y0050995D01*
X0253752Y0050871D01*
X0253989Y0050741D01*
X0254222Y0050605D01*
X0254452Y0050463D01*
X0254678Y0050316D01*
X0254901Y0050163D01*
X0255120Y0050005D01*
X0255335Y0049842D01*
X0255545Y0049673D01*
X0255752Y0049499D01*
X0255954Y0049320D01*
X0256152Y0049137D01*
X0256345Y0048948D01*
X0256534Y0048755D01*
X0256717Y0048557D01*
X0256896Y0048355D01*
X0257070Y0048148D01*
X0257239Y0047938D01*
X0257402Y0047723D01*
X0257560Y0047504D01*
X0257713Y0047281D01*
X0257860Y0047055D01*
X0258002Y0046825D01*
X0258138Y0046592D01*
X0258268Y0046355D01*
X0258392Y0046116D01*
X0258511Y0045873D01*
X0258623Y0045628D01*
X0258730Y0045380D01*
X0258830Y0045129D01*
X0258924Y0044876D01*
X0259012Y0044620D01*
X0259093Y0044363D01*
X0259169Y0044104D01*
X0259237Y0043843D01*
X0259300Y0043580D01*
X0259356Y0043316D01*
X0259405Y0043051D01*
X0259448Y0042784D01*
X0259484Y0042517D01*
X0259514Y0042248D01*
X0259537Y0041979D01*
X0259554Y0041710D01*
X0259564Y0041440D01*
X0259567Y0041170D01*
X0259564Y0040900D01*
X0259554Y0040630D01*
X0259537Y0040361D01*
X0259514Y0040092D01*
X0259484Y0039823D01*
X0259448Y0039556D01*
X0259405Y0039289D01*
X0259356Y0039024D01*
X0259300Y0038760D01*
X0259237Y0038497D01*
X0259169Y0038236D01*
X0259093Y0037977D01*
X0259012Y0037720D01*
X0258924Y0037464D01*
X0258830Y0037211D01*
X0258730Y0036960D01*
X0258623Y0036712D01*
X0258511Y0036467D01*
X0258392Y0036224D01*
X0258268Y0035985D01*
X0258138Y0035748D01*
X0258002Y0035515D01*
X0257860Y0035285D01*
X0257713Y0035059D01*
X0257560Y0034836D01*
X0257402Y0034617D01*
X0257239Y0034402D01*
X0257070Y0034192D01*
X0256896Y0033985D01*
X0256717Y0033783D01*
X0256534Y0033585D01*
X0256345Y0033392D01*
X0256152Y0033203D01*
X0255954Y0033020D01*
X0255752Y0032841D01*
X0255545Y0032667D01*
X0255335Y0032498D01*
X0255120Y0032335D01*
X0254901Y0032177D01*
X0254678Y0032024D01*
X0254452Y0031877D01*
X0254222Y0031735D01*
X0253989Y0031599D01*
X0253752Y0031469D01*
X0253513Y0031345D01*
X0253270Y0031226D01*
X0253025Y0031114D01*
X0252777Y0031007D01*
X0252526Y0030907D01*
X0252273Y0030813D01*
X0252017Y0030725D01*
X0251760Y0030644D01*
X0251501Y0030568D01*
X0251240Y0030500D01*
X0250977Y0030437D01*
X0250713Y0030381D01*
X0250448Y0030332D01*
X0250181Y0030289D01*
X0249914Y0030253D01*
X0249645Y0030223D01*
X0249376Y0030200D01*
X0249107Y0030183D01*
X0248837Y0030173D01*
X0248567Y0030170D01*
X0248297Y0030173D01*
X0248027Y0030183D01*
X0247758Y0030200D01*
X0247489Y0030223D01*
X0247220Y0030253D01*
X0246953Y0030289D01*
X0246686Y0030332D01*
X0246421Y0030381D01*
X0246157Y0030437D01*
X0245894Y0030500D01*
X0245633Y0030568D01*
X0245374Y0030644D01*
X0245117Y0030725D01*
X0244861Y0030813D01*
X0244608Y0030907D01*
X0244357Y0031007D01*
X0244109Y0031114D01*
X0243864Y0031226D01*
X0243621Y0031345D01*
X0243382Y0031469D01*
X0243145Y0031599D01*
X0242912Y0031735D01*
X0242682Y0031877D01*
X0242456Y0032024D01*
X0242233Y0032177D01*
X0242014Y0032335D01*
X0241799Y0032498D01*
X0241589Y0032667D01*
X0241382Y0032841D01*
X0241180Y0033020D01*
X0240982Y0033203D01*
X0240789Y0033392D01*
X0240600Y0033585D01*
X0240417Y0033783D01*
X0240238Y0033985D01*
X0240064Y0034192D01*
X0239895Y0034402D01*
X0239732Y0034617D01*
X0239574Y0034836D01*
X0239421Y0035059D01*
X0239274Y0035285D01*
X0239132Y0035515D01*
X0238996Y0035748D01*
X0238866Y0035985D01*
X0238742Y0036224D01*
X0238623Y0036467D01*
X0238511Y0036712D01*
X0238404Y0036960D01*
X0238304Y0037211D01*
X0238210Y0037464D01*
X0238122Y0037720D01*
X0238041Y0037977D01*
X0237965Y0038236D01*
X0237897Y0038497D01*
X0237834Y0038760D01*
X0237778Y0039024D01*
X0237729Y0039289D01*
X0237686Y0039556D01*
X0237650Y0039823D01*
X0237620Y0040092D01*
X0237597Y0040361D01*
X0237580Y0040630D01*
X0237570Y0040900D01*
X0237567Y0041170D01*
X0253567Y0036170D02*
X0255567Y0036170D01*
X0254567Y0037170D02*
X0254567Y0035170D01*
X0100575Y0035422D02*
X0077662Y0035422D01*
X0077662Y0046918D02*
X0085119Y0046918D01*
X0085121Y0047044D01*
X0085127Y0047169D01*
X0085137Y0047294D01*
X0085151Y0047419D01*
X0085168Y0047544D01*
X0085190Y0047668D01*
X0085215Y0047791D01*
X0085245Y0047913D01*
X0085278Y0048034D01*
X0085315Y0048154D01*
X0085355Y0048273D01*
X0085400Y0048390D01*
X0085448Y0048507D01*
X0085500Y0048621D01*
X0085555Y0048734D01*
X0085614Y0048845D01*
X0085676Y0048954D01*
X0085742Y0049061D01*
X0085811Y0049166D01*
X0085883Y0049269D01*
X0085958Y0049370D01*
X0086037Y0049468D01*
X0086119Y0049563D01*
X0086203Y0049656D01*
X0086291Y0049746D01*
X0086381Y0049834D01*
X0086474Y0049918D01*
X0086569Y0050000D01*
X0086667Y0050079D01*
X0086768Y0050154D01*
X0086871Y0050226D01*
X0086976Y0050295D01*
X0087083Y0050361D01*
X0087192Y0050423D01*
X0087303Y0050482D01*
X0087416Y0050537D01*
X0087530Y0050589D01*
X0087647Y0050637D01*
X0087764Y0050682D01*
X0087883Y0050722D01*
X0088003Y0050759D01*
X0088124Y0050792D01*
X0088246Y0050822D01*
X0088369Y0050847D01*
X0088493Y0050869D01*
X0088618Y0050886D01*
X0088743Y0050900D01*
X0088868Y0050910D01*
X0088993Y0050916D01*
X0089119Y0050918D01*
X0089245Y0050916D01*
X0089370Y0050910D01*
X0089495Y0050900D01*
X0089620Y0050886D01*
X0089745Y0050869D01*
X0089869Y0050847D01*
X0089992Y0050822D01*
X0090114Y0050792D01*
X0090235Y0050759D01*
X0090355Y0050722D01*
X0090474Y0050682D01*
X0090591Y0050637D01*
X0090708Y0050589D01*
X0090822Y0050537D01*
X0090935Y0050482D01*
X0091046Y0050423D01*
X0091155Y0050361D01*
X0091262Y0050295D01*
X0091367Y0050226D01*
X0091470Y0050154D01*
X0091571Y0050079D01*
X0091669Y0050000D01*
X0091764Y0049918D01*
X0091857Y0049834D01*
X0091947Y0049746D01*
X0092035Y0049656D01*
X0092119Y0049563D01*
X0092201Y0049468D01*
X0092280Y0049370D01*
X0092355Y0049269D01*
X0092427Y0049166D01*
X0092496Y0049061D01*
X0092562Y0048954D01*
X0092624Y0048845D01*
X0092683Y0048734D01*
X0092738Y0048621D01*
X0092790Y0048507D01*
X0092838Y0048390D01*
X0092883Y0048273D01*
X0092923Y0048154D01*
X0092960Y0048034D01*
X0092993Y0047913D01*
X0093023Y0047791D01*
X0093048Y0047668D01*
X0093070Y0047544D01*
X0093087Y0047419D01*
X0093101Y0047294D01*
X0093111Y0047169D01*
X0093117Y0047044D01*
X0093119Y0046918D01*
X0100575Y0046918D01*
X0100575Y0015422D02*
X0093119Y0015422D01*
X0093117Y0015548D01*
X0093111Y0015673D01*
X0093101Y0015798D01*
X0093087Y0015923D01*
X0093070Y0016048D01*
X0093048Y0016172D01*
X0093023Y0016295D01*
X0092993Y0016417D01*
X0092960Y0016538D01*
X0092923Y0016658D01*
X0092883Y0016777D01*
X0092838Y0016894D01*
X0092790Y0017011D01*
X0092738Y0017125D01*
X0092683Y0017238D01*
X0092624Y0017349D01*
X0092562Y0017458D01*
X0092496Y0017565D01*
X0092427Y0017670D01*
X0092355Y0017773D01*
X0092280Y0017874D01*
X0092201Y0017972D01*
X0092119Y0018067D01*
X0092035Y0018160D01*
X0091947Y0018250D01*
X0091857Y0018338D01*
X0091764Y0018422D01*
X0091669Y0018504D01*
X0091571Y0018583D01*
X0091470Y0018658D01*
X0091367Y0018730D01*
X0091262Y0018799D01*
X0091155Y0018865D01*
X0091046Y0018927D01*
X0090935Y0018986D01*
X0090822Y0019041D01*
X0090708Y0019093D01*
X0090591Y0019141D01*
X0090474Y0019186D01*
X0090355Y0019226D01*
X0090235Y0019263D01*
X0090114Y0019296D01*
X0089992Y0019326D01*
X0089869Y0019351D01*
X0089745Y0019373D01*
X0089620Y0019390D01*
X0089495Y0019404D01*
X0089370Y0019414D01*
X0089245Y0019420D01*
X0089119Y0019422D01*
X0088993Y0019420D01*
X0088868Y0019414D01*
X0088743Y0019404D01*
X0088618Y0019390D01*
X0088493Y0019373D01*
X0088369Y0019351D01*
X0088246Y0019326D01*
X0088124Y0019296D01*
X0088003Y0019263D01*
X0087883Y0019226D01*
X0087764Y0019186D01*
X0087647Y0019141D01*
X0087530Y0019093D01*
X0087416Y0019041D01*
X0087303Y0018986D01*
X0087192Y0018927D01*
X0087083Y0018865D01*
X0086976Y0018799D01*
X0086871Y0018730D01*
X0086768Y0018658D01*
X0086667Y0018583D01*
X0086569Y0018504D01*
X0086474Y0018422D01*
X0086381Y0018338D01*
X0086291Y0018250D01*
X0086203Y0018160D01*
X0086119Y0018067D01*
X0086037Y0017972D01*
X0085958Y0017874D01*
X0085883Y0017773D01*
X0085811Y0017670D01*
X0085742Y0017565D01*
X0085676Y0017458D01*
X0085614Y0017349D01*
X0085555Y0017238D01*
X0085500Y0017125D01*
X0085448Y0017011D01*
X0085400Y0016894D01*
X0085355Y0016777D01*
X0085315Y0016658D01*
X0085278Y0016538D01*
X0085245Y0016417D01*
X0085215Y0016295D01*
X0085190Y0016172D01*
X0085168Y0016048D01*
X0085151Y0015923D01*
X0085137Y0015798D01*
X0085127Y0015673D01*
X0085121Y0015548D01*
X0085119Y0015422D01*
X0077662Y0015422D01*
X0029843Y0064777D02*
X0029845Y0064866D01*
X0029851Y0064955D01*
X0029861Y0065044D01*
X0029875Y0065132D01*
X0029892Y0065219D01*
X0029914Y0065305D01*
X0029940Y0065391D01*
X0029969Y0065475D01*
X0030002Y0065558D01*
X0030038Y0065639D01*
X0030079Y0065719D01*
X0030122Y0065796D01*
X0030169Y0065872D01*
X0030220Y0065945D01*
X0030273Y0066016D01*
X0030330Y0066085D01*
X0030390Y0066151D01*
X0030453Y0066215D01*
X0030518Y0066275D01*
X0030586Y0066333D01*
X0030657Y0066387D01*
X0030730Y0066438D01*
X0030805Y0066486D01*
X0030882Y0066531D01*
X0030961Y0066572D01*
X0031042Y0066609D01*
X0031124Y0066643D01*
X0031208Y0066674D01*
X0031293Y0066700D01*
X0031379Y0066723D01*
X0031466Y0066741D01*
X0031554Y0066756D01*
X0031643Y0066767D01*
X0031732Y0066774D01*
X0031821Y0066777D01*
X0031910Y0066776D01*
X0031999Y0066771D01*
X0032087Y0066762D01*
X0032176Y0066749D01*
X0032263Y0066732D01*
X0032350Y0066712D01*
X0032436Y0066687D01*
X0032520Y0066659D01*
X0032603Y0066627D01*
X0032685Y0066591D01*
X0032765Y0066552D01*
X0032843Y0066509D01*
X0032919Y0066463D01*
X0032993Y0066413D01*
X0033065Y0066360D01*
X0033134Y0066304D01*
X0033201Y0066245D01*
X0033265Y0066183D01*
X0033326Y0066119D01*
X0033385Y0066051D01*
X0033440Y0065981D01*
X0033492Y0065909D01*
X0033541Y0065834D01*
X0033586Y0065758D01*
X0033628Y0065679D01*
X0033666Y0065599D01*
X0033701Y0065517D01*
X0033732Y0065433D01*
X0033760Y0065348D01*
X0033783Y0065262D01*
X0033803Y0065175D01*
X0033819Y0065088D01*
X0033831Y0064999D01*
X0033839Y0064911D01*
X0033843Y0064822D01*
X0033843Y0064732D01*
X0033839Y0064643D01*
X0033831Y0064555D01*
X0033819Y0064466D01*
X0033803Y0064379D01*
X0033783Y0064292D01*
X0033760Y0064206D01*
X0033732Y0064121D01*
X0033701Y0064037D01*
X0033666Y0063955D01*
X0033628Y0063875D01*
X0033586Y0063796D01*
X0033541Y0063720D01*
X0033492Y0063645D01*
X0033440Y0063573D01*
X0033385Y0063503D01*
X0033326Y0063435D01*
X0033265Y0063371D01*
X0033201Y0063309D01*
X0033134Y0063250D01*
X0033065Y0063194D01*
X0032993Y0063141D01*
X0032919Y0063091D01*
X0032843Y0063045D01*
X0032765Y0063002D01*
X0032685Y0062963D01*
X0032603Y0062927D01*
X0032520Y0062895D01*
X0032436Y0062867D01*
X0032350Y0062842D01*
X0032263Y0062822D01*
X0032176Y0062805D01*
X0032087Y0062792D01*
X0031999Y0062783D01*
X0031910Y0062778D01*
X0031821Y0062777D01*
X0031732Y0062780D01*
X0031643Y0062787D01*
X0031554Y0062798D01*
X0031466Y0062813D01*
X0031379Y0062831D01*
X0031293Y0062854D01*
X0031208Y0062880D01*
X0031124Y0062911D01*
X0031042Y0062945D01*
X0030961Y0062982D01*
X0030882Y0063023D01*
X0030805Y0063068D01*
X0030730Y0063116D01*
X0030657Y0063167D01*
X0030586Y0063221D01*
X0030518Y0063279D01*
X0030453Y0063339D01*
X0030390Y0063403D01*
X0030330Y0063469D01*
X0030273Y0063538D01*
X0030220Y0063609D01*
X0030169Y0063682D01*
X0030122Y0063758D01*
X0030079Y0063835D01*
X0030038Y0063915D01*
X0030002Y0063996D01*
X0029969Y0064079D01*
X0029940Y0064163D01*
X0029914Y0064249D01*
X0029892Y0064335D01*
X0029875Y0064422D01*
X0029861Y0064510D01*
X0029851Y0064599D01*
X0029845Y0064688D01*
X0029843Y0064777D01*
X0028343Y0074677D02*
X0028343Y0133777D01*
X0035343Y0133777D01*
X0029843Y0123877D02*
X0029845Y0123966D01*
X0029851Y0124055D01*
X0029861Y0124144D01*
X0029875Y0124232D01*
X0029892Y0124319D01*
X0029914Y0124405D01*
X0029940Y0124491D01*
X0029969Y0124575D01*
X0030002Y0124658D01*
X0030038Y0124739D01*
X0030079Y0124819D01*
X0030122Y0124896D01*
X0030169Y0124972D01*
X0030220Y0125045D01*
X0030273Y0125116D01*
X0030330Y0125185D01*
X0030390Y0125251D01*
X0030453Y0125315D01*
X0030518Y0125375D01*
X0030586Y0125433D01*
X0030657Y0125487D01*
X0030730Y0125538D01*
X0030805Y0125586D01*
X0030882Y0125631D01*
X0030961Y0125672D01*
X0031042Y0125709D01*
X0031124Y0125743D01*
X0031208Y0125774D01*
X0031293Y0125800D01*
X0031379Y0125823D01*
X0031466Y0125841D01*
X0031554Y0125856D01*
X0031643Y0125867D01*
X0031732Y0125874D01*
X0031821Y0125877D01*
X0031910Y0125876D01*
X0031999Y0125871D01*
X0032087Y0125862D01*
X0032176Y0125849D01*
X0032263Y0125832D01*
X0032350Y0125812D01*
X0032436Y0125787D01*
X0032520Y0125759D01*
X0032603Y0125727D01*
X0032685Y0125691D01*
X0032765Y0125652D01*
X0032843Y0125609D01*
X0032919Y0125563D01*
X0032993Y0125513D01*
X0033065Y0125460D01*
X0033134Y0125404D01*
X0033201Y0125345D01*
X0033265Y0125283D01*
X0033326Y0125219D01*
X0033385Y0125151D01*
X0033440Y0125081D01*
X0033492Y0125009D01*
X0033541Y0124934D01*
X0033586Y0124858D01*
X0033628Y0124779D01*
X0033666Y0124699D01*
X0033701Y0124617D01*
X0033732Y0124533D01*
X0033760Y0124448D01*
X0033783Y0124362D01*
X0033803Y0124275D01*
X0033819Y0124188D01*
X0033831Y0124099D01*
X0033839Y0124011D01*
X0033843Y0123922D01*
X0033843Y0123832D01*
X0033839Y0123743D01*
X0033831Y0123655D01*
X0033819Y0123566D01*
X0033803Y0123479D01*
X0033783Y0123392D01*
X0033760Y0123306D01*
X0033732Y0123221D01*
X0033701Y0123137D01*
X0033666Y0123055D01*
X0033628Y0122975D01*
X0033586Y0122896D01*
X0033541Y0122820D01*
X0033492Y0122745D01*
X0033440Y0122673D01*
X0033385Y0122603D01*
X0033326Y0122535D01*
X0033265Y0122471D01*
X0033201Y0122409D01*
X0033134Y0122350D01*
X0033065Y0122294D01*
X0032993Y0122241D01*
X0032919Y0122191D01*
X0032843Y0122145D01*
X0032765Y0122102D01*
X0032685Y0122063D01*
X0032603Y0122027D01*
X0032520Y0121995D01*
X0032436Y0121967D01*
X0032350Y0121942D01*
X0032263Y0121922D01*
X0032176Y0121905D01*
X0032087Y0121892D01*
X0031999Y0121883D01*
X0031910Y0121878D01*
X0031821Y0121877D01*
X0031732Y0121880D01*
X0031643Y0121887D01*
X0031554Y0121898D01*
X0031466Y0121913D01*
X0031379Y0121931D01*
X0031293Y0121954D01*
X0031208Y0121980D01*
X0031124Y0122011D01*
X0031042Y0122045D01*
X0030961Y0122082D01*
X0030882Y0122123D01*
X0030805Y0122168D01*
X0030730Y0122216D01*
X0030657Y0122267D01*
X0030586Y0122321D01*
X0030518Y0122379D01*
X0030453Y0122439D01*
X0030390Y0122503D01*
X0030330Y0122569D01*
X0030273Y0122638D01*
X0030220Y0122709D01*
X0030169Y0122782D01*
X0030122Y0122858D01*
X0030079Y0122935D01*
X0030038Y0123015D01*
X0030002Y0123096D01*
X0029969Y0123179D01*
X0029940Y0123263D01*
X0029914Y0123349D01*
X0029892Y0123435D01*
X0029875Y0123522D01*
X0029861Y0123610D01*
X0029851Y0123699D01*
X0029845Y0123788D01*
X0029843Y0123877D01*
X0029843Y0104177D02*
X0029845Y0104266D01*
X0029851Y0104355D01*
X0029861Y0104444D01*
X0029875Y0104532D01*
X0029892Y0104619D01*
X0029914Y0104705D01*
X0029940Y0104791D01*
X0029969Y0104875D01*
X0030002Y0104958D01*
X0030038Y0105039D01*
X0030079Y0105119D01*
X0030122Y0105196D01*
X0030169Y0105272D01*
X0030220Y0105345D01*
X0030273Y0105416D01*
X0030330Y0105485D01*
X0030390Y0105551D01*
X0030453Y0105615D01*
X0030518Y0105675D01*
X0030586Y0105733D01*
X0030657Y0105787D01*
X0030730Y0105838D01*
X0030805Y0105886D01*
X0030882Y0105931D01*
X0030961Y0105972D01*
X0031042Y0106009D01*
X0031124Y0106043D01*
X0031208Y0106074D01*
X0031293Y0106100D01*
X0031379Y0106123D01*
X0031466Y0106141D01*
X0031554Y0106156D01*
X0031643Y0106167D01*
X0031732Y0106174D01*
X0031821Y0106177D01*
X0031910Y0106176D01*
X0031999Y0106171D01*
X0032087Y0106162D01*
X0032176Y0106149D01*
X0032263Y0106132D01*
X0032350Y0106112D01*
X0032436Y0106087D01*
X0032520Y0106059D01*
X0032603Y0106027D01*
X0032685Y0105991D01*
X0032765Y0105952D01*
X0032843Y0105909D01*
X0032919Y0105863D01*
X0032993Y0105813D01*
X0033065Y0105760D01*
X0033134Y0105704D01*
X0033201Y0105645D01*
X0033265Y0105583D01*
X0033326Y0105519D01*
X0033385Y0105451D01*
X0033440Y0105381D01*
X0033492Y0105309D01*
X0033541Y0105234D01*
X0033586Y0105158D01*
X0033628Y0105079D01*
X0033666Y0104999D01*
X0033701Y0104917D01*
X0033732Y0104833D01*
X0033760Y0104748D01*
X0033783Y0104662D01*
X0033803Y0104575D01*
X0033819Y0104488D01*
X0033831Y0104399D01*
X0033839Y0104311D01*
X0033843Y0104222D01*
X0033843Y0104132D01*
X0033839Y0104043D01*
X0033831Y0103955D01*
X0033819Y0103866D01*
X0033803Y0103779D01*
X0033783Y0103692D01*
X0033760Y0103606D01*
X0033732Y0103521D01*
X0033701Y0103437D01*
X0033666Y0103355D01*
X0033628Y0103275D01*
X0033586Y0103196D01*
X0033541Y0103120D01*
X0033492Y0103045D01*
X0033440Y0102973D01*
X0033385Y0102903D01*
X0033326Y0102835D01*
X0033265Y0102771D01*
X0033201Y0102709D01*
X0033134Y0102650D01*
X0033065Y0102594D01*
X0032993Y0102541D01*
X0032919Y0102491D01*
X0032843Y0102445D01*
X0032765Y0102402D01*
X0032685Y0102363D01*
X0032603Y0102327D01*
X0032520Y0102295D01*
X0032436Y0102267D01*
X0032350Y0102242D01*
X0032263Y0102222D01*
X0032176Y0102205D01*
X0032087Y0102192D01*
X0031999Y0102183D01*
X0031910Y0102178D01*
X0031821Y0102177D01*
X0031732Y0102180D01*
X0031643Y0102187D01*
X0031554Y0102198D01*
X0031466Y0102213D01*
X0031379Y0102231D01*
X0031293Y0102254D01*
X0031208Y0102280D01*
X0031124Y0102311D01*
X0031042Y0102345D01*
X0030961Y0102382D01*
X0030882Y0102423D01*
X0030805Y0102468D01*
X0030730Y0102516D01*
X0030657Y0102567D01*
X0030586Y0102621D01*
X0030518Y0102679D01*
X0030453Y0102739D01*
X0030390Y0102803D01*
X0030330Y0102869D01*
X0030273Y0102938D01*
X0030220Y0103009D01*
X0030169Y0103082D01*
X0030122Y0103158D01*
X0030079Y0103235D01*
X0030038Y0103315D01*
X0030002Y0103396D01*
X0029969Y0103479D01*
X0029940Y0103563D01*
X0029914Y0103649D01*
X0029892Y0103735D01*
X0029875Y0103822D01*
X0029861Y0103910D01*
X0029851Y0103999D01*
X0029845Y0104088D01*
X0029843Y0104177D01*
X0029843Y0084477D02*
X0029845Y0084566D01*
X0029851Y0084655D01*
X0029861Y0084744D01*
X0029875Y0084832D01*
X0029892Y0084919D01*
X0029914Y0085005D01*
X0029940Y0085091D01*
X0029969Y0085175D01*
X0030002Y0085258D01*
X0030038Y0085339D01*
X0030079Y0085419D01*
X0030122Y0085496D01*
X0030169Y0085572D01*
X0030220Y0085645D01*
X0030273Y0085716D01*
X0030330Y0085785D01*
X0030390Y0085851D01*
X0030453Y0085915D01*
X0030518Y0085975D01*
X0030586Y0086033D01*
X0030657Y0086087D01*
X0030730Y0086138D01*
X0030805Y0086186D01*
X0030882Y0086231D01*
X0030961Y0086272D01*
X0031042Y0086309D01*
X0031124Y0086343D01*
X0031208Y0086374D01*
X0031293Y0086400D01*
X0031379Y0086423D01*
X0031466Y0086441D01*
X0031554Y0086456D01*
X0031643Y0086467D01*
X0031732Y0086474D01*
X0031821Y0086477D01*
X0031910Y0086476D01*
X0031999Y0086471D01*
X0032087Y0086462D01*
X0032176Y0086449D01*
X0032263Y0086432D01*
X0032350Y0086412D01*
X0032436Y0086387D01*
X0032520Y0086359D01*
X0032603Y0086327D01*
X0032685Y0086291D01*
X0032765Y0086252D01*
X0032843Y0086209D01*
X0032919Y0086163D01*
X0032993Y0086113D01*
X0033065Y0086060D01*
X0033134Y0086004D01*
X0033201Y0085945D01*
X0033265Y0085883D01*
X0033326Y0085819D01*
X0033385Y0085751D01*
X0033440Y0085681D01*
X0033492Y0085609D01*
X0033541Y0085534D01*
X0033586Y0085458D01*
X0033628Y0085379D01*
X0033666Y0085299D01*
X0033701Y0085217D01*
X0033732Y0085133D01*
X0033760Y0085048D01*
X0033783Y0084962D01*
X0033803Y0084875D01*
X0033819Y0084788D01*
X0033831Y0084699D01*
X0033839Y0084611D01*
X0033843Y0084522D01*
X0033843Y0084432D01*
X0033839Y0084343D01*
X0033831Y0084255D01*
X0033819Y0084166D01*
X0033803Y0084079D01*
X0033783Y0083992D01*
X0033760Y0083906D01*
X0033732Y0083821D01*
X0033701Y0083737D01*
X0033666Y0083655D01*
X0033628Y0083575D01*
X0033586Y0083496D01*
X0033541Y0083420D01*
X0033492Y0083345D01*
X0033440Y0083273D01*
X0033385Y0083203D01*
X0033326Y0083135D01*
X0033265Y0083071D01*
X0033201Y0083009D01*
X0033134Y0082950D01*
X0033065Y0082894D01*
X0032993Y0082841D01*
X0032919Y0082791D01*
X0032843Y0082745D01*
X0032765Y0082702D01*
X0032685Y0082663D01*
X0032603Y0082627D01*
X0032520Y0082595D01*
X0032436Y0082567D01*
X0032350Y0082542D01*
X0032263Y0082522D01*
X0032176Y0082505D01*
X0032087Y0082492D01*
X0031999Y0082483D01*
X0031910Y0082478D01*
X0031821Y0082477D01*
X0031732Y0082480D01*
X0031643Y0082487D01*
X0031554Y0082498D01*
X0031466Y0082513D01*
X0031379Y0082531D01*
X0031293Y0082554D01*
X0031208Y0082580D01*
X0031124Y0082611D01*
X0031042Y0082645D01*
X0030961Y0082682D01*
X0030882Y0082723D01*
X0030805Y0082768D01*
X0030730Y0082816D01*
X0030657Y0082867D01*
X0030586Y0082921D01*
X0030518Y0082979D01*
X0030453Y0083039D01*
X0030390Y0083103D01*
X0030330Y0083169D01*
X0030273Y0083238D01*
X0030220Y0083309D01*
X0030169Y0083382D01*
X0030122Y0083458D01*
X0030079Y0083535D01*
X0030038Y0083615D01*
X0030002Y0083696D01*
X0029969Y0083779D01*
X0029940Y0083863D01*
X0029914Y0083949D01*
X0029892Y0084035D01*
X0029875Y0084122D01*
X0029861Y0084210D01*
X0029851Y0084299D01*
X0029845Y0084388D01*
X0029843Y0084477D01*
D11*
X0068182Y0103398D02*
X0068182Y0108002D01*
X0070484Y0108002D01*
X0071251Y0107234D01*
X0071251Y0105700D01*
X0070484Y0104932D01*
X0068182Y0104932D01*
X0069716Y0104932D02*
X0071251Y0103398D01*
X0072786Y0104165D02*
X0072786Y0104932D01*
X0073553Y0105700D01*
X0075088Y0105700D01*
X0075855Y0104932D01*
X0075855Y0104165D01*
X0075088Y0103398D01*
X0073553Y0103398D01*
X0072786Y0104165D01*
X0073553Y0105700D02*
X0072786Y0106467D01*
X0072786Y0107234D01*
X0073553Y0108002D01*
X0075088Y0108002D01*
X0075855Y0107234D01*
X0075855Y0106467D01*
X0075088Y0105700D01*
X0121720Y0071643D02*
X0124022Y0071643D01*
X0124789Y0070876D01*
X0124789Y0069341D01*
X0124022Y0068574D01*
X0121720Y0068574D01*
X0121720Y0067039D02*
X0121720Y0071643D01*
X0123255Y0068574D02*
X0124789Y0067039D01*
X0126324Y0067039D02*
X0129393Y0067039D01*
X0127859Y0067039D02*
X0127859Y0071643D01*
X0126324Y0070109D01*
X0130928Y0070876D02*
X0130928Y0067807D01*
X0133997Y0070876D01*
X0133997Y0067807D01*
X0133230Y0067039D01*
X0131695Y0067039D01*
X0130928Y0067807D01*
X0130928Y0070876D02*
X0131695Y0071643D01*
X0133230Y0071643D01*
X0133997Y0070876D01*
X0160063Y0065702D02*
X0160063Y0062632D01*
X0162365Y0062632D01*
X0161597Y0064167D01*
X0161597Y0064934D01*
X0162365Y0065702D01*
X0163899Y0065702D01*
X0164667Y0064934D01*
X0164667Y0063400D01*
X0163899Y0062632D01*
X0164667Y0061098D02*
X0163132Y0059563D01*
X0163132Y0060330D02*
X0163132Y0058028D01*
X0164667Y0058028D02*
X0160063Y0058028D01*
X0160063Y0060330D01*
X0160830Y0061098D01*
X0162365Y0061098D01*
X0163132Y0060330D01*
X0179846Y0060626D02*
X0179846Y0058324D01*
X0184450Y0058324D01*
X0182915Y0058324D02*
X0182915Y0060626D01*
X0182148Y0061393D01*
X0180614Y0061393D01*
X0179846Y0060626D01*
X0182915Y0059858D02*
X0184450Y0061393D01*
X0182148Y0062928D02*
X0182148Y0065997D01*
X0179846Y0065230D02*
X0182148Y0062928D01*
X0184450Y0065230D02*
X0179846Y0065230D01*
X0189059Y0060776D02*
X0189826Y0060776D01*
X0192895Y0057706D01*
X0193663Y0057706D01*
X0192895Y0056172D02*
X0193663Y0055404D01*
X0193663Y0053870D01*
X0192895Y0053102D01*
X0189826Y0053102D01*
X0189059Y0053870D01*
X0189059Y0055404D01*
X0189826Y0056172D01*
X0189059Y0057706D02*
X0189059Y0060776D01*
X0203586Y0074638D02*
X0206655Y0074638D01*
X0207423Y0075405D01*
X0207423Y0076940D01*
X0206655Y0077707D01*
X0207423Y0079242D02*
X0204353Y0082311D01*
X0203586Y0082311D01*
X0202819Y0081544D01*
X0202819Y0080009D01*
X0203586Y0079242D01*
X0203586Y0077707D02*
X0202819Y0076940D01*
X0202819Y0075405D01*
X0203586Y0074638D01*
X0207423Y0079242D02*
X0207423Y0082311D01*
X0220456Y0072887D02*
X0221224Y0073654D01*
X0221991Y0073654D01*
X0222758Y0072887D01*
X0223526Y0073654D01*
X0224293Y0073654D01*
X0225060Y0072887D01*
X0225060Y0071352D01*
X0224293Y0070585D01*
X0224293Y0069050D02*
X0225060Y0068283D01*
X0225060Y0066748D01*
X0224293Y0065981D01*
X0221224Y0065981D01*
X0220456Y0066748D01*
X0220456Y0068283D01*
X0221224Y0069050D01*
X0221224Y0070585D02*
X0220456Y0071352D01*
X0220456Y0072887D01*
X0222758Y0072887D02*
X0222758Y0072120D01*
X0235750Y0067932D02*
X0236350Y0068532D01*
X0237551Y0068532D01*
X0238152Y0067932D01*
X0238152Y0067331D01*
X0237551Y0066731D01*
X0238152Y0066130D01*
X0238152Y0065530D01*
X0237551Y0064929D01*
X0236350Y0064929D01*
X0235750Y0065530D01*
X0236951Y0066731D02*
X0237551Y0066731D01*
X0239433Y0066130D02*
X0240634Y0064929D01*
X0241835Y0066130D01*
X0241835Y0068532D01*
X0243116Y0067932D02*
X0243716Y0068532D01*
X0244917Y0068532D01*
X0245518Y0067932D01*
X0245518Y0067331D01*
X0244917Y0066731D01*
X0245518Y0066130D01*
X0245518Y0065530D01*
X0244917Y0064929D01*
X0243716Y0064929D01*
X0243116Y0065530D01*
X0244317Y0066731D02*
X0244917Y0066731D01*
X0239433Y0066130D02*
X0239433Y0068532D01*
X0238941Y0073295D02*
X0240742Y0073295D01*
X0241343Y0073896D01*
X0241343Y0076298D01*
X0240742Y0076898D01*
X0238941Y0076898D01*
X0238941Y0073295D01*
X0242624Y0073896D02*
X0243224Y0073295D01*
X0244425Y0073295D01*
X0245026Y0073896D01*
X0245026Y0076298D01*
X0244425Y0076898D01*
X0243224Y0076898D01*
X0242624Y0076298D01*
X0242624Y0075697D01*
X0243224Y0075097D01*
X0245026Y0075097D01*
X0244917Y0083138D02*
X0243116Y0083138D01*
X0243116Y0086741D01*
X0244917Y0086741D01*
X0245518Y0086140D01*
X0245518Y0083738D01*
X0244917Y0083138D01*
X0241835Y0083138D02*
X0241835Y0086741D01*
X0239433Y0086741D02*
X0241835Y0083138D01*
X0239433Y0083138D02*
X0239433Y0086741D01*
X0238152Y0086140D02*
X0237551Y0086741D01*
X0236350Y0086741D01*
X0235750Y0086140D01*
X0235750Y0083738D01*
X0236350Y0083138D01*
X0237551Y0083138D01*
X0238152Y0083738D01*
X0238152Y0084939D01*
X0236951Y0084939D01*
X0237195Y0101409D02*
X0238396Y0101409D01*
X0237795Y0101409D02*
X0237795Y0105013D01*
X0237195Y0105013D02*
X0238396Y0105013D01*
X0239650Y0104412D02*
X0239650Y0103811D01*
X0240251Y0103211D01*
X0241452Y0103211D01*
X0242052Y0102610D01*
X0242052Y0102010D01*
X0241452Y0101409D01*
X0240251Y0101409D01*
X0239650Y0102010D01*
X0239650Y0104412D02*
X0240251Y0105013D01*
X0241452Y0105013D01*
X0242052Y0104412D01*
X0243333Y0104412D02*
X0243333Y0102010D01*
X0243934Y0101409D01*
X0245135Y0101409D01*
X0245735Y0102010D01*
X0245735Y0104412D01*
X0245135Y0105013D01*
X0243934Y0105013D01*
X0243333Y0104412D01*
X0235914Y0105013D02*
X0235914Y0101409D01*
X0233512Y0101409D02*
X0233512Y0105013D01*
X0234713Y0103811D01*
X0235914Y0105013D01*
X0235914Y0114008D02*
X0235914Y0117611D01*
X0234713Y0116410D01*
X0233512Y0117611D01*
X0233512Y0114008D01*
X0237195Y0114608D02*
X0237795Y0114008D01*
X0238996Y0114008D01*
X0239597Y0114608D01*
X0239597Y0117010D01*
X0238996Y0117611D01*
X0237795Y0117611D01*
X0237195Y0117010D01*
X0237195Y0114608D01*
X0240878Y0114608D02*
X0241478Y0114008D01*
X0242679Y0114008D01*
X0243280Y0114608D01*
X0243280Y0115209D01*
X0242679Y0115809D01*
X0241478Y0115809D01*
X0240878Y0116410D01*
X0240878Y0117010D01*
X0241478Y0117611D01*
X0242679Y0117611D01*
X0243280Y0117010D01*
X0244561Y0117611D02*
X0245762Y0117611D01*
X0245161Y0117611D02*
X0245161Y0114008D01*
X0244561Y0114008D02*
X0245762Y0114008D01*
X0246725Y0127787D02*
X0244923Y0129589D01*
X0244323Y0128988D02*
X0246725Y0131390D01*
X0244323Y0131390D02*
X0244323Y0127787D01*
X0243042Y0128388D02*
X0242441Y0127787D01*
X0241240Y0127787D01*
X0240640Y0128388D01*
X0240640Y0130790D01*
X0241240Y0131390D01*
X0242441Y0131390D01*
X0243042Y0130790D01*
X0239358Y0130790D02*
X0238758Y0131390D01*
X0237557Y0131390D01*
X0236956Y0130790D01*
X0236956Y0130189D01*
X0237557Y0129589D01*
X0238758Y0129589D01*
X0239358Y0128988D01*
X0239358Y0128388D01*
X0238758Y0127787D01*
X0237557Y0127787D01*
X0236956Y0128388D01*
X0248275Y0141272D02*
X0250077Y0141272D01*
X0250677Y0141872D01*
X0250677Y0144274D01*
X0250077Y0144875D01*
X0248275Y0144875D01*
X0248275Y0141272D01*
X0251958Y0141272D02*
X0254361Y0141272D01*
X0253159Y0141272D02*
X0253159Y0144875D01*
X0251958Y0143674D01*
X0255642Y0144274D02*
X0255642Y0141872D01*
X0258044Y0144274D01*
X0258044Y0141872D01*
X0257443Y0141272D01*
X0256242Y0141272D01*
X0255642Y0141872D01*
X0255642Y0144274D02*
X0256242Y0144875D01*
X0257443Y0144875D01*
X0258044Y0144274D01*
X0244430Y0148850D02*
X0244430Y0151920D01*
X0244430Y0153454D02*
X0244430Y0156524D01*
X0244430Y0154989D02*
X0239827Y0154989D01*
X0241361Y0153454D01*
X0239827Y0148850D02*
X0244430Y0148850D01*
X0235417Y0157098D02*
X0233883Y0157098D01*
X0233115Y0157866D01*
X0231581Y0157866D02*
X0230813Y0157098D01*
X0229279Y0157098D01*
X0228512Y0157866D01*
X0228512Y0160935D01*
X0229279Y0161702D01*
X0230813Y0161702D01*
X0231581Y0160935D01*
X0233115Y0161702D02*
X0233115Y0159400D01*
X0234650Y0160168D01*
X0235417Y0160168D01*
X0236185Y0159400D01*
X0236185Y0157866D01*
X0235417Y0157098D01*
X0236185Y0161702D02*
X0233115Y0161702D01*
X0186694Y0159300D02*
X0182090Y0159300D01*
X0184392Y0156998D01*
X0184392Y0160067D01*
X0182858Y0155463D02*
X0182090Y0154696D01*
X0182090Y0153161D01*
X0182858Y0152394D01*
X0185927Y0152394D01*
X0186694Y0153161D01*
X0186694Y0154696D01*
X0185927Y0155463D01*
X0152110Y0155051D02*
X0149041Y0155051D01*
X0150575Y0155051D02*
X0150575Y0159655D01*
X0149041Y0158120D01*
X0147506Y0158888D02*
X0146739Y0159655D01*
X0145204Y0159655D01*
X0144437Y0158888D01*
X0144437Y0158120D01*
X0145204Y0157353D01*
X0146739Y0157353D01*
X0147506Y0156586D01*
X0147506Y0155818D01*
X0146739Y0155051D01*
X0145204Y0155051D01*
X0144437Y0155818D01*
X0144949Y0123080D02*
X0143415Y0122313D01*
X0141880Y0120778D01*
X0144182Y0120778D01*
X0144949Y0120011D01*
X0144949Y0119244D01*
X0144182Y0118476D01*
X0142647Y0118476D01*
X0141880Y0119244D01*
X0141880Y0120778D01*
X0140345Y0120778D02*
X0139578Y0120011D01*
X0137276Y0120011D01*
X0137276Y0118476D02*
X0137276Y0123080D01*
X0139578Y0123080D01*
X0140345Y0122313D01*
X0140345Y0120778D01*
X0138811Y0120011D02*
X0140345Y0118476D01*
X0157453Y0118476D02*
X0157453Y0123080D01*
X0159755Y0123080D01*
X0160523Y0122313D01*
X0160523Y0120778D01*
X0159755Y0120011D01*
X0157453Y0120011D01*
X0158988Y0120011D02*
X0160523Y0118476D01*
X0162057Y0118476D02*
X0165126Y0118476D01*
X0163592Y0118476D02*
X0163592Y0123080D01*
X0162057Y0121546D01*
X0160198Y0107528D02*
X0160198Y0104458D01*
X0160198Y0105993D02*
X0155594Y0105993D01*
X0157129Y0104458D01*
X0156362Y0102924D02*
X0155594Y0102156D01*
X0155594Y0100622D01*
X0156362Y0099854D01*
X0159431Y0099854D01*
X0160198Y0100622D01*
X0160198Y0102156D01*
X0159431Y0102924D01*
X0160439Y0093198D02*
X0158138Y0093198D01*
X0158138Y0088594D01*
X0158138Y0090129D02*
X0160439Y0090129D01*
X0161207Y0090896D01*
X0161207Y0092431D01*
X0160439Y0093198D01*
X0162741Y0092431D02*
X0163509Y0093198D01*
X0165043Y0093198D01*
X0165811Y0092431D01*
X0165811Y0091664D01*
X0165043Y0090896D01*
X0165811Y0090129D01*
X0165811Y0089362D01*
X0165043Y0088594D01*
X0163509Y0088594D01*
X0162741Y0089362D01*
X0161207Y0088594D02*
X0159672Y0090129D01*
X0164276Y0090896D02*
X0165043Y0090896D01*
X0131872Y0038395D02*
X0131872Y0033791D01*
X0130337Y0033791D02*
X0133407Y0033791D01*
X0130337Y0036861D02*
X0131872Y0038395D01*
X0127268Y0038395D02*
X0127268Y0033791D01*
X0125734Y0033791D02*
X0128803Y0033791D01*
X0125734Y0036861D02*
X0127268Y0038395D01*
X0124199Y0037628D02*
X0124199Y0036093D01*
X0123432Y0035326D01*
X0121130Y0035326D01*
X0122664Y0035326D02*
X0124199Y0033791D01*
X0121130Y0033791D02*
X0121130Y0038395D01*
X0123432Y0038395D01*
X0124199Y0037628D01*
X0145150Y0015403D02*
X0147452Y0015403D01*
X0148219Y0014636D01*
X0148219Y0013101D01*
X0147452Y0012334D01*
X0145150Y0012334D01*
X0146685Y0012334D02*
X0148219Y0010799D01*
X0149754Y0010799D02*
X0152823Y0013868D01*
X0152823Y0014636D01*
X0152056Y0015403D01*
X0150521Y0015403D01*
X0149754Y0014636D01*
X0145150Y0015403D02*
X0145150Y0010799D01*
X0149754Y0010799D02*
X0152823Y0010799D01*
X0234787Y0013365D02*
X0234787Y0015667D01*
X0235554Y0016435D01*
X0237089Y0016435D01*
X0237856Y0015667D01*
X0237856Y0013365D01*
X0237856Y0014900D02*
X0239391Y0016435D01*
X0239391Y0017969D02*
X0239391Y0021039D01*
X0239391Y0019504D02*
X0234787Y0019504D01*
X0236322Y0017969D01*
X0234787Y0013365D02*
X0239391Y0013365D01*
X0238624Y0022573D02*
X0239391Y0023341D01*
X0239391Y0024875D01*
X0238624Y0025642D01*
X0237089Y0025642D01*
X0236322Y0024875D01*
X0236322Y0024108D01*
X0237089Y0022573D01*
X0234787Y0022573D01*
X0234787Y0025642D01*
D12*
X0233540Y0031221D02*
X0224225Y0031221D01*
X0224225Y0011749D01*
X0233540Y0011749D01*
X0233540Y0031221D01*
X0211060Y0053048D02*
X0211060Y0060788D01*
X0195524Y0060788D01*
X0195524Y0053048D01*
X0211060Y0053048D01*
X0211233Y0064898D02*
X0218973Y0064898D01*
X0218973Y0080434D01*
X0211233Y0080434D01*
X0211233Y0064898D01*
X0201256Y0064898D02*
X0193516Y0064898D01*
X0193516Y0080434D01*
X0201256Y0080434D01*
X0201256Y0064898D01*
X0178422Y0074528D02*
X0178422Y0055056D01*
X0169107Y0055056D01*
X0169107Y0074528D01*
X0178422Y0074528D01*
X0173658Y0077851D02*
X0154186Y0077851D01*
X0154186Y0087166D01*
X0173658Y0087166D01*
X0173658Y0077851D01*
X0158737Y0074528D02*
X0158737Y0055056D01*
X0149422Y0055056D01*
X0149422Y0074528D01*
X0158737Y0074528D01*
X0136256Y0073914D02*
X0136256Y0083229D01*
X0116784Y0083229D01*
X0116784Y0073914D01*
X0136256Y0073914D01*
X0136256Y0065513D02*
X0136256Y0056198D01*
X0116784Y0056198D01*
X0116784Y0065513D01*
X0136256Y0065513D01*
X0136256Y0051733D02*
X0116784Y0051733D01*
X0116784Y0042418D01*
X0136256Y0042418D01*
X0136256Y0051733D01*
X0136256Y0032048D02*
X0116784Y0032048D01*
X0116784Y0022733D01*
X0136256Y0022733D01*
X0136256Y0032048D01*
X0136256Y0018269D02*
X0116784Y0018269D01*
X0116784Y0008954D01*
X0136256Y0008954D01*
X0136256Y0018269D01*
X0156154Y0018269D02*
X0156154Y0008954D01*
X0175627Y0008954D01*
X0175627Y0018269D01*
X0156154Y0018269D01*
X0162020Y0099347D02*
X0169760Y0099347D01*
X0169760Y0114883D01*
X0162020Y0114883D01*
X0162020Y0099347D01*
X0193910Y0112400D02*
X0193912Y0112456D01*
X0193918Y0112511D01*
X0193928Y0112565D01*
X0193941Y0112619D01*
X0193959Y0112672D01*
X0193980Y0112723D01*
X0194004Y0112773D01*
X0194032Y0112821D01*
X0194064Y0112867D01*
X0194098Y0112911D01*
X0194136Y0112952D01*
X0194176Y0112990D01*
X0194219Y0113025D01*
X0194264Y0113057D01*
X0194312Y0113086D01*
X0194361Y0113112D01*
X0194412Y0113134D01*
X0194464Y0113152D01*
X0194518Y0113166D01*
X0194573Y0113177D01*
X0194628Y0113184D01*
X0194683Y0113187D01*
X0194739Y0113186D01*
X0194794Y0113181D01*
X0194849Y0113172D01*
X0194903Y0113160D01*
X0194956Y0113143D01*
X0195008Y0113123D01*
X0195058Y0113099D01*
X0195106Y0113072D01*
X0195153Y0113042D01*
X0195197Y0113008D01*
X0195239Y0112971D01*
X0195277Y0112931D01*
X0195314Y0112889D01*
X0195347Y0112844D01*
X0195376Y0112798D01*
X0195403Y0112749D01*
X0195425Y0112698D01*
X0195445Y0112646D01*
X0195460Y0112592D01*
X0195472Y0112538D01*
X0195480Y0112483D01*
X0195484Y0112428D01*
X0195484Y0112372D01*
X0195480Y0112317D01*
X0195472Y0112262D01*
X0195460Y0112208D01*
X0195445Y0112154D01*
X0195425Y0112102D01*
X0195403Y0112051D01*
X0195376Y0112002D01*
X0195347Y0111956D01*
X0195314Y0111911D01*
X0195277Y0111869D01*
X0195239Y0111829D01*
X0195197Y0111792D01*
X0195153Y0111758D01*
X0195106Y0111728D01*
X0195058Y0111701D01*
X0195008Y0111677D01*
X0194956Y0111657D01*
X0194903Y0111640D01*
X0194849Y0111628D01*
X0194794Y0111619D01*
X0194739Y0111614D01*
X0194683Y0111613D01*
X0194628Y0111616D01*
X0194573Y0111623D01*
X0194518Y0111634D01*
X0194464Y0111648D01*
X0194412Y0111666D01*
X0194361Y0111688D01*
X0194312Y0111714D01*
X0194264Y0111743D01*
X0194219Y0111775D01*
X0194176Y0111810D01*
X0194136Y0111848D01*
X0194098Y0111889D01*
X0194064Y0111933D01*
X0194032Y0111979D01*
X0194004Y0112027D01*
X0193980Y0112077D01*
X0193959Y0112128D01*
X0193941Y0112181D01*
X0193928Y0112235D01*
X0193918Y0112289D01*
X0193912Y0112344D01*
X0193910Y0112400D01*
X0195812Y0114595D02*
X0196993Y0113414D01*
X0222583Y0113414D01*
X0222583Y0140186D01*
X0195812Y0140186D01*
X0195812Y0114595D01*
X0175627Y0124603D02*
X0156154Y0124603D01*
X0156154Y0133918D01*
X0175627Y0133918D01*
X0175627Y0124603D01*
X0152004Y0124603D02*
X0152004Y0133918D01*
X0132532Y0133918D01*
X0132532Y0124603D01*
X0152004Y0124603D01*
X0188142Y0151473D02*
X0188142Y0159213D01*
X0203678Y0159213D01*
X0203678Y0151473D01*
X0188142Y0151473D01*
X0211764Y0151473D02*
X0211764Y0159213D01*
X0227300Y0159213D01*
X0227300Y0151473D01*
X0211764Y0151473D01*
X0097713Y0133583D02*
X0097713Y0114111D01*
X0088398Y0114111D01*
X0088398Y0133583D01*
X0097713Y0133583D01*
X0078028Y0133583D02*
X0078028Y0114111D01*
X0068713Y0114111D01*
X0068713Y0133583D01*
X0078028Y0133583D01*
X0079382Y0110788D02*
X0079382Y0101473D01*
X0098855Y0101473D01*
X0098855Y0110788D01*
X0079382Y0110788D01*
D13*
X0200142Y0039733D02*
X0204276Y0036977D01*
X0204276Y0042686D01*
X0200142Y0039733D01*
D14*
X0199945Y0039733D03*
D15*
X0196402Y0031328D02*
X0210182Y0031328D01*
X0217239Y0035456D02*
X0217239Y0037707D01*
X0217989Y0038458D01*
X0220992Y0038458D01*
X0221743Y0037707D01*
X0221743Y0035456D01*
X0217239Y0035456D01*
X0217989Y0040059D02*
X0217239Y0040810D01*
X0217239Y0042311D01*
X0217989Y0043062D01*
X0218740Y0043062D01*
X0221743Y0040059D01*
X0221743Y0043062D01*
X0222132Y0053605D02*
X0217629Y0053605D01*
X0217629Y0055857D01*
X0218379Y0056608D01*
X0221382Y0056608D01*
X0222132Y0055857D01*
X0222132Y0053605D01*
X0222132Y0058209D02*
X0222132Y0061212D01*
X0222132Y0059710D02*
X0217629Y0059710D01*
X0219130Y0058209D01*
X0247504Y0060225D02*
X0257504Y0060225D01*
X0257504Y0140225D01*
X0247504Y0140225D01*
X0247504Y0060225D01*
X0250853Y0057276D02*
X0250853Y0054273D01*
X0251604Y0053522D01*
X0253105Y0053522D01*
X0253855Y0054273D01*
X0255457Y0054273D02*
X0255457Y0055024D01*
X0256207Y0055774D01*
X0257709Y0055774D01*
X0258459Y0055024D01*
X0258459Y0054273D01*
X0257709Y0053522D01*
X0256207Y0053522D01*
X0255457Y0054273D01*
X0256207Y0055774D02*
X0255457Y0056525D01*
X0255457Y0057276D01*
X0256207Y0058026D01*
X0257709Y0058026D01*
X0258459Y0057276D01*
X0258459Y0056525D01*
X0257709Y0055774D01*
X0253855Y0057276D02*
X0253105Y0058026D01*
X0251604Y0058026D01*
X0250853Y0057276D01*
X0244796Y0090195D02*
X0245547Y0090946D01*
X0245547Y0091696D01*
X0244796Y0092447D01*
X0241043Y0092447D01*
X0241043Y0093197D02*
X0241043Y0091696D01*
X0241043Y0094799D02*
X0241043Y0097051D01*
X0241793Y0097801D01*
X0243295Y0097801D01*
X0244045Y0097051D01*
X0244045Y0094799D01*
X0245547Y0094799D02*
X0241043Y0094799D01*
X0242544Y0099403D02*
X0241043Y0100904D01*
X0245547Y0100904D01*
X0245547Y0099403D02*
X0245547Y0102405D01*
X0195240Y0105207D02*
X0192238Y0105207D01*
X0195240Y0108210D01*
X0195240Y0108961D01*
X0194490Y0109711D01*
X0192989Y0109711D01*
X0192238Y0108961D01*
X0190637Y0109711D02*
X0187634Y0109711D01*
X0189135Y0109711D02*
X0189135Y0105207D01*
X0186033Y0105207D02*
X0183030Y0109711D01*
X0186033Y0109711D02*
X0183030Y0105207D01*
X0142144Y0078096D02*
X0141394Y0078096D01*
X0138391Y0081098D01*
X0137640Y0081098D01*
X0137640Y0078096D01*
X0138391Y0076494D02*
X0139892Y0076494D01*
X0140643Y0075744D01*
X0140643Y0073492D01*
X0140643Y0074993D02*
X0142144Y0076494D01*
X0142144Y0073492D02*
X0137640Y0073492D01*
X0137640Y0075744D01*
X0138391Y0076494D01*
X0138332Y0048539D02*
X0137581Y0047789D01*
X0137581Y0046287D01*
X0138332Y0045537D01*
X0139083Y0045537D01*
X0139833Y0046287D01*
X0139833Y0048539D01*
X0138332Y0048539D02*
X0141335Y0048539D01*
X0142085Y0047789D01*
X0142085Y0046287D01*
X0141335Y0045537D01*
X0142085Y0043935D02*
X0140584Y0042434D01*
X0140584Y0043185D02*
X0140584Y0040933D01*
X0142085Y0040933D02*
X0137581Y0040933D01*
X0137581Y0043185D01*
X0138332Y0043935D01*
X0139833Y0043935D01*
X0140584Y0043185D01*
X0159395Y0026487D02*
X0160896Y0026487D01*
X0160145Y0026487D02*
X0160145Y0021983D01*
X0159395Y0021983D02*
X0160896Y0021983D01*
X0162464Y0022734D02*
X0163215Y0021983D01*
X0164716Y0021983D01*
X0165466Y0022734D01*
X0167068Y0021983D02*
X0170070Y0024986D01*
X0170070Y0025736D01*
X0169320Y0026487D01*
X0167818Y0026487D01*
X0167068Y0025736D01*
X0165466Y0025736D02*
X0164716Y0026487D01*
X0163215Y0026487D01*
X0162464Y0025736D01*
X0162464Y0022734D01*
X0167068Y0021983D02*
X0170070Y0021983D01*
X0181392Y0021617D02*
X0181392Y0023118D01*
X0182143Y0023869D01*
X0182894Y0023869D01*
X0183644Y0023118D01*
X0184395Y0023869D01*
X0185146Y0023869D01*
X0185896Y0023118D01*
X0185896Y0021617D01*
X0185146Y0020867D01*
X0185896Y0019265D02*
X0185896Y0016263D01*
X0181392Y0016263D01*
X0182143Y0020867D02*
X0181392Y0021617D01*
X0183644Y0022368D02*
X0183644Y0023118D01*
X0167890Y0032202D02*
X0167892Y0032265D01*
X0167898Y0032327D01*
X0167908Y0032389D01*
X0167921Y0032451D01*
X0167939Y0032511D01*
X0167960Y0032570D01*
X0167985Y0032628D01*
X0168014Y0032684D01*
X0168046Y0032738D01*
X0168081Y0032790D01*
X0168119Y0032839D01*
X0168161Y0032887D01*
X0168205Y0032931D01*
X0168253Y0032973D01*
X0168302Y0033011D01*
X0168354Y0033046D01*
X0168408Y0033078D01*
X0168464Y0033107D01*
X0168522Y0033132D01*
X0168581Y0033153D01*
X0168641Y0033171D01*
X0168703Y0033184D01*
X0168765Y0033194D01*
X0168827Y0033200D01*
X0168890Y0033202D01*
X0168953Y0033200D01*
X0169015Y0033194D01*
X0169077Y0033184D01*
X0169139Y0033171D01*
X0169199Y0033153D01*
X0169258Y0033132D01*
X0169316Y0033107D01*
X0169372Y0033078D01*
X0169426Y0033046D01*
X0169478Y0033011D01*
X0169527Y0032973D01*
X0169575Y0032931D01*
X0169619Y0032887D01*
X0169661Y0032839D01*
X0169699Y0032790D01*
X0169734Y0032738D01*
X0169766Y0032684D01*
X0169795Y0032628D01*
X0169820Y0032570D01*
X0169841Y0032511D01*
X0169859Y0032451D01*
X0169872Y0032389D01*
X0169882Y0032327D01*
X0169888Y0032265D01*
X0169890Y0032202D01*
X0169888Y0032139D01*
X0169882Y0032077D01*
X0169872Y0032015D01*
X0169859Y0031953D01*
X0169841Y0031893D01*
X0169820Y0031834D01*
X0169795Y0031776D01*
X0169766Y0031720D01*
X0169734Y0031666D01*
X0169699Y0031614D01*
X0169661Y0031565D01*
X0169619Y0031517D01*
X0169575Y0031473D01*
X0169527Y0031431D01*
X0169478Y0031393D01*
X0169426Y0031358D01*
X0169372Y0031326D01*
X0169316Y0031297D01*
X0169258Y0031272D01*
X0169199Y0031251D01*
X0169139Y0031233D01*
X0169077Y0031220D01*
X0169015Y0031210D01*
X0168953Y0031204D01*
X0168890Y0031202D01*
X0168827Y0031204D01*
X0168765Y0031210D01*
X0168703Y0031220D01*
X0168641Y0031233D01*
X0168581Y0031251D01*
X0168522Y0031272D01*
X0168464Y0031297D01*
X0168408Y0031326D01*
X0168354Y0031358D01*
X0168302Y0031393D01*
X0168253Y0031431D01*
X0168205Y0031473D01*
X0168161Y0031517D01*
X0168119Y0031565D01*
X0168081Y0031614D01*
X0168046Y0031666D01*
X0168014Y0031720D01*
X0167985Y0031776D01*
X0167960Y0031834D01*
X0167939Y0031893D01*
X0167921Y0031953D01*
X0167908Y0032015D01*
X0167898Y0032077D01*
X0167892Y0032139D01*
X0167890Y0032202D01*
X0142184Y0018519D02*
X0142184Y0015517D01*
X0139181Y0018519D01*
X0138430Y0018519D01*
X0137680Y0017769D01*
X0137680Y0016268D01*
X0138430Y0015517D01*
X0137680Y0012414D02*
X0142184Y0012414D01*
X0142184Y0010913D02*
X0142184Y0013916D01*
X0139181Y0010913D02*
X0137680Y0012414D01*
X0138430Y0009312D02*
X0139932Y0009312D01*
X0140682Y0008561D01*
X0140682Y0006309D01*
X0140682Y0007810D02*
X0142184Y0009312D01*
X0142184Y0006309D02*
X0137680Y0006309D01*
X0137680Y0008561D01*
X0138430Y0009312D01*
X0092362Y0009923D02*
X0091611Y0009172D01*
X0090110Y0009172D01*
X0089359Y0009923D01*
X0087758Y0009172D02*
X0085506Y0011424D01*
X0084755Y0010673D02*
X0087758Y0013676D01*
X0089359Y0012925D02*
X0090110Y0013676D01*
X0091611Y0013676D01*
X0092362Y0012925D01*
X0092362Y0012175D01*
X0091611Y0011424D01*
X0092362Y0010673D01*
X0092362Y0009923D01*
X0091611Y0011424D02*
X0090860Y0011424D01*
X0084755Y0013676D02*
X0084755Y0009172D01*
X0083154Y0009923D02*
X0083154Y0012925D01*
X0082403Y0013676D01*
X0080902Y0013676D01*
X0080151Y0012925D01*
X0080151Y0009923D01*
X0080902Y0009172D01*
X0082403Y0009172D01*
X0083154Y0009923D01*
X0060794Y0014392D02*
X0060794Y0015893D01*
X0060043Y0016644D01*
X0060043Y0018245D02*
X0058542Y0018245D01*
X0058542Y0020497D01*
X0059293Y0021248D01*
X0060043Y0021248D01*
X0060794Y0020497D01*
X0060794Y0018996D01*
X0060043Y0018245D01*
X0058542Y0018245D02*
X0057041Y0019747D01*
X0056290Y0021248D01*
X0057041Y0016644D02*
X0056290Y0015893D01*
X0056290Y0014392D01*
X0057041Y0013641D01*
X0060043Y0013641D01*
X0060794Y0014392D01*
X0033593Y0037927D02*
X0033593Y0040196D01*
X0033593Y0039061D02*
X0030190Y0039061D01*
X0031324Y0037927D01*
X0030757Y0056927D02*
X0030190Y0057494D01*
X0030190Y0058629D01*
X0030757Y0059196D01*
X0031324Y0059196D01*
X0033593Y0056927D01*
X0033593Y0059196D01*
X0033026Y0077927D02*
X0033593Y0078494D01*
X0033593Y0079629D01*
X0033026Y0080196D01*
X0032459Y0080196D01*
X0031892Y0079629D01*
X0031892Y0079061D01*
X0031892Y0079629D02*
X0031324Y0080196D01*
X0030757Y0080196D01*
X0030190Y0079629D01*
X0030190Y0078494D01*
X0030757Y0077927D01*
X0031892Y0096927D02*
X0031892Y0099196D01*
X0033593Y0098629D02*
X0030190Y0098629D01*
X0031892Y0096927D01*
X0031892Y0116927D02*
X0031324Y0118061D01*
X0031324Y0118629D01*
X0031892Y0119196D01*
X0033026Y0119196D01*
X0033593Y0118629D01*
X0033593Y0117494D01*
X0033026Y0116927D01*
X0031892Y0116927D02*
X0030190Y0116927D01*
X0030190Y0119196D01*
X0063901Y0142827D02*
X0064651Y0143578D01*
X0064651Y0144328D01*
X0063901Y0145079D01*
X0060147Y0145079D01*
X0060147Y0144328D02*
X0060147Y0145830D01*
X0060898Y0147431D02*
X0060147Y0148182D01*
X0060147Y0149683D01*
X0060898Y0150434D01*
X0061649Y0150434D01*
X0062399Y0149683D01*
X0063150Y0150434D01*
X0063901Y0150434D01*
X0064651Y0149683D01*
X0064651Y0148182D01*
X0063901Y0147431D01*
X0062399Y0148932D02*
X0062399Y0149683D01*
X0079833Y0149683D02*
X0079833Y0148182D01*
X0080583Y0147431D01*
X0079833Y0145830D02*
X0079833Y0144328D01*
X0079833Y0145079D02*
X0083586Y0145079D01*
X0084336Y0144328D01*
X0084336Y0143578D01*
X0083586Y0142827D01*
X0084336Y0147431D02*
X0081334Y0150434D01*
X0080583Y0150434D01*
X0079833Y0149683D01*
X0084336Y0150434D02*
X0084336Y0147431D01*
X0099577Y0146342D02*
X0099577Y0144840D01*
X0099577Y0145591D02*
X0103330Y0145591D01*
X0104080Y0144840D01*
X0104080Y0144090D01*
X0103330Y0143339D01*
X0104080Y0147943D02*
X0104080Y0150945D01*
X0104080Y0149444D02*
X0099577Y0149444D01*
X0101078Y0147943D01*
X0083362Y0127575D02*
X0082611Y0127575D01*
X0081861Y0126824D01*
X0081861Y0126073D01*
X0081861Y0126824D02*
X0081110Y0127575D01*
X0080360Y0127575D01*
X0079609Y0126824D01*
X0079609Y0125323D01*
X0080360Y0124572D01*
X0083362Y0124572D02*
X0084113Y0125323D01*
X0084113Y0126824D01*
X0083362Y0127575D01*
X0084113Y0122971D02*
X0084113Y0119968D01*
X0084113Y0121469D02*
X0079609Y0121469D01*
X0081110Y0119968D01*
X0080360Y0118367D02*
X0081861Y0118367D01*
X0082611Y0117616D01*
X0082611Y0115364D01*
X0082611Y0116865D02*
X0084113Y0118367D01*
X0084113Y0115364D02*
X0079609Y0115364D01*
X0079609Y0117616D01*
X0080360Y0118367D01*
X0099207Y0117144D02*
X0099207Y0114892D01*
X0103711Y0114892D01*
X0102210Y0114892D02*
X0102210Y0117144D01*
X0101459Y0117894D01*
X0099958Y0117894D01*
X0099207Y0117144D01*
X0100709Y0119496D02*
X0099207Y0120997D01*
X0103711Y0120997D01*
X0103711Y0119496D02*
X0103711Y0122498D01*
X0101459Y0124100D02*
X0101459Y0127102D01*
X0099207Y0126352D02*
X0101459Y0124100D01*
X0103711Y0126352D02*
X0099207Y0126352D01*
X0103711Y0117894D02*
X0102210Y0116393D01*
X0114755Y0116227D02*
X0114755Y0113975D01*
X0119258Y0113975D01*
X0117757Y0113975D02*
X0117757Y0116227D01*
X0117006Y0116978D01*
X0115505Y0116978D01*
X0114755Y0116227D01*
X0115505Y0112374D02*
X0114755Y0111623D01*
X0114755Y0110122D01*
X0115505Y0109371D01*
X0116256Y0109371D01*
X0117006Y0110122D01*
X0117006Y0111623D01*
X0117757Y0112374D01*
X0118508Y0112374D01*
X0119258Y0111623D01*
X0119258Y0110122D01*
X0118508Y0109371D01*
X0119258Y0107803D02*
X0119258Y0106302D01*
X0119258Y0107053D02*
X0114755Y0107053D01*
X0114755Y0107803D02*
X0114755Y0106302D01*
X0092829Y0076668D02*
X0092829Y0072164D01*
X0091328Y0072164D02*
X0094330Y0072164D01*
X0091328Y0075167D02*
X0092829Y0076668D01*
X0089726Y0076668D02*
X0086724Y0073665D01*
X0087474Y0074416D02*
X0089726Y0072164D01*
X0086724Y0072164D02*
X0086724Y0076668D01*
X0085122Y0075917D02*
X0084372Y0076668D01*
X0082870Y0076668D01*
X0082120Y0075917D01*
X0082120Y0072915D01*
X0082870Y0072164D01*
X0084372Y0072164D01*
X0085122Y0072915D01*
X0085122Y0075917D01*
X0086232Y0044188D02*
X0086232Y0039684D01*
X0086232Y0041185D02*
X0089234Y0044188D01*
X0090836Y0043437D02*
X0091586Y0044188D01*
X0093087Y0044188D01*
X0093838Y0043437D01*
X0093838Y0042686D01*
X0090836Y0039684D01*
X0093838Y0039684D01*
X0089234Y0039684D02*
X0086982Y0041936D01*
X0084630Y0040434D02*
X0084630Y0043437D01*
X0083880Y0044188D01*
X0082378Y0044188D01*
X0081628Y0043437D01*
X0081628Y0040434D01*
X0082378Y0039684D01*
X0083880Y0039684D01*
X0084630Y0040434D01*
X0196402Y0007706D02*
X0210182Y0007706D01*
X0142949Y0137385D02*
X0142949Y0141888D01*
X0141448Y0141888D02*
X0144451Y0141888D01*
X0139847Y0141138D02*
X0139847Y0139637D01*
X0139096Y0138886D01*
X0136844Y0138886D01*
X0136844Y0137385D02*
X0136844Y0141888D01*
X0139096Y0141888D01*
X0139847Y0141138D01*
X0138345Y0138886D02*
X0139847Y0137385D01*
X0135243Y0137385D02*
X0135243Y0140387D01*
X0133742Y0141888D01*
X0132240Y0140387D01*
X0132240Y0137385D01*
X0130639Y0138135D02*
X0130639Y0141888D01*
X0132240Y0139637D02*
X0135243Y0139637D01*
X0130639Y0138135D02*
X0129888Y0137385D01*
X0128387Y0137385D01*
X0127636Y0138135D01*
X0127636Y0141888D01*
X0152111Y0143532D02*
X0152111Y0145107D01*
X0152111Y0143532D02*
X0152113Y0143470D01*
X0152119Y0143409D01*
X0152128Y0143348D01*
X0152142Y0143287D01*
X0152159Y0143228D01*
X0152180Y0143170D01*
X0152205Y0143113D01*
X0152233Y0143058D01*
X0152264Y0143005D01*
X0152299Y0142954D01*
X0152337Y0142905D01*
X0152378Y0142858D01*
X0152421Y0142815D01*
X0152468Y0142774D01*
X0152517Y0142736D01*
X0152568Y0142701D01*
X0152621Y0142670D01*
X0152676Y0142642D01*
X0152733Y0142617D01*
X0152791Y0142596D01*
X0152850Y0142579D01*
X0152911Y0142565D01*
X0152972Y0142556D01*
X0153033Y0142550D01*
X0153095Y0142548D01*
X0174355Y0142548D01*
X0174422Y0142539D01*
X0174489Y0142534D01*
X0174556Y0142532D01*
X0174623Y0142534D01*
X0174690Y0142540D01*
X0174756Y0142550D01*
X0174822Y0142563D01*
X0174887Y0142580D01*
X0174951Y0142600D01*
X0175014Y0142625D01*
X0175075Y0142652D01*
X0175134Y0142683D01*
X0175192Y0142717D01*
X0175248Y0142755D01*
X0175301Y0142796D01*
X0175352Y0142839D01*
X0175401Y0142885D01*
X0175447Y0142934D01*
X0175490Y0142986D01*
X0175530Y0143039D01*
X0175568Y0143095D01*
X0175601Y0143153D01*
X0175632Y0143213D01*
X0175659Y0143274D01*
X0175683Y0143337D01*
X0175703Y0143401D01*
X0175720Y0143466D01*
X0175733Y0143532D01*
X0175733Y0145107D01*
X0169827Y0146485D02*
X0169827Y0152391D01*
X0158016Y0152391D01*
X0158016Y0146485D01*
X0169827Y0146485D01*
X0175733Y0153769D02*
X0175733Y0155343D01*
X0175731Y0155405D01*
X0175725Y0155466D01*
X0175716Y0155527D01*
X0175702Y0155588D01*
X0175685Y0155647D01*
X0175664Y0155705D01*
X0175639Y0155762D01*
X0175611Y0155817D01*
X0175580Y0155870D01*
X0175545Y0155921D01*
X0175507Y0155970D01*
X0175466Y0156017D01*
X0175423Y0156060D01*
X0175376Y0156101D01*
X0175327Y0156139D01*
X0175276Y0156174D01*
X0175223Y0156205D01*
X0175168Y0156233D01*
X0175111Y0156258D01*
X0175053Y0156279D01*
X0174994Y0156296D01*
X0174933Y0156310D01*
X0174872Y0156319D01*
X0174811Y0156325D01*
X0174749Y0156327D01*
X0174749Y0156328D02*
X0153095Y0156328D01*
X0153095Y0156327D02*
X0153033Y0156325D01*
X0152972Y0156319D01*
X0152911Y0156310D01*
X0152850Y0156296D01*
X0152791Y0156279D01*
X0152733Y0156258D01*
X0152676Y0156233D01*
X0152621Y0156205D01*
X0152568Y0156174D01*
X0152517Y0156139D01*
X0152468Y0156101D01*
X0152421Y0156060D01*
X0152378Y0156017D01*
X0152337Y0155970D01*
X0152299Y0155921D01*
X0152264Y0155870D01*
X0152233Y0155817D01*
X0152205Y0155762D01*
X0152180Y0155705D01*
X0152159Y0155647D01*
X0152142Y0155588D01*
X0152128Y0155527D01*
X0152119Y0155466D01*
X0152113Y0155405D01*
X0152111Y0155343D01*
X0152111Y0153769D01*
X0230918Y0155237D02*
X0230918Y0139702D01*
X0238658Y0139702D01*
X0238658Y0155237D01*
X0230918Y0155237D01*
D16*
X0098056Y0155875D02*
X0098056Y0150875D01*
X0095556Y0148375D01*
X0098056Y0145875D01*
X0098056Y0140875D01*
X0095556Y0138375D01*
X0090556Y0138375D01*
X0088056Y0140875D01*
X0088056Y0145875D01*
X0090556Y0148375D01*
X0088056Y0150875D01*
X0088056Y0155875D01*
X0090556Y0158375D01*
X0095556Y0158375D01*
X0098056Y0155875D01*
X0078371Y0155875D02*
X0078371Y0150875D01*
X0075871Y0148375D01*
X0078371Y0145875D01*
X0078371Y0140875D01*
X0075871Y0138375D01*
X0070871Y0138375D01*
X0068371Y0140875D01*
X0068371Y0145875D01*
X0070871Y0148375D01*
X0068371Y0150875D01*
X0068371Y0155875D01*
X0070871Y0158375D01*
X0075871Y0158375D01*
X0078371Y0155875D01*
X0058686Y0155875D02*
X0058686Y0150875D01*
X0056186Y0148375D01*
X0058686Y0145875D01*
X0058686Y0140875D01*
X0056186Y0138375D01*
X0051186Y0138375D01*
X0048686Y0140875D01*
X0048686Y0145875D01*
X0051186Y0148375D01*
X0048686Y0150875D01*
X0048686Y0155875D01*
X0051186Y0158375D01*
X0056186Y0158375D01*
X0058686Y0155875D01*
X0158410Y0049044D02*
X0173371Y0049044D01*
X0173402Y0029359D02*
X0158410Y0029359D01*
D17*
X0120221Y0129261D03*
D18*
X0121347Y0124606D02*
X0121347Y0120903D01*
X0120113Y0120903D02*
X0122582Y0120903D01*
X0120113Y0123372D02*
X0121347Y0124606D01*
X0118899Y0123989D02*
X0118281Y0124606D01*
X0116430Y0124606D01*
X0116430Y0120903D01*
X0118281Y0120903D01*
X0118899Y0121520D01*
X0118899Y0123989D01*
X0115216Y0124606D02*
X0112747Y0124606D01*
X0112747Y0120903D01*
X0115216Y0120903D01*
X0113981Y0122754D02*
X0112747Y0122754D01*
X0111532Y0120903D02*
X0109064Y0120903D01*
X0109064Y0124606D01*
D19*
X0043843Y0114077D03*
X0043843Y0094277D03*
X0043843Y0054877D03*
D20*
X0195697Y0086320D02*
X0222697Y0086320D01*
X0222697Y0089320D02*
X0195697Y0089320D01*
X0195564Y0089322D01*
X0195432Y0089327D01*
X0195300Y0089336D01*
X0195167Y0089348D01*
X0195036Y0089364D01*
X0194904Y0089383D01*
X0194774Y0089406D01*
X0194644Y0089432D01*
X0194514Y0089462D01*
X0194386Y0089495D01*
X0194258Y0089531D01*
X0194132Y0089571D01*
X0194006Y0089614D01*
X0193882Y0089661D01*
X0193759Y0089711D01*
X0193638Y0089764D01*
X0193518Y0089820D01*
X0195697Y0086320D02*
X0195503Y0086322D01*
X0195308Y0086329D01*
X0195114Y0086341D01*
X0194920Y0086358D01*
X0194726Y0086379D01*
X0194533Y0086405D01*
X0194341Y0086436D01*
X0194150Y0086471D01*
X0193959Y0086511D01*
X0193770Y0086556D01*
X0193581Y0086605D01*
X0193394Y0086659D01*
X0193208Y0086717D01*
X0193024Y0086780D01*
X0192841Y0086847D01*
X0192660Y0086919D01*
X0192481Y0086995D01*
X0192304Y0087075D01*
X0192129Y0087160D01*
X0191955Y0087249D01*
X0191784Y0087342D01*
X0191616Y0087439D01*
X0191450Y0087541D01*
X0191286Y0087646D01*
X0191125Y0087755D01*
X0190966Y0087869D01*
X0190811Y0087986D01*
X0190658Y0088106D01*
X0190508Y0088231D01*
X0190362Y0088359D01*
X0190218Y0088490D01*
X0190078Y0088625D01*
X0189941Y0088764D01*
X0189808Y0088906D01*
X0189678Y0089050D01*
X0189551Y0089198D01*
X0189428Y0089350D01*
X0189309Y0089504D01*
X0189194Y0089660D01*
X0189083Y0089820D01*
X0193518Y0098820D02*
X0193638Y0098876D01*
X0193759Y0098929D01*
X0193882Y0098979D01*
X0194006Y0099026D01*
X0194132Y0099069D01*
X0194258Y0099109D01*
X0194386Y0099145D01*
X0194514Y0099178D01*
X0194644Y0099208D01*
X0194774Y0099234D01*
X0194904Y0099257D01*
X0195036Y0099276D01*
X0195167Y0099292D01*
X0195300Y0099304D01*
X0195432Y0099313D01*
X0195564Y0099318D01*
X0195697Y0099320D01*
X0222697Y0099320D01*
X0222697Y0102320D02*
X0195697Y0102320D01*
X0195698Y0102320D02*
X0195503Y0102318D01*
X0195308Y0102311D01*
X0195114Y0102299D01*
X0194920Y0102282D01*
X0194727Y0102261D01*
X0194534Y0102235D01*
X0194341Y0102204D01*
X0194150Y0102169D01*
X0193959Y0102129D01*
X0193770Y0102084D01*
X0193582Y0102035D01*
X0193394Y0101981D01*
X0193209Y0101923D01*
X0193024Y0101860D01*
X0192842Y0101793D01*
X0192661Y0101721D01*
X0192482Y0101645D01*
X0192304Y0101565D01*
X0192129Y0101480D01*
X0191956Y0101391D01*
X0191785Y0101298D01*
X0191616Y0101200D01*
X0191450Y0101099D01*
X0191286Y0100994D01*
X0191125Y0100884D01*
X0190967Y0100771D01*
X0190811Y0100654D01*
X0190659Y0100533D01*
X0190509Y0100409D01*
X0190362Y0100281D01*
X0190219Y0100149D01*
X0190079Y0100014D01*
X0189942Y0099876D01*
X0189808Y0099734D01*
X0189678Y0099589D01*
X0189552Y0099441D01*
X0189429Y0099290D01*
X0189310Y0099136D01*
X0189195Y0098979D01*
X0189083Y0098820D01*
X0204697Y0094320D02*
X0206697Y0094320D01*
X0211697Y0094320D02*
X0213697Y0094320D01*
X0222697Y0086320D02*
X0222892Y0086322D01*
X0223086Y0086329D01*
X0223281Y0086341D01*
X0223475Y0086358D01*
X0223668Y0086379D01*
X0223861Y0086405D01*
X0224053Y0086436D01*
X0224245Y0086471D01*
X0224435Y0086511D01*
X0224625Y0086556D01*
X0224813Y0086605D01*
X0225000Y0086659D01*
X0225186Y0086717D01*
X0225370Y0086780D01*
X0225553Y0086847D01*
X0225734Y0086919D01*
X0225913Y0086995D01*
X0226090Y0087075D01*
X0226266Y0087160D01*
X0226439Y0087249D01*
X0226610Y0087342D01*
X0226778Y0087439D01*
X0226945Y0087541D01*
X0227108Y0087646D01*
X0227269Y0087756D01*
X0227428Y0087869D01*
X0227583Y0087986D01*
X0227736Y0088107D01*
X0227886Y0088231D01*
X0228032Y0088359D01*
X0228176Y0088491D01*
X0228316Y0088626D01*
X0228453Y0088764D01*
X0228586Y0088906D01*
X0228716Y0089051D01*
X0228843Y0089199D01*
X0228966Y0089350D01*
X0229085Y0089504D01*
X0229200Y0089661D01*
X0229312Y0089820D01*
X0229312Y0098820D02*
X0229201Y0098980D01*
X0229086Y0099136D01*
X0228967Y0099290D01*
X0228844Y0099442D01*
X0228717Y0099590D01*
X0228587Y0099734D01*
X0228454Y0099876D01*
X0228317Y0100015D01*
X0228177Y0100150D01*
X0228033Y0100281D01*
X0227887Y0100409D01*
X0227737Y0100534D01*
X0227584Y0100654D01*
X0227429Y0100771D01*
X0227270Y0100885D01*
X0227109Y0100994D01*
X0226945Y0101099D01*
X0226779Y0101201D01*
X0226611Y0101298D01*
X0226440Y0101391D01*
X0226266Y0101480D01*
X0226091Y0101565D01*
X0225914Y0101645D01*
X0225735Y0101721D01*
X0225554Y0101793D01*
X0225371Y0101860D01*
X0225187Y0101923D01*
X0225001Y0101981D01*
X0224814Y0102035D01*
X0224625Y0102084D01*
X0224436Y0102129D01*
X0224245Y0102169D01*
X0224054Y0102204D01*
X0223862Y0102235D01*
X0223669Y0102261D01*
X0223475Y0102282D01*
X0223281Y0102299D01*
X0223087Y0102311D01*
X0222892Y0102318D01*
X0222698Y0102320D01*
X0222697Y0099320D02*
X0222830Y0099318D01*
X0222962Y0099313D01*
X0223094Y0099304D01*
X0223227Y0099292D01*
X0223358Y0099276D01*
X0223490Y0099257D01*
X0223620Y0099234D01*
X0223750Y0099208D01*
X0223880Y0099178D01*
X0224008Y0099145D01*
X0224136Y0099109D01*
X0224262Y0099069D01*
X0224388Y0099026D01*
X0224512Y0098979D01*
X0224635Y0098929D01*
X0224756Y0098876D01*
X0224876Y0098820D01*
X0224876Y0089820D02*
X0224756Y0089764D01*
X0224635Y0089711D01*
X0224512Y0089661D01*
X0224388Y0089614D01*
X0224262Y0089571D01*
X0224136Y0089531D01*
X0224008Y0089495D01*
X0223880Y0089462D01*
X0223750Y0089432D01*
X0223620Y0089406D01*
X0223490Y0089383D01*
X0223358Y0089364D01*
X0223227Y0089348D01*
X0223094Y0089336D01*
X0222962Y0089327D01*
X0222830Y0089322D01*
X0222697Y0089320D01*
D21*
X0228882Y0053387D03*
D22*
X0228882Y0047137D03*
X0228882Y0070637D03*
M02*
