G75*
%MOIN*%
%OFA0B0*%
%FSLAX25Y25*%
%IPPOS*%
%LPD*%
%AMOC8*
5,1,8,0,0,1.08239X$1,22.5*
%
%ADD10R,0.05118X0.05906*%
%ADD11R,0.05906X0.05118*%
%ADD12R,0.07087X0.06693*%
%ADD13R,0.08661X0.02362*%
%ADD14C,0.07480*%
%ADD15OC8,0.07480*%
%ADD16C,0.07400*%
%ADD17OC8,0.07150*%
%ADD18R,0.09843X0.20472*%
%ADD19R,0.04724X0.04724*%
%ADD20C,0.06299*%
%ADD21C,0.06350*%
%ADD22R,0.06299X0.07098*%
%ADD23R,0.07098X0.06299*%
%ADD24R,0.09055X0.06299*%
%ADD25C,0.08350*%
%ADD26R,0.20000X0.07000*%
%ADD27C,0.07087*%
%ADD28OC8,0.07000*%
%ADD29C,0.07000*%
%ADD30R,0.01969X0.05000*%
%ADD31R,0.05000X0.01969*%
%ADD32C,0.02400*%
%ADD33C,0.01600*%
%ADD34C,0.05600*%
%ADD35C,0.01378*%
%ADD36C,0.05512*%
%ADD37C,0.11811*%
D10*
X0199552Y0056918D03*
X0207032Y0056918D03*
X0199650Y0155343D03*
X0192170Y0155343D03*
X0215792Y0155343D03*
X0223272Y0155343D03*
D11*
X0234788Y0151209D03*
X0234788Y0143729D03*
X0165890Y0110855D03*
X0165890Y0103375D03*
X0197386Y0076406D03*
X0197386Y0068926D03*
X0215103Y0068926D03*
X0215103Y0076406D03*
D12*
X0211363Y0039733D03*
X0195221Y0039733D03*
D13*
X0176127Y0041702D03*
X0176127Y0046702D03*
X0176127Y0036702D03*
X0176127Y0031702D03*
X0155654Y0031702D03*
X0155654Y0036702D03*
X0155654Y0041702D03*
X0155654Y0046702D03*
D14*
X0146363Y0112115D03*
D15*
X0136363Y0112115D03*
X0126363Y0112115D03*
X0126363Y0102115D03*
X0136363Y0102115D03*
X0146363Y0102115D03*
D16*
X0093056Y0142675D03*
X0093056Y0154075D03*
X0073371Y0154075D03*
X0073371Y0142675D03*
X0053686Y0142675D03*
X0053686Y0154075D03*
D17*
X0111520Y0152469D03*
X0121520Y0152469D03*
X0121520Y0142469D03*
X0111520Y0142469D03*
X0252504Y0135225D03*
X0252504Y0125225D03*
X0252504Y0115225D03*
X0252504Y0105225D03*
X0252504Y0095225D03*
X0252504Y0085225D03*
X0252504Y0075225D03*
X0252504Y0065225D03*
D18*
X0213134Y0019517D03*
X0193449Y0019517D03*
D19*
X0124749Y0129261D03*
X0116481Y0129261D03*
D20*
X0107308Y0093414D02*
X0101008Y0093414D01*
X0101008Y0083414D02*
X0107308Y0083414D01*
X0107308Y0061918D02*
X0101008Y0061918D01*
X0101008Y0051918D02*
X0107308Y0051918D01*
X0107308Y0030422D02*
X0101008Y0030422D01*
X0101008Y0020422D02*
X0107308Y0020422D01*
X0077229Y0030422D02*
X0070930Y0030422D01*
X0070930Y0061918D02*
X0077229Y0061918D01*
X0077229Y0093414D02*
X0070930Y0093414D01*
D21*
X0070904Y0083414D02*
X0077254Y0083414D01*
X0077254Y0051918D02*
X0070904Y0051918D01*
X0070904Y0020422D02*
X0077254Y0020422D01*
D22*
X0120922Y0013611D03*
X0132119Y0013611D03*
X0132119Y0027391D03*
X0120922Y0027391D03*
X0120922Y0047076D03*
X0132119Y0047076D03*
X0132119Y0060855D03*
X0120922Y0060855D03*
X0120922Y0078572D03*
X0132119Y0078572D03*
X0158323Y0082509D03*
X0169520Y0082509D03*
X0171489Y0129261D03*
X0160292Y0129261D03*
X0147867Y0129261D03*
X0136670Y0129261D03*
X0094717Y0106131D03*
X0083520Y0106131D03*
X0160292Y0013611D03*
X0171489Y0013611D03*
D23*
X0228882Y0015887D03*
X0228882Y0027083D03*
X0173764Y0059194D03*
X0173764Y0070391D03*
X0154079Y0070391D03*
X0154079Y0059194D03*
X0093056Y0118249D03*
X0093056Y0129446D03*
X0073371Y0129446D03*
X0073371Y0118249D03*
D24*
X0151520Y0149438D03*
X0176323Y0149438D03*
D25*
X0048018Y0123877D02*
X0039668Y0123877D01*
X0039668Y0104177D02*
X0048018Y0104177D01*
X0048018Y0084477D02*
X0039668Y0084477D01*
X0039668Y0064777D02*
X0048018Y0064777D01*
X0048018Y0044977D02*
X0039668Y0044977D01*
D26*
X0190197Y0094320D03*
X0228197Y0094320D03*
D27*
X0228882Y0078887D03*
X0228882Y0038887D03*
D28*
X0248567Y0046170D03*
X0038843Y0019517D03*
D29*
X0048843Y0019517D03*
X0248567Y0036170D03*
D30*
X0220221Y0109900D03*
X0217071Y0109900D03*
X0213922Y0109900D03*
X0210772Y0109900D03*
X0207623Y0109900D03*
X0204473Y0109900D03*
X0201323Y0109900D03*
X0198174Y0109900D03*
X0198174Y0143700D03*
X0201323Y0143700D03*
X0204473Y0143700D03*
X0207623Y0143700D03*
X0210772Y0143700D03*
X0213922Y0143700D03*
X0217071Y0143700D03*
X0220221Y0143700D03*
D31*
X0226097Y0137824D03*
X0226097Y0134674D03*
X0226097Y0131524D03*
X0226097Y0128375D03*
X0226097Y0125225D03*
X0226097Y0122076D03*
X0226097Y0118926D03*
X0226097Y0115776D03*
X0192297Y0115776D03*
X0192297Y0118926D03*
X0192297Y0122076D03*
X0192297Y0125225D03*
X0192297Y0128375D03*
X0192297Y0131524D03*
X0192297Y0134674D03*
X0192297Y0137824D03*
D32*
X0228882Y0078887D02*
X0228882Y0074635D01*
X0228882Y0060855D01*
X0224945Y0056918D01*
X0215103Y0056918D01*
X0221008Y0051013D01*
X0221008Y0043139D01*
X0217603Y0039733D01*
X0211363Y0039733D01*
X0203292Y0048552D02*
X0203292Y0021485D01*
X0205260Y0019517D01*
X0213134Y0019517D01*
X0221008Y0019517D01*
X0224638Y0015887D01*
X0228882Y0015887D01*
X0235095Y0015887D01*
X0244630Y0025422D01*
X0228882Y0027083D02*
X0228882Y0038887D01*
X0228882Y0048552D01*
X0234296Y0053965D01*
X0246107Y0053965D01*
X0252504Y0060363D01*
X0252504Y0065225D01*
X0228882Y0074635D02*
X0223174Y0068926D01*
X0215103Y0068926D01*
X0207032Y0068926D01*
X0197386Y0068926D01*
X0191678Y0068926D01*
X0187544Y0064792D01*
X0187544Y0054950D01*
X0185575Y0052981D01*
X0179670Y0052981D01*
X0176127Y0049438D01*
X0176127Y0046702D01*
X0183607Y0036702D02*
X0186638Y0039733D01*
X0195221Y0039733D01*
X0185575Y0034733D02*
X0183607Y0036702D01*
X0176127Y0036702D01*
X0185575Y0034733D02*
X0185575Y0021485D01*
X0187544Y0019517D01*
X0193449Y0019517D01*
X0207032Y0056918D02*
X0215103Y0056918D01*
D33*
X0031363Y0041739D02*
X0031363Y0010974D01*
X0058492Y0010974D01*
X0056960Y0012506D01*
X0056134Y0014500D01*
X0056134Y0015593D01*
X0055826Y0014851D01*
X0053509Y0012534D01*
X0050481Y0011280D01*
X0047205Y0011280D01*
X0044177Y0012534D01*
X0042473Y0014237D01*
X0041453Y0013217D01*
X0038843Y0013217D01*
X0038843Y0019516D01*
X0038843Y0019516D01*
X0038843Y0013217D01*
X0036233Y0013217D01*
X0032543Y0016907D01*
X0032543Y0019516D01*
X0038843Y0019516D01*
X0038843Y0019517D01*
X0038843Y0025817D01*
X0036233Y0025817D01*
X0032543Y0022126D01*
X0032543Y0019517D01*
X0038843Y0019517D01*
X0038843Y0019517D01*
X0038843Y0025817D01*
X0041453Y0025817D01*
X0042473Y0024796D01*
X0044177Y0026500D01*
X0047205Y0027754D01*
X0050481Y0027754D01*
X0053509Y0026500D01*
X0055826Y0024182D01*
X0056134Y0023440D01*
X0056134Y0041283D01*
X0055573Y0039929D01*
X0053066Y0037422D01*
X0049791Y0036065D01*
X0037896Y0036065D01*
X0034620Y0037422D01*
X0032113Y0039929D01*
X0031363Y0041739D01*
X0031363Y0040904D02*
X0031709Y0040904D01*
X0031363Y0039306D02*
X0032736Y0039306D01*
X0031363Y0037707D02*
X0034335Y0037707D01*
X0031363Y0036109D02*
X0037791Y0036109D01*
X0031363Y0034510D02*
X0056134Y0034510D01*
X0056134Y0032912D02*
X0031363Y0032912D01*
X0031363Y0031313D02*
X0056134Y0031313D01*
X0056134Y0029715D02*
X0031363Y0029715D01*
X0031363Y0028116D02*
X0056134Y0028116D01*
X0056134Y0026518D02*
X0053465Y0026518D01*
X0055089Y0024919D02*
X0056134Y0024919D01*
X0065497Y0022391D02*
X0065497Y0033296D01*
X0071402Y0039202D01*
X0140300Y0039202D01*
X0142800Y0041702D01*
X0150142Y0041702D01*
X0146205Y0037765D01*
X0146205Y0031328D01*
X0152111Y0025422D01*
X0158016Y0025422D01*
X0160292Y0023146D01*
X0160292Y0013611D01*
X0171489Y0013611D02*
X0171489Y0021178D01*
X0176127Y0025816D01*
X0176127Y0031702D01*
X0167859Y0031702D01*
X0162859Y0036702D01*
X0155654Y0036702D01*
X0155654Y0041702D02*
X0150142Y0041702D01*
X0155654Y0046702D02*
X0155654Y0050926D01*
X0163922Y0059194D01*
X0154079Y0059194D01*
X0145793Y0059534D02*
X0144706Y0059534D01*
X0141936Y0058386D01*
X0140005Y0056456D01*
X0140005Y0065347D01*
X0139284Y0067088D01*
X0137952Y0068420D01*
X0137324Y0068680D01*
X0136719Y0070141D01*
X0136468Y0070392D01*
X0137952Y0071007D01*
X0139284Y0072339D01*
X0139618Y0073146D01*
X0143840Y0073146D01*
X0145793Y0073955D01*
X0145793Y0066299D01*
X0146417Y0064792D01*
X0145793Y0063286D01*
X0145793Y0059534D01*
X0145793Y0060086D02*
X0140005Y0060086D01*
X0140005Y0058488D02*
X0142181Y0058488D01*
X0140439Y0056889D02*
X0140005Y0056889D01*
X0140005Y0061685D02*
X0145793Y0061685D01*
X0145793Y0063283D02*
X0140005Y0063283D01*
X0140005Y0064882D02*
X0146380Y0064882D01*
X0145793Y0066480D02*
X0139536Y0066480D01*
X0138293Y0068079D02*
X0145793Y0068079D01*
X0145793Y0069677D02*
X0136911Y0069677D01*
X0138221Y0071276D02*
X0145793Y0071276D01*
X0145793Y0072874D02*
X0139506Y0072874D01*
X0157549Y0083284D02*
X0157549Y0088858D01*
X0155404Y0088858D01*
X0153411Y0090850D01*
X0152894Y0091367D01*
X0156711Y0095183D01*
X0157537Y0097177D01*
X0157537Y0115694D01*
X0158295Y0116453D01*
X0165001Y0116453D01*
X0166740Y0117173D01*
X0167137Y0116214D01*
X0166370Y0116214D01*
X0166370Y0111335D01*
X0165411Y0111335D01*
X0165411Y0116214D01*
X0162662Y0116214D01*
X0162121Y0116107D01*
X0161611Y0115895D01*
X0161153Y0115589D01*
X0160763Y0115199D01*
X0160456Y0114740D01*
X0160245Y0114231D01*
X0160138Y0113690D01*
X0160138Y0111335D01*
X0165411Y0111335D01*
X0165411Y0110671D01*
X0161995Y0110671D01*
X0161282Y0110376D01*
X0160138Y0110376D01*
X0160138Y0109833D01*
X0158922Y0108617D01*
X0158201Y0106876D01*
X0158201Y0099873D01*
X0158867Y0098264D01*
X0158496Y0097367D01*
X0158496Y0083284D01*
X0157549Y0083284D01*
X0157549Y0084064D02*
X0158496Y0084064D01*
X0158496Y0085663D02*
X0157549Y0085663D01*
X0157549Y0087261D02*
X0158496Y0087261D01*
X0158496Y0088860D02*
X0155402Y0088860D01*
X0153803Y0090458D02*
X0158496Y0090458D01*
X0158496Y0092057D02*
X0153584Y0092057D01*
X0153411Y0090850D02*
X0153411Y0090850D01*
X0155183Y0093655D02*
X0158496Y0093655D01*
X0158496Y0095254D02*
X0156740Y0095254D01*
X0157402Y0096852D02*
X0158496Y0096852D01*
X0158790Y0098451D02*
X0157537Y0098451D01*
X0157537Y0100049D02*
X0158201Y0100049D01*
X0158201Y0101648D02*
X0157537Y0101648D01*
X0157537Y0103246D02*
X0158201Y0103246D01*
X0158201Y0104845D02*
X0157537Y0104845D01*
X0157537Y0106443D02*
X0158201Y0106443D01*
X0158683Y0108042D02*
X0157537Y0108042D01*
X0157537Y0109640D02*
X0159945Y0109640D01*
X0157537Y0111239D02*
X0165411Y0111239D01*
X0165411Y0112837D02*
X0166370Y0112837D01*
X0166370Y0114436D02*
X0165411Y0114436D01*
X0165411Y0116034D02*
X0166370Y0116034D01*
X0161946Y0116034D02*
X0157877Y0116034D01*
X0157537Y0114436D02*
X0160330Y0114436D01*
X0160138Y0112837D02*
X0157537Y0112837D01*
X0147867Y0125509D02*
X0144237Y0121879D01*
X0128489Y0121879D01*
X0121446Y0119187D02*
X0117886Y0115626D01*
X0117886Y0108604D01*
X0119374Y0107115D01*
X0117886Y0105626D01*
X0117886Y0098604D01*
X0118523Y0097966D01*
X0118162Y0097605D01*
X0117015Y0094835D01*
X0117015Y0091836D01*
X0118162Y0089066D01*
X0120282Y0086946D01*
X0120495Y0086858D01*
X0116830Y0086858D01*
X0115089Y0086137D01*
X0114825Y0085873D01*
X0113994Y0087882D01*
X0112052Y0089823D01*
X0112396Y0090296D01*
X0112821Y0091130D01*
X0113111Y0092021D01*
X0113257Y0092946D01*
X0113257Y0093414D01*
X0104158Y0093414D01*
X0104158Y0093414D01*
X0095059Y0093414D01*
X0095059Y0092946D01*
X0095205Y0092021D01*
X0095495Y0091130D01*
X0095920Y0090296D01*
X0096264Y0089823D01*
X0094322Y0087882D01*
X0093122Y0084983D01*
X0093122Y0081845D01*
X0094322Y0078947D01*
X0096541Y0076728D01*
X0099440Y0075528D01*
X0104371Y0075528D01*
X0105744Y0074155D01*
X0079811Y0074155D01*
X0077817Y0073329D01*
X0074292Y0069805D01*
X0069361Y0069805D01*
X0066986Y0068821D01*
X0066986Y0076474D01*
X0069331Y0075502D01*
X0078828Y0075502D01*
X0081736Y0076707D01*
X0083961Y0078932D01*
X0085166Y0081840D01*
X0085166Y0084988D01*
X0083961Y0087896D01*
X0083413Y0088445D01*
X0083915Y0088947D01*
X0085115Y0091845D01*
X0085115Y0094983D01*
X0083930Y0097844D01*
X0087612Y0097844D01*
X0089353Y0098566D01*
X0090686Y0099898D01*
X0090692Y0099913D01*
X0090751Y0099889D01*
X0091292Y0099781D01*
X0093942Y0099781D01*
X0093942Y0105356D01*
X0095492Y0105356D01*
X0095492Y0106906D01*
X0100667Y0106906D01*
X0100667Y0109956D01*
X0100559Y0110497D01*
X0100348Y0111006D01*
X0100042Y0111465D01*
X0099856Y0111651D01*
X0100621Y0112416D01*
X0100743Y0112712D01*
X0101267Y0112712D01*
X0101267Y0112506D01*
X0102414Y0109735D01*
X0104534Y0107615D01*
X0107304Y0106468D01*
X0110303Y0106468D01*
X0113073Y0107615D01*
X0115193Y0109735D01*
X0116341Y0112506D01*
X0116341Y0115504D01*
X0115193Y0118274D01*
X0113073Y0120394D01*
X0110303Y0121542D01*
X0109097Y0121542D01*
X0107922Y0122717D01*
X0110066Y0122717D01*
X0112820Y0123857D01*
X0113208Y0124245D01*
X0113302Y0124206D01*
X0113843Y0124098D01*
X0116100Y0124098D01*
X0116100Y0128879D01*
X0116862Y0128879D01*
X0116862Y0124098D01*
X0118487Y0124098D01*
X0119703Y0122883D01*
X0120952Y0122365D01*
X0120952Y0120380D01*
X0121446Y0119187D01*
X0121427Y0119231D02*
X0114236Y0119231D01*
X0115459Y0117633D02*
X0119892Y0117633D01*
X0118294Y0116034D02*
X0116121Y0116034D01*
X0116341Y0114436D02*
X0117886Y0114436D01*
X0117886Y0112837D02*
X0116341Y0112837D01*
X0116481Y0112036D02*
X0110575Y0106131D01*
X0094717Y0106131D01*
X0095492Y0106443D02*
X0118702Y0106443D01*
X0118447Y0108042D02*
X0113500Y0108042D01*
X0115098Y0109640D02*
X0117886Y0109640D01*
X0117886Y0111239D02*
X0115816Y0111239D01*
X0116481Y0112036D02*
X0116481Y0100028D01*
X0109867Y0093414D01*
X0104158Y0093414D01*
X0104158Y0093414D01*
X0113257Y0093414D01*
X0113257Y0093882D01*
X0113111Y0094807D01*
X0112821Y0095698D01*
X0112396Y0096532D01*
X0111846Y0097290D01*
X0111184Y0097952D01*
X0110426Y0098503D01*
X0109591Y0098928D01*
X0108701Y0099217D01*
X0107776Y0099364D01*
X0104158Y0099364D01*
X0100540Y0099364D01*
X0099615Y0099217D01*
X0098725Y0098928D01*
X0097890Y0098503D01*
X0097132Y0097952D01*
X0096470Y0097290D01*
X0095920Y0096532D01*
X0095495Y0095698D01*
X0095205Y0094807D01*
X0095059Y0093882D01*
X0095059Y0093414D01*
X0104158Y0093414D01*
X0104158Y0099364D01*
X0104158Y0093414D01*
X0104158Y0093414D01*
X0104158Y0093655D02*
X0104158Y0093655D01*
X0104158Y0095254D02*
X0104158Y0095254D01*
X0104158Y0096852D02*
X0104158Y0096852D01*
X0104158Y0098451D02*
X0104158Y0098451D01*
X0100348Y0101255D02*
X0100042Y0100797D01*
X0099652Y0100407D01*
X0099193Y0100100D01*
X0098683Y0099889D01*
X0098142Y0099781D01*
X0095492Y0099781D01*
X0095492Y0105356D01*
X0100667Y0105356D01*
X0100667Y0102306D01*
X0100559Y0101765D01*
X0100348Y0101255D01*
X0100511Y0101648D02*
X0117886Y0101648D01*
X0117886Y0103246D02*
X0100667Y0103246D01*
X0100667Y0104845D02*
X0117886Y0104845D01*
X0117886Y0100049D02*
X0099070Y0100049D01*
X0097818Y0098451D02*
X0089075Y0098451D01*
X0084341Y0096852D02*
X0096152Y0096852D01*
X0095350Y0095254D02*
X0085003Y0095254D01*
X0085115Y0093655D02*
X0095059Y0093655D01*
X0095200Y0092057D02*
X0085115Y0092057D01*
X0084541Y0090458D02*
X0095837Y0090458D01*
X0095300Y0088860D02*
X0083828Y0088860D01*
X0084224Y0087261D02*
X0094065Y0087261D01*
X0093403Y0085663D02*
X0084886Y0085663D01*
X0085166Y0084064D02*
X0093122Y0084064D01*
X0093122Y0082466D02*
X0085166Y0082466D01*
X0084763Y0080867D02*
X0093527Y0080867D01*
X0094189Y0079269D02*
X0084101Y0079269D01*
X0082699Y0077670D02*
X0095599Y0077670D01*
X0098126Y0076072D02*
X0080202Y0076072D01*
X0077362Y0072874D02*
X0066986Y0072874D01*
X0066986Y0071276D02*
X0075764Y0071276D01*
X0069054Y0069677D02*
X0066986Y0069677D01*
X0066986Y0074473D02*
X0105426Y0074473D01*
X0104158Y0061918D02*
X0113257Y0061918D01*
X0104158Y0061918D01*
X0104158Y0061918D01*
X0095059Y0061918D01*
X0095059Y0061450D01*
X0095205Y0060525D01*
X0095495Y0059634D01*
X0095920Y0058800D01*
X0096264Y0058327D01*
X0094322Y0056386D01*
X0093122Y0053487D01*
X0093122Y0050349D01*
X0094322Y0047451D01*
X0096541Y0045232D01*
X0097733Y0044739D01*
X0080596Y0044739D01*
X0081736Y0045211D01*
X0083961Y0047436D01*
X0085166Y0050344D01*
X0085166Y0053492D01*
X0083961Y0056400D01*
X0083413Y0056949D01*
X0083915Y0057451D01*
X0085115Y0060349D01*
X0085115Y0063303D01*
X0095204Y0063303D01*
X0095059Y0062386D01*
X0095059Y0061918D01*
X0104158Y0061918D01*
X0104158Y0061918D01*
X0112052Y0058327D02*
X0112396Y0058800D01*
X0112821Y0059634D01*
X0113111Y0060525D01*
X0113257Y0061450D01*
X0113257Y0061918D01*
X0113257Y0062386D01*
X0113112Y0063303D01*
X0114972Y0063303D01*
X0114972Y0061630D01*
X0120147Y0061630D01*
X0120147Y0060080D01*
X0114972Y0060080D01*
X0114972Y0057030D01*
X0115080Y0056489D01*
X0115291Y0055980D01*
X0115597Y0055521D01*
X0115987Y0055131D01*
X0116097Y0055058D01*
X0115089Y0054641D01*
X0114825Y0054377D01*
X0113994Y0056386D01*
X0112052Y0058327D01*
X0112169Y0058488D02*
X0114972Y0058488D01*
X0115000Y0056889D02*
X0113490Y0056889D01*
X0114447Y0055291D02*
X0115827Y0055291D01*
X0112968Y0060086D02*
X0120147Y0060086D01*
X0114972Y0061685D02*
X0113257Y0061685D01*
X0113115Y0063283D02*
X0114972Y0063283D01*
X0096146Y0058488D02*
X0084344Y0058488D01*
X0085007Y0060086D02*
X0095348Y0060086D01*
X0095059Y0061685D02*
X0085115Y0061685D01*
X0085115Y0063283D02*
X0095201Y0063283D01*
X0094826Y0056889D02*
X0083472Y0056889D01*
X0084421Y0055291D02*
X0093869Y0055291D01*
X0093207Y0053692D02*
X0085083Y0053692D01*
X0085166Y0052094D02*
X0093122Y0052094D01*
X0093122Y0050495D02*
X0085166Y0050495D01*
X0084566Y0048897D02*
X0093723Y0048897D01*
X0094475Y0047298D02*
X0083823Y0047298D01*
X0082225Y0045700D02*
X0096073Y0045700D01*
X0079414Y0035757D02*
X0074079Y0030422D01*
X0079414Y0035757D02*
X0129965Y0035757D01*
X0132119Y0033603D01*
X0132119Y0027391D01*
X0140005Y0028116D02*
X0141586Y0028116D01*
X0141511Y0028191D02*
X0142620Y0027082D01*
X0141292Y0025754D01*
X0140145Y0022984D01*
X0140145Y0019986D01*
X0140492Y0019148D01*
X0139572Y0019148D01*
X0139284Y0019844D01*
X0138627Y0020501D01*
X0139284Y0021158D01*
X0140005Y0022899D01*
X0140005Y0031882D01*
X0139284Y0033623D01*
X0139243Y0033665D01*
X0140668Y0033665D01*
X0140668Y0030226D01*
X0141511Y0028191D01*
X0140880Y0029715D02*
X0140005Y0029715D01*
X0140005Y0031313D02*
X0140668Y0031313D01*
X0140668Y0032912D02*
X0139579Y0032912D01*
X0140005Y0026518D02*
X0142055Y0026518D01*
X0140946Y0024919D02*
X0140005Y0024919D01*
X0140005Y0023321D02*
X0140284Y0023321D01*
X0140145Y0021722D02*
X0139518Y0021722D01*
X0139004Y0020124D02*
X0140145Y0020124D01*
X0147682Y0021485D02*
X0147682Y0015580D01*
X0145713Y0013611D01*
X0132119Y0013611D01*
X0121697Y0021897D02*
X0120147Y0021897D01*
X0120147Y0026616D01*
X0114972Y0026616D01*
X0114972Y0023566D01*
X0115080Y0023025D01*
X0115291Y0022515D01*
X0115597Y0022056D01*
X0115987Y0021666D01*
X0116097Y0021593D01*
X0115194Y0021220D01*
X0115194Y0021991D01*
X0113994Y0024889D01*
X0112052Y0026831D01*
X0112396Y0027304D01*
X0112821Y0028138D01*
X0113111Y0029029D01*
X0113257Y0029954D01*
X0113257Y0030220D01*
X0114972Y0030220D01*
X0114972Y0028165D01*
X0120147Y0028165D01*
X0120147Y0026616D01*
X0121697Y0026616D01*
X0121697Y0021897D01*
X0121697Y0023321D02*
X0120147Y0023321D01*
X0120147Y0024919D02*
X0121697Y0024919D01*
X0121697Y0026518D02*
X0120147Y0026518D01*
X0120922Y0027391D02*
X0107189Y0027391D01*
X0104158Y0030422D01*
X0112365Y0026518D02*
X0114972Y0026518D01*
X0114972Y0024919D02*
X0113964Y0024919D01*
X0114643Y0023321D02*
X0115021Y0023321D01*
X0115194Y0021722D02*
X0115932Y0021722D01*
X0112810Y0028116D02*
X0120147Y0028116D01*
X0114972Y0029715D02*
X0113219Y0029715D01*
X0074079Y0020422D02*
X0067465Y0020422D01*
X0065497Y0022391D01*
X0056134Y0015328D02*
X0056024Y0015328D01*
X0056453Y0013730D02*
X0054705Y0013730D01*
X0052537Y0012131D02*
X0057335Y0012131D01*
X0045149Y0012131D02*
X0031363Y0012131D01*
X0031363Y0013730D02*
X0035720Y0013730D01*
X0034122Y0015328D02*
X0031363Y0015328D01*
X0031363Y0016927D02*
X0032543Y0016927D01*
X0032543Y0018525D02*
X0031363Y0018525D01*
X0031363Y0020124D02*
X0032543Y0020124D01*
X0032543Y0021722D02*
X0031363Y0021722D01*
X0031363Y0023321D02*
X0033738Y0023321D01*
X0035336Y0024919D02*
X0031363Y0024919D01*
X0031363Y0026518D02*
X0044221Y0026518D01*
X0042597Y0024919D02*
X0042350Y0024919D01*
X0038843Y0024919D02*
X0038843Y0024919D01*
X0038843Y0023321D02*
X0038843Y0023321D01*
X0038843Y0021722D02*
X0038843Y0021722D01*
X0038843Y0020124D02*
X0038843Y0020124D01*
X0038843Y0018525D02*
X0038843Y0018525D01*
X0038843Y0016927D02*
X0038843Y0016927D01*
X0038843Y0015328D02*
X0038843Y0015328D01*
X0038843Y0013730D02*
X0038843Y0013730D01*
X0041966Y0013730D02*
X0042981Y0013730D01*
X0049895Y0036109D02*
X0056134Y0036109D01*
X0056134Y0037707D02*
X0053351Y0037707D01*
X0054950Y0039306D02*
X0056134Y0039306D01*
X0056134Y0040904D02*
X0055977Y0040904D01*
X0066986Y0076072D02*
X0067957Y0076072D01*
X0074079Y0093414D02*
X0074079Y0100934D01*
X0079276Y0106131D01*
X0083520Y0106131D01*
X0093942Y0104845D02*
X0095492Y0104845D01*
X0095492Y0103246D02*
X0093942Y0103246D01*
X0093942Y0101648D02*
X0095492Y0101648D01*
X0095492Y0100049D02*
X0093942Y0100049D01*
X0100667Y0108042D02*
X0104108Y0108042D01*
X0102509Y0109640D02*
X0100667Y0109640D01*
X0100193Y0111239D02*
X0101791Y0111239D01*
X0104560Y0118249D02*
X0108804Y0114005D01*
X0104560Y0118249D02*
X0093056Y0118249D01*
X0101914Y0128276D02*
X0106343Y0123847D01*
X0112544Y0123847D01*
X0116481Y0119910D01*
X0116481Y0112036D01*
X0116481Y0119910D02*
X0116481Y0129261D01*
X0116100Y0128822D02*
X0116862Y0128822D01*
X0116862Y0127224D02*
X0116100Y0127224D01*
X0116100Y0125625D02*
X0116862Y0125625D01*
X0118559Y0124027D02*
X0112989Y0124027D01*
X0112022Y0120830D02*
X0120952Y0120830D01*
X0120800Y0122428D02*
X0108211Y0122428D01*
X0101914Y0128276D02*
X0101914Y0139595D01*
X0101085Y0140012D02*
X0103208Y0140012D01*
X0103208Y0139026D02*
X0104099Y0138135D01*
X0103975Y0138011D01*
X0103149Y0136017D01*
X0103149Y0135380D01*
X0102223Y0134454D01*
X0101342Y0132326D01*
X0101342Y0133538D01*
X0100621Y0135279D01*
X0099288Y0136611D01*
X0099030Y0136718D01*
X0100208Y0137896D01*
X0101493Y0140997D01*
X0101493Y0144353D01*
X0100675Y0146328D01*
X0105145Y0150799D01*
X0105145Y0149829D01*
X0106135Y0148839D01*
X0103208Y0145912D01*
X0103208Y0139026D01*
X0103821Y0138413D02*
X0100423Y0138413D01*
X0099127Y0136815D02*
X0103480Y0136815D01*
X0102986Y0135216D02*
X0100646Y0135216D01*
X0101309Y0133618D02*
X0101877Y0133618D01*
X0101493Y0141610D02*
X0103208Y0141610D01*
X0103208Y0143209D02*
X0101493Y0143209D01*
X0101304Y0144807D02*
X0103208Y0144807D01*
X0103702Y0146406D02*
X0100752Y0146406D01*
X0102351Y0148005D02*
X0105301Y0148005D01*
X0105371Y0149603D02*
X0103949Y0149603D01*
X0092856Y0153875D02*
X0086556Y0153875D01*
X0086556Y0153840D01*
X0079871Y0153840D01*
X0079871Y0153875D01*
X0073571Y0153875D01*
X0073571Y0154275D01*
X0079871Y0154275D01*
X0079871Y0154501D01*
X0079759Y0155346D01*
X0079539Y0156169D01*
X0079213Y0156956D01*
X0078787Y0157694D01*
X0078567Y0157980D01*
X0087859Y0157980D01*
X0087639Y0157694D01*
X0087213Y0156956D01*
X0086887Y0156169D01*
X0086667Y0155346D01*
X0086556Y0154501D01*
X0086556Y0154275D01*
X0092856Y0154275D01*
X0092856Y0153875D01*
X0086556Y0154399D02*
X0079871Y0154399D01*
X0079585Y0155997D02*
X0086841Y0155997D01*
X0087583Y0157596D02*
X0078843Y0157596D01*
X0073171Y0154275D02*
X0073171Y0153875D01*
X0066871Y0153875D01*
X0066871Y0153840D01*
X0060186Y0153840D01*
X0060186Y0153875D01*
X0053886Y0153875D01*
X0053886Y0154275D01*
X0060186Y0154275D01*
X0060186Y0154501D01*
X0060074Y0155346D01*
X0059854Y0156169D01*
X0059528Y0156956D01*
X0059102Y0157694D01*
X0058882Y0157980D01*
X0068174Y0157980D01*
X0067954Y0157694D01*
X0067528Y0156956D01*
X0067202Y0156169D01*
X0066982Y0155346D01*
X0066871Y0154501D01*
X0066871Y0154275D01*
X0073171Y0154275D01*
X0067898Y0157596D02*
X0059158Y0157596D01*
X0059900Y0155997D02*
X0067156Y0155997D01*
X0066871Y0154399D02*
X0060186Y0154399D01*
X0053485Y0154275D02*
X0053485Y0153875D01*
X0047186Y0153875D01*
X0047186Y0153649D01*
X0047297Y0152804D01*
X0047517Y0151981D01*
X0047843Y0151194D01*
X0048269Y0150456D01*
X0048788Y0149780D01*
X0048824Y0149744D01*
X0046533Y0147454D01*
X0045249Y0144353D01*
X0045249Y0140997D01*
X0046533Y0137896D01*
X0048906Y0135522D01*
X0052007Y0134238D01*
X0055364Y0134238D01*
X0058465Y0135522D01*
X0060838Y0137896D01*
X0062123Y0140997D01*
X0062123Y0142988D01*
X0064934Y0142988D01*
X0064934Y0140997D01*
X0066218Y0137896D01*
X0067396Y0136718D01*
X0067138Y0136611D01*
X0065806Y0135279D01*
X0065084Y0133538D01*
X0065084Y0125354D01*
X0065708Y0123847D01*
X0065637Y0123675D01*
X0062756Y0123675D01*
X0060762Y0122849D01*
X0058486Y0120573D01*
X0056960Y0119047D01*
X0056134Y0117053D01*
X0056134Y0107872D01*
X0055573Y0109225D01*
X0053066Y0111732D01*
X0049791Y0113089D01*
X0037896Y0113089D01*
X0034620Y0111732D01*
X0032113Y0109225D01*
X0031363Y0107415D01*
X0031363Y0143745D01*
X0031861Y0143458D01*
X0034568Y0142732D01*
X0037370Y0142732D01*
X0040077Y0143458D01*
X0042504Y0144859D01*
X0044485Y0146840D01*
X0045886Y0149267D01*
X0046612Y0151974D01*
X0046612Y0154776D01*
X0045886Y0157483D01*
X0045599Y0157980D01*
X0048489Y0157980D01*
X0048269Y0157694D01*
X0047843Y0156956D01*
X0047517Y0156169D01*
X0047297Y0155346D01*
X0047186Y0154501D01*
X0047186Y0154275D01*
X0053485Y0154275D01*
X0048213Y0157596D02*
X0045821Y0157596D01*
X0046284Y0155997D02*
X0047471Y0155997D01*
X0047186Y0154399D02*
X0046612Y0154399D01*
X0046612Y0152800D02*
X0047298Y0152800D01*
X0047840Y0151202D02*
X0046405Y0151202D01*
X0045976Y0149603D02*
X0048682Y0149603D01*
X0047084Y0148005D02*
X0045157Y0148005D01*
X0046099Y0146406D02*
X0044051Y0146406D01*
X0045437Y0144807D02*
X0042415Y0144807D01*
X0045249Y0143209D02*
X0039149Y0143209D01*
X0045249Y0141610D02*
X0031363Y0141610D01*
X0031363Y0140012D02*
X0045656Y0140012D01*
X0046319Y0138413D02*
X0031363Y0138413D01*
X0031363Y0136815D02*
X0047614Y0136815D01*
X0049645Y0135216D02*
X0031363Y0135216D01*
X0031363Y0133618D02*
X0065118Y0133618D01*
X0065084Y0132019D02*
X0031363Y0132019D01*
X0031363Y0130421D02*
X0037240Y0130421D01*
X0037421Y0130496D02*
X0036577Y0130146D01*
X0035785Y0129689D01*
X0035060Y0129132D01*
X0034413Y0128486D01*
X0033856Y0127760D01*
X0033399Y0126969D01*
X0033049Y0126124D01*
X0032813Y0125241D01*
X0032699Y0124377D01*
X0043343Y0124377D01*
X0043343Y0123377D01*
X0044343Y0123377D01*
X0044343Y0116902D01*
X0048475Y0116902D01*
X0049381Y0117022D01*
X0050265Y0117258D01*
X0051109Y0117608D01*
X0051901Y0118065D01*
X0052627Y0118622D01*
X0053273Y0119268D01*
X0053830Y0119994D01*
X0054287Y0120786D01*
X0054637Y0121630D01*
X0054873Y0122514D01*
X0054987Y0123377D01*
X0044343Y0123377D01*
X0044343Y0124377D01*
X0054987Y0124377D01*
X0054873Y0125241D01*
X0054637Y0126124D01*
X0054287Y0126969D01*
X0053830Y0127760D01*
X0053273Y0128486D01*
X0052627Y0129132D01*
X0051901Y0129689D01*
X0051109Y0130146D01*
X0050265Y0130496D01*
X0049381Y0130733D01*
X0048475Y0130852D01*
X0044343Y0130852D01*
X0044343Y0124377D01*
X0043343Y0124377D01*
X0043343Y0130852D01*
X0039211Y0130852D01*
X0038305Y0130733D01*
X0037421Y0130496D01*
X0034750Y0128822D02*
X0031363Y0128822D01*
X0031363Y0127224D02*
X0033547Y0127224D01*
X0032916Y0125625D02*
X0031363Y0125625D01*
X0031363Y0124027D02*
X0043343Y0124027D01*
X0043343Y0123377D02*
X0032699Y0123377D01*
X0032813Y0122514D01*
X0033049Y0121630D01*
X0033399Y0120786D01*
X0033856Y0119994D01*
X0034413Y0119268D01*
X0035060Y0118622D01*
X0035785Y0118065D01*
X0036577Y0117608D01*
X0037421Y0117258D01*
X0038305Y0117022D01*
X0039211Y0116902D01*
X0043343Y0116902D01*
X0043343Y0123377D01*
X0043343Y0122428D02*
X0044343Y0122428D01*
X0044343Y0120830D02*
X0043343Y0120830D01*
X0043343Y0119231D02*
X0044343Y0119231D01*
X0044343Y0117633D02*
X0043343Y0117633D01*
X0050398Y0112837D02*
X0056134Y0112837D01*
X0056134Y0111239D02*
X0053559Y0111239D01*
X0055158Y0109640D02*
X0056134Y0109640D01*
X0056134Y0108042D02*
X0056063Y0108042D01*
X0056134Y0114436D02*
X0031363Y0114436D01*
X0031363Y0116034D02*
X0056134Y0116034D01*
X0056374Y0117633D02*
X0051152Y0117633D01*
X0053236Y0119231D02*
X0057144Y0119231D01*
X0058743Y0120830D02*
X0054305Y0120830D01*
X0054850Y0122428D02*
X0060341Y0122428D01*
X0065634Y0124027D02*
X0044343Y0124027D01*
X0044343Y0125625D02*
X0043343Y0125625D01*
X0043343Y0127224D02*
X0044343Y0127224D01*
X0044343Y0128822D02*
X0043343Y0128822D01*
X0043343Y0130421D02*
X0044343Y0130421D01*
X0050446Y0130421D02*
X0065084Y0130421D01*
X0065084Y0128822D02*
X0052936Y0128822D01*
X0054139Y0127224D02*
X0065084Y0127224D01*
X0065084Y0125625D02*
X0054770Y0125625D01*
X0057726Y0135216D02*
X0065780Y0135216D01*
X0067299Y0136815D02*
X0059757Y0136815D01*
X0061053Y0138413D02*
X0066004Y0138413D01*
X0065341Y0140012D02*
X0061715Y0140012D01*
X0062123Y0141610D02*
X0064934Y0141610D01*
X0073371Y0142675D02*
X0073371Y0129446D01*
X0093056Y0129446D02*
X0093056Y0142675D01*
X0124749Y0129261D02*
X0136670Y0129261D01*
X0142268Y0137627D02*
X0152111Y0137627D01*
X0154079Y0135658D01*
X0154079Y0131229D01*
X0152111Y0129261D01*
X0160292Y0129261D01*
X0152111Y0129261D02*
X0147867Y0129261D01*
X0147867Y0125509D01*
X0142268Y0137627D02*
X0140300Y0139595D01*
X0140300Y0149438D01*
X0145837Y0143736D02*
X0146176Y0143596D01*
X0146717Y0143488D01*
X0150745Y0143488D01*
X0150745Y0148663D01*
X0152295Y0148663D01*
X0152295Y0150213D01*
X0158848Y0150213D01*
X0158848Y0152500D01*
X0167059Y0152500D01*
X0167059Y0145346D01*
X0167315Y0144727D01*
X0165820Y0143232D01*
X0165769Y0143211D01*
X0162817Y0140258D01*
X0161290Y0138732D01*
X0160800Y0137547D01*
X0159290Y0137547D01*
X0158773Y0138795D01*
X0157216Y0140352D01*
X0155247Y0142321D01*
X0153212Y0143164D01*
X0145837Y0143164D01*
X0145837Y0143736D01*
X0145837Y0143209D02*
X0165768Y0143209D01*
X0167282Y0144807D02*
X0158426Y0144807D01*
X0158529Y0144962D02*
X0158740Y0145471D01*
X0158848Y0146012D01*
X0158848Y0148663D01*
X0152295Y0148663D01*
X0152295Y0143488D01*
X0156324Y0143488D01*
X0156864Y0143596D01*
X0157374Y0143807D01*
X0157833Y0144113D01*
X0158223Y0144503D01*
X0158529Y0144962D01*
X0158848Y0146406D02*
X0167059Y0146406D01*
X0167059Y0148005D02*
X0158848Y0148005D01*
X0158848Y0151202D02*
X0167059Y0151202D01*
X0167059Y0149603D02*
X0152295Y0149603D01*
X0152295Y0148005D02*
X0150745Y0148005D01*
X0150745Y0146406D02*
X0152295Y0146406D01*
X0152295Y0144807D02*
X0150745Y0144807D01*
X0155958Y0141610D02*
X0164169Y0141610D01*
X0162570Y0140012D02*
X0157556Y0140012D01*
X0158931Y0138413D02*
X0161158Y0138413D01*
X0185341Y0144750D02*
X0186680Y0144195D01*
X0187777Y0143098D01*
X0188855Y0143545D01*
X0192452Y0143545D01*
X0192452Y0143605D01*
X0191852Y0143854D01*
X0189096Y0146610D01*
X0187616Y0148089D01*
X0186927Y0148375D01*
X0185595Y0149707D01*
X0185588Y0149724D01*
X0185588Y0145346D01*
X0185341Y0144750D01*
X0185365Y0144807D02*
X0190898Y0144807D01*
X0189300Y0146406D02*
X0185588Y0146406D01*
X0185588Y0148005D02*
X0187701Y0148005D01*
X0185699Y0149603D02*
X0185588Y0149603D01*
X0187667Y0143209D02*
X0188044Y0143209D01*
X0199534Y0136463D02*
X0206399Y0136463D01*
X0207623Y0136970D01*
X0208846Y0136463D01*
X0209534Y0136463D01*
X0209534Y0134159D01*
X0209652Y0133875D01*
X0207906Y0133152D01*
X0205798Y0131044D01*
X0204657Y0128290D01*
X0204657Y0125310D01*
X0205798Y0122556D01*
X0207906Y0120448D01*
X0210660Y0119307D01*
X0213641Y0119307D01*
X0216395Y0120448D01*
X0218126Y0122179D01*
X0218176Y0122200D01*
X0218860Y0122884D01*
X0218860Y0117137D01*
X0211995Y0117137D01*
X0210772Y0116630D01*
X0209549Y0117137D01*
X0205696Y0117137D01*
X0204473Y0116630D01*
X0203250Y0117137D01*
X0199534Y0117137D01*
X0199534Y0124002D01*
X0199534Y0127152D01*
X0199534Y0136463D01*
X0199534Y0135216D02*
X0209534Y0135216D01*
X0209030Y0133618D02*
X0199534Y0133618D01*
X0199534Y0132019D02*
X0206773Y0132019D01*
X0205540Y0130421D02*
X0199534Y0130421D01*
X0199534Y0128822D02*
X0204878Y0128822D01*
X0204657Y0127224D02*
X0199534Y0127224D01*
X0199534Y0125625D02*
X0204657Y0125625D01*
X0205189Y0124027D02*
X0199534Y0124027D01*
X0199534Y0122428D02*
X0205925Y0122428D01*
X0207524Y0120830D02*
X0199534Y0120830D01*
X0199534Y0119231D02*
X0218860Y0119231D01*
X0218860Y0117633D02*
X0199534Y0117633D01*
X0216777Y0120830D02*
X0218860Y0120830D01*
X0218860Y0122428D02*
X0218405Y0122428D01*
X0217071Y0109900D02*
X0217071Y0104162D01*
X0228197Y0094320D02*
X0228197Y0089698D01*
X0224945Y0086446D01*
X0219040Y0086446D01*
X0215103Y0082509D01*
X0215103Y0076406D01*
X0222118Y0071276D02*
X0233299Y0071276D01*
X0233299Y0072874D02*
X0230906Y0072874D01*
X0231317Y0073008D02*
X0232207Y0073461D01*
X0233015Y0074048D01*
X0233299Y0074332D01*
X0233299Y0065104D01*
X0232335Y0064140D01*
X0231188Y0061370D01*
X0231188Y0059104D01*
X0230933Y0058998D01*
X0223849Y0051915D01*
X0222945Y0049733D01*
X0222945Y0044660D01*
X0221863Y0043577D01*
X0220602Y0040534D01*
X0220602Y0037240D01*
X0221863Y0034196D01*
X0222230Y0033829D01*
X0221454Y0033053D01*
X0220739Y0033769D01*
X0218998Y0034490D01*
X0216969Y0034490D01*
X0217081Y0034602D01*
X0217387Y0035060D01*
X0217598Y0035570D01*
X0217706Y0036111D01*
X0217706Y0038933D01*
X0212163Y0038933D01*
X0212163Y0040533D01*
X0217706Y0040533D01*
X0217706Y0043355D01*
X0217598Y0043896D01*
X0217387Y0044406D01*
X0217081Y0044864D01*
X0216691Y0045254D01*
X0216232Y0045561D01*
X0215723Y0045772D01*
X0215182Y0045880D01*
X0212163Y0045880D01*
X0212163Y0040533D01*
X0210563Y0040533D01*
X0210563Y0045880D01*
X0210343Y0045880D01*
X0210829Y0047053D01*
X0210829Y0050051D01*
X0210329Y0051257D01*
X0210408Y0051273D01*
X0210917Y0051484D01*
X0211376Y0051790D01*
X0211766Y0052180D01*
X0212072Y0052639D01*
X0212283Y0053149D01*
X0212391Y0053690D01*
X0212391Y0056439D01*
X0207512Y0056439D01*
X0207512Y0057398D01*
X0212391Y0057398D01*
X0212391Y0060147D01*
X0212283Y0060688D01*
X0212072Y0061197D01*
X0211766Y0061656D01*
X0211376Y0062046D01*
X0210917Y0062352D01*
X0210408Y0062563D01*
X0209867Y0062671D01*
X0207512Y0062671D01*
X0207512Y0057398D01*
X0206848Y0057398D01*
X0206848Y0060813D01*
X0206552Y0061526D01*
X0206552Y0062671D01*
X0206010Y0062671D01*
X0204794Y0063887D01*
X0203053Y0064608D01*
X0202531Y0064608D01*
X0202820Y0065041D01*
X0203031Y0065550D01*
X0203139Y0066091D01*
X0203139Y0068446D01*
X0197866Y0068446D01*
X0197866Y0069110D01*
X0201281Y0069110D01*
X0201994Y0069406D01*
X0203139Y0069406D01*
X0203139Y0069948D01*
X0204171Y0070980D01*
X0204174Y0070980D01*
X0206169Y0071806D01*
X0207413Y0073051D01*
X0207413Y0072905D01*
X0208134Y0071164D01*
X0209350Y0069948D01*
X0209350Y0069406D01*
X0210495Y0069406D01*
X0211208Y0069110D01*
X0214623Y0069110D01*
X0214623Y0068446D01*
X0215582Y0068446D01*
X0215582Y0063567D01*
X0218331Y0063567D01*
X0218872Y0063675D01*
X0219382Y0063886D01*
X0219841Y0064192D01*
X0220231Y0064582D01*
X0220537Y0065041D01*
X0220748Y0065550D01*
X0220856Y0066091D01*
X0220856Y0068446D01*
X0215582Y0068446D01*
X0215582Y0069110D01*
X0218998Y0069110D01*
X0219711Y0069406D01*
X0220856Y0069406D01*
X0220856Y0069948D01*
X0222071Y0071164D01*
X0222793Y0072905D01*
X0222793Y0077102D01*
X0223004Y0076452D01*
X0223457Y0075562D01*
X0224044Y0074754D01*
X0224750Y0074048D01*
X0225558Y0073461D01*
X0226447Y0073008D01*
X0227397Y0072699D01*
X0228383Y0072543D01*
X0228698Y0072543D01*
X0228698Y0078702D01*
X0229067Y0078702D01*
X0229067Y0072543D01*
X0229382Y0072543D01*
X0230368Y0072699D01*
X0231317Y0073008D01*
X0229067Y0072874D02*
X0228698Y0072874D01*
X0228698Y0074473D02*
X0229067Y0074473D01*
X0229067Y0076072D02*
X0228698Y0076072D01*
X0228698Y0077670D02*
X0229067Y0077670D01*
X0224325Y0074473D02*
X0222793Y0074473D01*
X0222793Y0076072D02*
X0223198Y0076072D01*
X0222780Y0072874D02*
X0226858Y0072874D01*
X0220856Y0069677D02*
X0233299Y0069677D01*
X0233299Y0068079D02*
X0220856Y0068079D01*
X0220856Y0066480D02*
X0233299Y0066480D01*
X0233077Y0064882D02*
X0220431Y0064882D01*
X0215582Y0064882D02*
X0214623Y0064882D01*
X0214623Y0063567D02*
X0211874Y0063567D01*
X0211333Y0063675D01*
X0210824Y0063886D01*
X0210365Y0064192D01*
X0209975Y0064582D01*
X0209669Y0065041D01*
X0209458Y0065550D01*
X0209350Y0066091D01*
X0209350Y0068446D01*
X0214623Y0068446D01*
X0214623Y0063567D01*
X0212391Y0060086D02*
X0231188Y0060086D01*
X0231318Y0061685D02*
X0211737Y0061685D01*
X0212391Y0058488D02*
X0230422Y0058488D01*
X0228824Y0056889D02*
X0207512Y0056889D01*
X0207512Y0058488D02*
X0206848Y0058488D01*
X0206848Y0060086D02*
X0207512Y0060086D01*
X0207512Y0061685D02*
X0206552Y0061685D01*
X0205397Y0063283D02*
X0231980Y0063283D01*
X0227225Y0055291D02*
X0212391Y0055291D01*
X0212391Y0053692D02*
X0225627Y0053692D01*
X0224028Y0052094D02*
X0211679Y0052094D01*
X0210645Y0050495D02*
X0223261Y0050495D01*
X0222945Y0048897D02*
X0210829Y0048897D01*
X0210829Y0047298D02*
X0222945Y0047298D01*
X0222945Y0045700D02*
X0215897Y0045700D01*
X0217513Y0044101D02*
X0222387Y0044101D01*
X0221418Y0042503D02*
X0217706Y0042503D01*
X0217706Y0040904D02*
X0220756Y0040904D01*
X0220602Y0039306D02*
X0212163Y0039306D01*
X0212163Y0040904D02*
X0210563Y0040904D01*
X0210563Y0042503D02*
X0212163Y0042503D01*
X0212163Y0044101D02*
X0210563Y0044101D01*
X0210563Y0045700D02*
X0212163Y0045700D01*
X0217706Y0037707D02*
X0220602Y0037707D01*
X0221070Y0036109D02*
X0217706Y0036109D01*
X0216989Y0034510D02*
X0221733Y0034510D01*
X0235535Y0033829D02*
X0235902Y0034196D01*
X0237163Y0037240D01*
X0237163Y0040534D01*
X0235902Y0043577D01*
X0234819Y0044660D01*
X0234819Y0046093D01*
X0236755Y0048028D01*
X0242267Y0048028D01*
X0242267Y0046170D01*
X0242267Y0043561D01*
X0243288Y0042540D01*
X0241584Y0040836D01*
X0240330Y0037809D01*
X0240330Y0034532D01*
X0241297Y0032199D01*
X0240361Y0031812D01*
X0238241Y0029691D01*
X0237169Y0027103D01*
X0237169Y0031175D01*
X0236447Y0032916D01*
X0235535Y0033829D01*
X0236032Y0034510D02*
X0240339Y0034510D01*
X0240330Y0036109D02*
X0236694Y0036109D01*
X0237163Y0037707D02*
X0240330Y0037707D01*
X0240951Y0039306D02*
X0237163Y0039306D01*
X0237009Y0040904D02*
X0241653Y0040904D01*
X0243251Y0042503D02*
X0236347Y0042503D01*
X0235378Y0044101D02*
X0242267Y0044101D01*
X0242267Y0045700D02*
X0234819Y0045700D01*
X0236025Y0047298D02*
X0242267Y0047298D01*
X0242267Y0046170D02*
X0248567Y0046170D01*
X0242267Y0046170D01*
X0248567Y0046170D02*
X0248567Y0046170D01*
X0248568Y0046170D02*
X0248568Y0046170D01*
X0254867Y0046170D01*
X0254867Y0043561D01*
X0253847Y0042540D01*
X0255550Y0040836D01*
X0256804Y0037809D01*
X0256804Y0034532D01*
X0255550Y0031504D01*
X0253233Y0029187D01*
X0251522Y0028478D01*
X0252167Y0026921D01*
X0252167Y0026222D01*
X0253906Y0026222D01*
X0256612Y0025497D01*
X0257110Y0025209D01*
X0257110Y0056572D01*
X0252092Y0051555D01*
X0254867Y0048780D01*
X0254867Y0046170D01*
X0248568Y0046170D01*
X0253152Y0050495D02*
X0257110Y0050495D01*
X0257110Y0048897D02*
X0254750Y0048897D01*
X0254867Y0047298D02*
X0257110Y0047298D01*
X0257110Y0045700D02*
X0254867Y0045700D01*
X0254867Y0044101D02*
X0257110Y0044101D01*
X0257110Y0042503D02*
X0253884Y0042503D01*
X0255482Y0040904D02*
X0257110Y0040904D01*
X0257110Y0039306D02*
X0256184Y0039306D01*
X0256804Y0037707D02*
X0257110Y0037707D01*
X0257110Y0036109D02*
X0256804Y0036109D01*
X0256796Y0034510D02*
X0257110Y0034510D01*
X0257110Y0032912D02*
X0256133Y0032912D01*
X0255359Y0031313D02*
X0257110Y0031313D01*
X0257110Y0029715D02*
X0253761Y0029715D01*
X0251672Y0028116D02*
X0257110Y0028116D01*
X0257110Y0026518D02*
X0252167Y0026518D01*
X0241001Y0032912D02*
X0236449Y0032912D01*
X0237112Y0031313D02*
X0239863Y0031313D01*
X0238264Y0029715D02*
X0237169Y0029715D01*
X0237169Y0028116D02*
X0237588Y0028116D01*
X0252631Y0052094D02*
X0257110Y0052094D01*
X0257110Y0053692D02*
X0254230Y0053692D01*
X0255829Y0055291D02*
X0257110Y0055291D01*
X0215582Y0066480D02*
X0214623Y0066480D01*
X0214623Y0068079D02*
X0215582Y0068079D01*
X0209350Y0068079D02*
X0203139Y0068079D01*
X0203139Y0069677D02*
X0209350Y0069677D01*
X0208088Y0071276D02*
X0204888Y0071276D01*
X0207237Y0072874D02*
X0207426Y0072874D01*
X0209350Y0066480D02*
X0203139Y0066480D01*
X0202714Y0064882D02*
X0209775Y0064882D01*
X0194017Y0063595D02*
X0192977Y0062554D01*
X0192256Y0060813D01*
X0192256Y0053555D01*
X0191202Y0052502D01*
X0186465Y0052502D01*
X0184470Y0051676D01*
X0182547Y0049752D01*
X0182242Y0050058D01*
X0181784Y0050364D01*
X0181274Y0050575D01*
X0180733Y0050683D01*
X0176127Y0050683D01*
X0176127Y0047620D01*
X0176126Y0047620D01*
X0176126Y0050683D01*
X0171520Y0050683D01*
X0170979Y0050575D01*
X0170469Y0050364D01*
X0170011Y0050058D01*
X0169621Y0049668D01*
X0169314Y0049209D01*
X0169103Y0048699D01*
X0168996Y0048158D01*
X0168996Y0046782D01*
X0167780Y0045566D01*
X0167059Y0043825D01*
X0167059Y0040332D01*
X0165995Y0041396D01*
X0164722Y0041923D01*
X0164722Y0043825D01*
X0164566Y0044202D01*
X0164722Y0044578D01*
X0164722Y0048825D01*
X0164001Y0050566D01*
X0163563Y0051004D01*
X0166117Y0053559D01*
X0166199Y0053361D01*
X0167532Y0052028D01*
X0169273Y0051307D01*
X0178256Y0051307D01*
X0179997Y0052028D01*
X0181329Y0053361D01*
X0182051Y0055102D01*
X0182051Y0059905D01*
X0182743Y0060192D01*
X0184270Y0061719D01*
X0186740Y0064189D01*
X0188050Y0064189D01*
X0190804Y0065330D01*
X0191634Y0066159D01*
X0191634Y0066091D01*
X0191741Y0065550D01*
X0191952Y0065041D01*
X0192259Y0064582D01*
X0192649Y0064192D01*
X0193107Y0063886D01*
X0193617Y0063675D01*
X0194017Y0063595D01*
X0193706Y0063283D02*
X0185835Y0063283D01*
X0184236Y0061685D02*
X0192617Y0061685D01*
X0192256Y0060086D02*
X0182488Y0060086D01*
X0182051Y0058488D02*
X0192256Y0058488D01*
X0192256Y0056889D02*
X0182051Y0056889D01*
X0182051Y0055291D02*
X0192256Y0055291D01*
X0192256Y0053692D02*
X0181467Y0053692D01*
X0180062Y0052094D02*
X0185480Y0052094D01*
X0183290Y0050495D02*
X0181466Y0050495D01*
X0176127Y0050495D02*
X0176126Y0050495D01*
X0176126Y0048897D02*
X0176127Y0048897D01*
X0170787Y0050495D02*
X0164030Y0050495D01*
X0164652Y0052094D02*
X0167466Y0052094D01*
X0169185Y0048897D02*
X0164692Y0048897D01*
X0164722Y0047298D02*
X0168996Y0047298D01*
X0167914Y0045700D02*
X0164722Y0045700D01*
X0164607Y0044101D02*
X0167173Y0044101D01*
X0167059Y0042503D02*
X0164722Y0042503D01*
X0166487Y0040904D02*
X0167059Y0040904D01*
X0167859Y0031702D02*
X0155654Y0031702D01*
X0163922Y0059194D02*
X0173764Y0059194D01*
X0173764Y0070391D02*
X0173764Y0074635D01*
X0169520Y0078879D01*
X0169520Y0082509D01*
X0189723Y0064882D02*
X0192058Y0064882D01*
X0252705Y0085025D02*
X0252705Y0085425D01*
X0257110Y0085425D01*
X0257110Y0085025D01*
X0252705Y0085025D01*
X0207996Y0136815D02*
X0207249Y0136815D01*
X0205009Y0153880D02*
X0205009Y0154864D01*
X0200130Y0154864D01*
X0200130Y0155823D01*
X0205009Y0155823D01*
X0205009Y0157980D01*
X0210433Y0157980D01*
X0210433Y0155823D01*
X0215312Y0155823D01*
X0215312Y0154864D01*
X0210433Y0154864D01*
X0210433Y0153880D01*
X0205009Y0153880D01*
X0205009Y0154399D02*
X0210433Y0154399D01*
X0210433Y0155997D02*
X0205009Y0155997D01*
X0205009Y0157596D02*
X0210433Y0157596D01*
X0118038Y0098451D02*
X0110498Y0098451D01*
X0112164Y0096852D02*
X0117850Y0096852D01*
X0117188Y0095254D02*
X0112966Y0095254D01*
X0113257Y0093655D02*
X0117015Y0093655D01*
X0117015Y0092057D02*
X0113116Y0092057D01*
X0112479Y0090458D02*
X0117586Y0090458D01*
X0118369Y0088860D02*
X0113016Y0088860D01*
X0114251Y0087261D02*
X0119967Y0087261D01*
X0037288Y0112837D02*
X0031363Y0112837D01*
X0031363Y0111239D02*
X0034127Y0111239D01*
X0032528Y0109640D02*
X0031363Y0109640D01*
X0031363Y0108042D02*
X0031623Y0108042D01*
X0031363Y0117633D02*
X0036534Y0117633D01*
X0034450Y0119231D02*
X0031363Y0119231D01*
X0031363Y0120830D02*
X0033381Y0120830D01*
X0032836Y0122428D02*
X0031363Y0122428D01*
X0031363Y0143209D02*
X0032789Y0143209D01*
D34*
X0101914Y0139595D03*
X0128489Y0121879D03*
X0108804Y0114005D03*
X0124552Y0093335D03*
X0130804Y0087776D03*
X0146697Y0082509D03*
X0169827Y0094320D03*
X0175733Y0112036D03*
X0173764Y0119910D03*
X0181441Y0122076D03*
X0157524Y0112036D03*
X0181638Y0078572D03*
X0207032Y0068926D03*
X0203292Y0048552D03*
X0238725Y0059871D03*
X0256441Y0027391D03*
X0244630Y0025422D03*
X0147682Y0021485D03*
X0141284Y0027391D03*
X0146205Y0051997D03*
X0102898Y0011643D03*
X0228882Y0108099D03*
X0244138Y0109576D03*
X0244138Y0122371D03*
X0243154Y0142548D03*
X0226746Y0143700D03*
X0217071Y0135658D03*
X0207721Y0153375D03*
X0187827Y0147186D03*
X0165237Y0153170D03*
X0140300Y0149438D03*
D35*
X0135512Y0151981D02*
X0135512Y0140713D01*
X0128981Y0134182D01*
X0122091Y0134182D01*
X0120615Y0132706D01*
X0120615Y0130245D01*
X0119630Y0129261D01*
X0116481Y0129261D01*
X0108575Y0130209D02*
X0108575Y0134938D01*
X0110280Y0136643D01*
X0126119Y0136643D01*
X0130756Y0141280D01*
X0130756Y0147225D01*
X0135512Y0151981D02*
X0137890Y0154359D01*
X0164048Y0154359D01*
X0165237Y0153170D01*
X0161504Y0149438D01*
X0151520Y0149438D01*
X0165890Y0135658D02*
X0168843Y0138611D01*
X0171796Y0138611D01*
X0176323Y0142942D02*
X0179670Y0139595D01*
X0183607Y0139595D01*
X0185575Y0137627D01*
X0185575Y0127784D01*
X0188134Y0125225D01*
X0192297Y0125225D01*
X0192297Y0122076D02*
X0181441Y0122076D01*
X0186560Y0118926D02*
X0184591Y0116957D01*
X0176717Y0116957D01*
X0173764Y0119910D01*
X0165890Y0123847D02*
X0163922Y0121879D01*
X0156048Y0121879D01*
X0152111Y0117942D01*
X0152111Y0098257D01*
X0147189Y0093335D01*
X0124552Y0093335D01*
X0130804Y0087776D02*
X0148812Y0087776D01*
X0152111Y0084477D01*
X0152111Y0076603D01*
X0154079Y0074635D01*
X0154079Y0070391D01*
X0159678Y0070391D01*
X0163922Y0074635D01*
X0163922Y0070698D01*
X0169827Y0064792D01*
X0179670Y0064792D01*
X0186560Y0071682D01*
X0187544Y0072666D01*
X0187544Y0082509D01*
X0183607Y0086446D01*
X0179670Y0086446D01*
X0177701Y0088414D01*
X0177701Y0098749D01*
X0179670Y0100717D01*
X0203292Y0100717D01*
X0207623Y0105048D01*
X0207623Y0109900D01*
X0210772Y0109900D02*
X0210772Y0115580D01*
X0204473Y0121879D01*
X0204473Y0131524D01*
X0200339Y0135658D01*
X0194434Y0141564D01*
X0189796Y0141564D01*
X0187827Y0143532D01*
X0187827Y0147186D01*
X0192170Y0151209D02*
X0192170Y0155343D01*
X0192170Y0151209D02*
X0194926Y0148454D01*
X0209689Y0148454D01*
X0210772Y0147371D01*
X0210772Y0143700D01*
X0207623Y0143700D02*
X0207623Y0138020D01*
X0205260Y0135658D01*
X0200339Y0135658D01*
X0212150Y0126800D02*
X0215103Y0126800D01*
X0222977Y0134674D01*
X0226097Y0134674D01*
X0243646Y0134674D01*
X0250536Y0141564D01*
X0256441Y0141564D01*
X0258410Y0139595D01*
X0258410Y0117942D01*
X0255693Y0115225D01*
X0252504Y0115225D01*
X0244138Y0109576D02*
X0248489Y0105225D01*
X0252504Y0105225D01*
X0246599Y0098749D02*
X0246599Y0081131D01*
X0252504Y0075225D01*
X0258410Y0082509D02*
X0258410Y0029359D01*
X0256441Y0027391D01*
X0238725Y0059871D02*
X0238725Y0078572D01*
X0242662Y0082509D01*
X0242662Y0097272D01*
X0235772Y0104162D01*
X0235772Y0122863D01*
X0233410Y0125225D01*
X0226097Y0125225D01*
X0226097Y0122076D02*
X0230654Y0122076D01*
X0232327Y0120402D01*
X0232327Y0111544D01*
X0228882Y0108099D01*
X0226914Y0102194D02*
X0222977Y0102194D01*
X0220221Y0104950D01*
X0220221Y0109900D01*
X0213922Y0109900D02*
X0213922Y0104950D01*
X0209689Y0100717D01*
X0203292Y0100717D01*
X0199355Y0104162D02*
X0179178Y0104162D01*
X0174749Y0099733D01*
X0174749Y0085461D01*
X0181638Y0078572D01*
X0197386Y0076406D02*
X0203095Y0076406D01*
X0205260Y0078572D01*
X0205260Y0092351D01*
X0207229Y0094320D01*
X0190197Y0094320D01*
X0199355Y0104162D02*
X0201323Y0106131D01*
X0201323Y0109900D01*
X0204473Y0109900D02*
X0204473Y0121879D01*
X0192297Y0118926D02*
X0186560Y0118926D01*
X0192297Y0115776D02*
X0192297Y0113837D01*
X0190497Y0112036D01*
X0175733Y0112036D01*
X0176717Y0107115D02*
X0171796Y0102194D01*
X0171796Y0096288D01*
X0169827Y0094320D01*
X0165890Y0098257D02*
X0163922Y0096288D01*
X0163922Y0074635D01*
X0158323Y0082509D02*
X0158323Y0090076D01*
X0158323Y0107225D01*
X0161953Y0110855D01*
X0158705Y0110855D01*
X0157524Y0112036D01*
X0161953Y0110855D02*
X0165890Y0110855D01*
X0165890Y0103375D02*
X0165890Y0098257D01*
X0158323Y0090076D02*
X0156048Y0092351D01*
X0153095Y0092351D01*
X0146697Y0082509D02*
X0142760Y0078572D01*
X0132119Y0078572D01*
X0120922Y0078572D02*
X0109001Y0078572D01*
X0104158Y0083414D01*
X0080890Y0068729D02*
X0074079Y0061918D01*
X0080890Y0068729D02*
X0130457Y0068729D01*
X0132119Y0067068D01*
X0132119Y0060855D01*
X0135378Y0054950D02*
X0114709Y0054950D01*
X0108804Y0060855D01*
X0105221Y0060855D01*
X0104158Y0061918D01*
X0108804Y0060855D02*
X0120922Y0060855D01*
X0135378Y0054950D02*
X0141284Y0060855D01*
X0146205Y0051997D02*
X0141284Y0047076D01*
X0132119Y0047076D01*
X0120922Y0047076D02*
X0109001Y0047076D01*
X0104158Y0051918D01*
X0120922Y0027391D02*
X0120922Y0023146D01*
X0123567Y0020501D01*
X0138331Y0020501D01*
X0141284Y0023454D01*
X0141284Y0027391D01*
X0120922Y0013611D02*
X0110969Y0013611D01*
X0104158Y0020422D01*
X0102898Y0011643D02*
X0065497Y0011643D01*
X0061560Y0015580D01*
X0061560Y0115973D01*
X0063835Y0118249D01*
X0073371Y0118249D01*
X0053686Y0142675D02*
X0059418Y0148407D01*
X0059418Y0148414D01*
X0095087Y0148414D01*
X0104599Y0157926D01*
X0173150Y0157926D01*
X0176323Y0154753D01*
X0176323Y0149438D01*
X0176323Y0142942D01*
X0165890Y0135658D02*
X0165890Y0123847D01*
X0171489Y0129261D02*
X0184099Y0129261D01*
X0185575Y0127784D01*
X0193774Y0109900D02*
X0190989Y0107115D01*
X0176717Y0107115D01*
X0193774Y0109900D02*
X0198174Y0109900D01*
X0217071Y0104162D02*
X0217071Y0100225D01*
X0211166Y0094320D01*
X0207229Y0094320D01*
X0226914Y0102194D02*
X0228197Y0100910D01*
X0228197Y0094320D01*
X0239217Y0106131D02*
X0246599Y0098749D01*
X0239217Y0106131D02*
X0239217Y0125324D01*
X0236166Y0128375D01*
X0226097Y0128375D01*
X0226097Y0131524D02*
X0248804Y0131524D01*
X0252504Y0135225D01*
X0243154Y0142548D02*
X0241973Y0143729D01*
X0234788Y0143729D01*
X0226746Y0143700D02*
X0220221Y0143700D01*
X0217071Y0143700D02*
X0217071Y0147469D01*
X0219040Y0149438D01*
X0225339Y0149438D01*
X0227111Y0151209D01*
X0234788Y0151209D01*
X0234788Y0153375D01*
X0232819Y0155343D01*
X0223272Y0155343D01*
X0215792Y0155343D02*
X0209689Y0155343D01*
X0207721Y0153375D01*
X0205752Y0155343D01*
X0199650Y0155343D01*
X0219237Y0137824D02*
X0217071Y0135658D01*
X0219237Y0137824D02*
X0226097Y0137824D01*
X0244138Y0122371D02*
X0249650Y0122371D01*
X0252504Y0125225D01*
X0252504Y0085225D02*
X0255693Y0085225D01*
X0258410Y0082509D01*
X0199552Y0056918D02*
X0199552Y0053178D01*
X0193449Y0047076D01*
X0187544Y0047076D01*
X0182170Y0041702D01*
X0176127Y0041702D01*
D36*
X0141284Y0060855D03*
X0153095Y0092351D03*
X0186560Y0071682D03*
X0212150Y0126800D03*
X0171796Y0138611D03*
X0130756Y0147225D03*
X0108575Y0130209D03*
D37*
X0035969Y0153375D03*
X0252504Y0153375D03*
X0252504Y0015580D03*
M02*
